<?xml version="1.0" encoding="UTF-8"?>
<svg width="237px" height="212px" viewBox="0 0 237 212" version="1.1" xmlns="http://www.w3.org/2000/svg" xmlns:xlink="http://www.w3.org/1999/xlink">
    <!-- Generator: Sketch 58 (84663) - https://sketch.com -->
    <title>Group 105</title>
    <desc>Created with Sketch.</desc>
    <defs>
        <polygon id="path-1" points="0 0.19364 8.48073834 0.19364 8.48073834 8.73806222 0 8.73806222"></polygon>
        <circle id="path-3" cx="92" cy="92" r="92"></circle>
        <path d="M0.161574297,95.7292 C0.161574297,148.216 42.2101526,190.765452 94.0800321,190.765452 L94.0800321,190.765452 C145.949912,190.765452 187.99849,148.216 187.99849,95.7292 L187.99849,95.7292 C187.99849,43.243164 145.949912,0.693712 94.0800321,0.693712 L94.0800321,0.693712 C42.2101526,0.693712 0.161574297,43.243164 0.161574297,95.7292" id="path-5"></path>
        <path d="M0.161574297,95.7292 C0.161574297,148.216 42.2101526,190.765452 94.0800321,190.765452 L94.0800321,190.765452 C145.949912,190.765452 187.99849,148.216 187.99849,95.7292 L187.99849,95.7292 C187.99849,43.243164 145.949912,0.693712 94.0800321,0.693712 L94.0800321,0.693712 C42.2101526,0.693712 0.161574297,43.243164 0.161574297,95.7292" id="path-7"></path>
        <path d="M0.161574297,95.7292 C0.161574297,148.216 42.2101526,190.765452 94.0800321,190.765452 L94.0800321,190.765452 C145.949912,190.765452 187.99849,148.216 187.99849,95.7292 L187.99849,95.7292 C187.99849,43.243164 145.949912,0.693712 94.0800321,0.693712 L94.0800321,0.693712 C42.2101526,0.693712 0.161574297,43.243164 0.161574297,95.7292" id="path-9"></path>
        <path d="M0.161574297,95.7292 C0.161574297,148.216 42.2101526,190.765452 94.0800321,190.765452 L94.0800321,190.765452 C145.949912,190.765452 187.99849,148.216 187.99849,95.7292 L187.99849,95.7292 C187.99849,43.243164 145.949912,0.693712 94.0800321,0.693712 L94.0800321,0.693712 C42.2101526,0.693712 0.161574297,43.243164 0.161574297,95.7292" id="path-11"></path>
        <path d="M0.161574297,95.7292 C0.161574297,148.216 42.2101526,190.765452 94.0800321,190.765452 L94.0800321,190.765452 C145.949912,190.765452 187.99849,148.216 187.99849,95.7292 L187.99849,95.7292 C187.99849,43.243164 145.949912,0.693712 94.0800321,0.693712 L94.0800321,0.693712 C42.2101526,0.693712 0.161574297,43.243164 0.161574297,95.7292" id="path-13"></path>
        <path d="M0.161574297,95.7292 C0.161574297,148.216 42.2101526,190.765452 94.0800321,190.765452 L94.0800321,190.765452 C145.949912,190.765452 187.99849,148.216 187.99849,95.7292 L187.99849,95.7292 C187.99849,43.243164 145.949912,0.693712 94.0800321,0.693712 L94.0800321,0.693712 C42.2101526,0.693712 0.161574297,43.243164 0.161574297,95.7292" id="path-15"></path>
        <path d="M0.161574297,95.7292 C0.161574297,148.216 42.2101526,190.765452 94.0800321,190.765452 L94.0800321,190.765452 C145.949912,190.765452 187.99849,148.216 187.99849,95.7292 L187.99849,95.7292 C187.99849,43.243164 145.949912,0.693712 94.0800321,0.693712 L94.0800321,0.693712 C42.2101526,0.693712 0.161574297,43.243164 0.161574297,95.7292" id="path-17"></path>
        <path d="M0.161574297,95.7292 C0.161574297,148.216 42.2101526,190.765452 94.0800321,190.765452 L94.0800321,190.765452 C145.949912,190.765452 187.99849,148.216 187.99849,95.7292 L187.99849,95.7292 C187.99849,43.243164 145.949912,0.693712 94.0800321,0.693712 L94.0800321,0.693712 C42.2101526,0.693712 0.161574297,43.243164 0.161574297,95.7292" id="path-19"></path>
        <path d="M0.161574297,95.7292 C0.161574297,148.216 42.2101526,190.765452 94.0800321,190.765452 L94.0800321,190.765452 C145.949912,190.765452 187.99849,148.216 187.99849,95.7292 L187.99849,95.7292 C187.99849,43.243164 145.949912,0.693712 94.0800321,0.693712 L94.0800321,0.693712 C42.2101526,0.693712 0.161574297,43.243164 0.161574297,95.7292" id="path-21"></path>
        <path d="M0.161574297,95.7292 C0.161574297,148.216 42.2101526,190.765452 94.0800321,190.765452 L94.0800321,190.765452 C145.949912,190.765452 187.99849,148.216 187.99849,95.7292 L187.99849,95.7292 C187.99849,43.243164 145.949912,0.693712 94.0800321,0.693712 L94.0800321,0.693712 C42.2101526,0.693712 0.161574297,43.243164 0.161574297,95.7292" id="path-23"></path>
        <path d="M0.161574297,95.7292 C0.161574297,148.216 42.2101526,190.765452 94.0800321,190.765452 L94.0800321,190.765452 C145.949912,190.765452 187.99849,148.216 187.99849,95.7292 L187.99849,95.7292 C187.99849,43.243164 145.949912,0.693712 94.0800321,0.693712 L94.0800321,0.693712 C42.2101526,0.693712 0.161574297,43.243164 0.161574297,95.7292" id="path-25"></path>
        <path d="M0.161574297,95.7292 C0.161574297,148.216 42.2101526,190.765452 94.0800321,190.765452 L94.0800321,190.765452 C145.949912,190.765452 187.99849,148.216 187.99849,95.7292 L187.99849,95.7292 C187.99849,43.243164 145.949912,0.693712 94.0800321,0.693712 L94.0800321,0.693712 C42.2101526,0.693712 0.161574297,43.243164 0.161574297,95.7292" id="path-27"></path>
        <path d="M0.161574297,95.7292 C0.161574297,148.216 42.2101526,190.765452 94.0800321,190.765452 L94.0800321,190.765452 C145.949912,190.765452 187.99849,148.216 187.99849,95.7292 L187.99849,95.7292 C187.99849,43.243164 145.949912,0.693712 94.0800321,0.693712 L94.0800321,0.693712 C42.2101526,0.693712 0.161574297,43.243164 0.161574297,95.7292" id="path-29"></path>
        <path d="M0.161574297,95.7292 C0.161574297,148.216 42.2101526,190.765452 94.0800321,190.765452 L94.0800321,190.765452 C145.949912,190.765452 187.99849,148.216 187.99849,95.7292 L187.99849,95.7292 C187.99849,43.243164 145.949912,0.693712 94.0800321,0.693712 L94.0800321,0.693712 C42.2101526,0.693712 0.161574297,43.243164 0.161574297,95.7292 L0.161574297,95.7292 Z" id="path-31"></path>
    </defs>
    <g id="Symbols" stroke="none" stroke-width="1" fill="none" fill-rule="evenodd">
        <g id="dibu/renaper/mujer_trama">
            <g id="Group-105">
                <g id="Group-34">
                    <path d="M196.890741,108.701164 C196.890741,64.2791719 161.152201,28.268083 117.065658,28.268083 C72.9798719,28.268083 37.2413319,64.2791719 37.2413319,108.701164 C37.2413319,153.12392 72.9798719,189.135009 117.065658,189.135009 C161.152201,189.135009 196.890741,153.12392 196.890741,108.701164" id="Fill-1" fill="#C6E9E6"></path>
                    <path d="M35.2073722,153.471602 C33.9587684,153.471602 32.9464073,152.451521 32.9464073,151.193395 C32.9464073,149.935269 33.9587684,148.914424 35.2073722,148.914424 C36.455976,148.914424 37.4683371,149.935269 37.4683371,151.193395 C37.4683371,152.451521 36.455976,153.471602 35.2073722,153.471602 M35.2073722,145.564254 C32.1225863,145.564254 29.6208355,148.084321 29.6208355,151.193395 C29.6208355,154.301706 32.1225863,156.821773 35.2073722,156.821773 C38.2929153,156.821773 40.7939089,154.301706 40.7939089,151.193395 C40.7939089,148.084321 38.2929153,145.564254 35.2073722,145.564254" id="Fill-3" fill="#C6E9E6"></path>
                    <path d="M184.89998,176.248717 C183.651376,176.248717 182.639015,175.228636 182.639015,173.97051 C182.639015,172.712384 183.651376,171.691539 184.89998,171.691539 C186.148583,171.691539 187.160944,172.712384 187.160944,173.97051 C187.160944,175.228636 186.148583,176.248717 184.89998,176.248717 M184.89998,168.341369 C181.815194,168.341369 179.313443,170.861436 179.313443,173.97051 C179.313443,177.078821 181.815194,179.59965 184.89998,179.59965 C187.984765,179.59965 190.486516,177.078821 190.486516,173.97051 C190.486516,170.861436 187.984765,168.341369 184.89998,168.341369" id="Fill-5" fill="#C6E9E6"></path>
                    <path d="M230.602666,86.9712926 C229.64558,86.9712926 228.870976,86.1900185 228.870976,85.2263963 C228.870976,84.263537 229.64558,83.482263 230.602666,83.482263 C231.558995,83.482263 232.333599,84.263537 232.333599,85.2263963 C232.333599,86.1900185 231.558995,86.9712926 230.602666,86.9712926 M230.602666,80.9171815 C228.240238,80.9171815 226.326065,82.8467148 226.326065,85.2263963 C226.326065,87.6068407 228.240238,89.5363741 230.602666,89.5363741 C232.964337,89.5363741 234.879266,87.6068407 234.879266,85.2263963 C234.879266,82.8467148 232.964337,80.9171815 230.602666,80.9171815" id="Fill-7" fill="#C6E9E6"></path>
                    <path d="M155.288988,18.3757341 C154.278141,18.3757341 153.458106,17.5502081 153.458106,16.5316526 C153.458106,15.513097 154.278141,14.6875711 155.288988,14.6875711 C156.299834,14.6875711 157.119112,15.513097 157.119112,16.5316526 C157.119112,17.5502081 156.299834,18.3757341 155.288988,18.3757341 M155.288988,11.9744748 C152.791023,11.9744748 150.766301,14.0146378 150.766301,16.5316526 C150.766301,19.0479044 152.791023,21.0880674 155.288988,21.0880674 C157.786952,21.0880674 159.811674,19.0479044 159.811674,16.5316526 C159.811674,14.0146378 157.786952,11.9744748 155.288988,11.9744748" id="Fill-9" fill="#C6E9E6"></path>
                    <path d="M10.6341824,118.146951 C8.00749553,118.146951 5.87903866,120.292403 5.87903866,122.938359 C5.87903866,125.584314 8.00749553,127.729003 10.6341824,127.729003 C13.2601121,127.729003 15.388569,125.584314 15.388569,122.938359 C15.388569,120.292403 13.2601121,118.146951 10.6341824,118.146951" id="Fill-11" fill="#C6E9E6"></path>
                    <path d="M201.393211,134.006739 C199.483581,134.006739 197.935131,135.566235 197.935131,137.49119 C197.935131,139.415383 199.483581,140.975642 201.393211,140.975642 C203.30284,140.975642 204.851291,139.415383 204.851291,137.49119 C204.851291,135.566235 203.30284,134.006739 201.393211,134.006739" id="Fill-13" fill="#C6E9E6"></path>
                    <path d="M86.8721607,13.4071667 C84.0804067,13.4071667 81.8179275,15.687663 81.8179275,18.4999444 C81.8179275,21.3122259 84.0804067,23.5927222 86.8721607,23.5927222 C89.6639147,23.5927222 91.9271511,21.3122259 91.9271511,18.4999444 C91.9271511,15.687663 89.6639147,13.4071667 86.8721607,13.4071667" id="Fill-15" fill="#C6E9E6"></path>
                    <path d="M113.930519,197.885889 C111.895953,197.885889 110.247554,199.547622 110.247554,201.596941 C110.247554,203.646259 111.895953,205.307993 113.930519,205.307993 C115.965084,205.307993 117.613484,203.646259 117.613484,201.596941 C117.613484,199.547622 115.965084,197.885889 113.930519,197.885889" id="Fill-17" fill="#C6E9E6"></path>
                    <path d="M185.223072,33.0504874 C182.835657,33.0504874 180.900283,35.0006207 180.900283,37.406243 C180.900283,39.8118652 182.835657,41.7619985 185.223072,41.7619985 C187.60973,41.7619985 189.545861,39.8118652 189.545861,37.406243 C189.545861,35.0006207 187.60973,33.0504874 185.223072,33.0504874" id="Fill-19" fill="#C6E9E6"></path>
                    <path d="M32.1053981,66.9151326 C30.7462447,66.9151326 29.6445355,68.0252437 29.6445355,69.3947622 C29.6445355,70.7635178 30.7462447,71.8736289 32.1053981,71.8736289 C33.4645514,71.8736289 34.5655035,70.7635178 34.5655035,69.3947622 C34.5655035,68.0252437 33.4645514,66.9151326 32.1053981,66.9151326" id="Fill-21" fill="#C6E9E6"></path>
                    <path d="M232.095614,59.195397 C229.777103,59.195397 227.897761,61.0890711 227.897761,63.4252637 C227.897761,65.7614563 229.777103,67.6551304 232.095614,67.6551304 C234.414883,67.6551304 236.293467,65.7614563 236.293467,63.4252637 C236.293467,61.0890711 234.414883,59.195397 232.095614,59.195397" id="Fill-23" fill="#C6E9E6"></path>
                    <path d="M8.27538882,81.5783652 C6.79584249,81.5783652 5.59645591,82.7861356 5.59645591,84.2769652 C5.59645591,85.7677948 6.79584249,86.9763281 8.27538882,86.9763281 C9.75417796,86.9763281 10.9535645,85.7677948 10.9535645,84.2769652 C10.9535645,82.7861356 9.75417796,81.5783652 8.27538882,81.5783652" id="Fill-25" fill="#C6E9E6"></path>
                    <path d="M120.87689,4.35819704 L122.559363,2.66289333 C123.142398,2.07541185 123.142398,1.11407852 122.559363,0.526597037 C121.976328,-0.0608844444 121.021513,-0.0608844444 120.439235,0.526597037 L118.756763,2.22113778 L117.075047,0.526597037 C116.491255,-0.0608844444 115.53644,-0.0608844444 114.954162,0.526597037 C114.37037,1.11407852 114.37037,2.07541185 114.954162,2.66289333 L116.635878,4.35819704 L114.954162,6.05350074 C114.37037,6.64098222 114.37037,7.60231556 114.954162,8.18979704 C115.53644,8.77727852 116.491255,8.77727852 117.075047,8.18979704 L118.756763,6.4952563 L120.439235,8.18979704 C121.021513,8.77727852 121.976328,8.77727852 122.559363,8.18979704 C123.142398,7.60231556 123.142398,6.64098222 122.559363,6.05350074 L120.87689,4.35819704 Z" id="Fill-27" fill="#C6E9E6"></path>
                    <g id="Group-31" transform="translate(0.000000, 51.118519)">
                        <mask id="mask-2" fill="white">
                            <use xlink:href="#path-1"></use>
                        </mask>
                        <g id="Clip-30"></g>
                        <path d="M6.36098914,4.46585111 L8.04346198,2.77054741 C8.62649712,2.18306593 8.62649712,1.22173259 8.04346198,0.634251111 C7.45966965,0.0467696296 6.50561214,0.0467696296 5.922577,0.634251111 L4.24010415,2.32879185 L2.5583885,0.634251111 C1.97459617,0.0467696296 1.02053866,0.0467696296 0.437503514,0.634251111 C-0.146288818,1.22173259 -0.146288818,2.18306593 0.437503514,2.77054741 L2.11921917,4.46585111 L0.437503514,6.16115481 C-0.146288818,6.7486363 -0.146288818,7.70996963 0.437503514,8.29745111 C1.02053866,8.88493259 1.97459617,8.88493259 2.5583885,8.29745111 L4.24010415,6.60291037 L5.922577,8.29745111 C6.50561214,8.88493259 7.45966965,8.88493259 8.04346198,8.29745111 C8.62649712,7.70996963 8.62649712,6.7486363 8.04346198,6.16115481 L6.36098914,4.46585111 Z" id="Fill-29" fill="#C6E9E6" mask="url(#mask-2)"></path>
                    </g>
                    <path d="M204.777616,159.093953 L206.202645,157.658056 C206.696332,157.160604 206.696332,156.34576 206.202645,155.848308 C205.708201,155.350856 204.900281,155.350856 204.406594,155.848308 L202.981565,157.284204 L201.557294,155.848308 C201.06285,155.350856 200.254929,155.350856 199.761242,155.848308 C199.266798,156.34576 199.266798,157.160604 199.761242,157.658056 L201.185514,159.093953 L199.761242,160.529086 C199.266798,161.027301 199.266798,161.841382 199.761242,162.338834 C200.254929,162.837049 201.06285,162.837049 201.557294,162.338834 L202.981565,160.903701 L204.406594,162.338834 C204.900281,162.837049 205.708201,162.837049 206.202645,162.338834 C206.696332,161.841382 206.696332,161.027301 206.202645,160.529086 L204.777616,159.093953 Z" id="Fill-32" fill="#C6E9E6"></path>
                </g>
                <g id="Group-102" transform="translate(26.000000, 28.000000)">
                    <mask id="mask-4" fill="white">
                        <use xlink:href="#path-3"></use>
                    </mask>
                    <g id="Mask"></g>
                    <g mask="url(#mask-4)">
                        <g transform="translate(-3.000000, 5.000000)">
                            <g id="Group-37" stroke="none" stroke-width="1" fill="none" fill-rule="evenodd">
                                <mask id="mask-6" fill="white">
                                    <use xlink:href="#path-5"></use>
                                </mask>
                                <g id="Clip-36"></g>
                                <path d="M81.7393044,129.405327 C73.5752723,118.789547 20.1009751,178.409051 19.1073687,181.090691 C19.1073687,181.090691 22.3282843,190.770571 25.4027261,189.474827 C33.3568627,186.120867 85.3845414,134.144419 81.7393044,129.405327" id="Fill-35" fill="#5B4B43" mask="url(#mask-6)"></path>
                            </g>
                            <g id="Group-40" stroke="none" stroke-width="1" fill="none" fill-rule="evenodd">
                                <mask id="mask-8" fill="white">
                                    <use xlink:href="#path-7"></use>
                                </mask>
                                <g id="Clip-39"></g>
                                <path d="M81.7393044,129.405327 C81.4682522,129.052359 81.1420835,128.782667 80.7751438,128.580207 C74.7878345,140.804207 33.9873044,182.223703 23.5272562,189.052335 C24.1403325,189.529835 24.7737944,189.739935 25.4027261,189.474827 C33.3568627,186.120867 85.3845414,134.144419 81.7393044,129.405327" id="Fill-38" fill="#6D4D44" mask="url(#mask-8)"></path>
                            </g>
                            <g id="Group-43" stroke="none" stroke-width="1" fill="none" fill-rule="evenodd">
                                <mask id="mask-10" fill="white">
                                    <use xlink:href="#path-9"></use>
                                </mask>
                                <g id="Clip-42"></g>
                                <path d="M50.5888369,229.825792 C59.8642586,225.745268 28.6766442,179.558412 26.8985719,178.319204 C26.8985719,178.319204 19.2230378,178.904428 19.6028129,181.429448 C20.5820739,187.961648 46.4475518,231.647932 50.5888369,229.825792" id="Fill-41" fill="#5B4B43" mask="url(#mask-10)"></path>
                            </g>
                            <g id="Group-46" stroke="none" stroke-width="1" fill="none" fill-rule="evenodd">
                                <mask id="mask-12" fill="white">
                                    <use xlink:href="#path-11"></use>
                                </mask>
                                <g id="Clip-45"></g>
                            </g>
                            <g id="Group-49" stroke="none" stroke-width="1" fill="none" fill-rule="evenodd">
                                <mask id="mask-14" fill="white">
                                    <use xlink:href="#path-13"></use>
                                </mask>
                                <g id="Clip-48"></g>
                                <path d="M109.791547,129.405327 C117.956334,118.789547 171.430631,178.409051 172.424238,181.090691 C172.424238,181.090691 169.202567,190.770571 166.12888,189.474827 C158.174744,186.120867 106.147065,134.144419 109.791547,129.405327" id="Fill-47" fill="#5B4B43" mask="url(#mask-14)"></path>
                            </g>
                            <g id="Group-52" stroke="none" stroke-width="1" fill="none" fill-rule="evenodd">
                                <mask id="mask-16" fill="white">
                                    <use xlink:href="#path-15"></use>
                                </mask>
                                <g id="Clip-51"></g>
                                <path d="M109.791547,129.405327 C110.063354,129.052359 110.388768,128.782667 110.755708,128.580207 C116.743772,140.804207 157.544302,182.223703 168.00435,189.052335 C167.391274,189.529835 166.757812,189.739935 166.12888,189.474827 C158.174744,186.120867 106.147065,134.144419 109.791547,129.405327" id="Fill-50" fill="#6D4D44" mask="url(#mask-16)"></path>
                            </g>
                            <g id="Group-55" stroke="none" stroke-width="1" fill="none" fill-rule="evenodd">
                                <mask id="mask-18" fill="white">
                                    <use xlink:href="#path-17"></use>
                                </mask>
                                <g id="Clip-54"></g>
                                <path d="M140.942769,229.825792 C131.667348,225.745268 162.854962,179.558412 164.633035,178.319204 C164.633035,178.319204 172.307814,178.904428 171.928794,181.429448 C170.949533,187.961648 145.084055,231.647932 140.942769,229.825792" id="Fill-53" fill="#5B4B43" mask="url(#mask-18)"></path>
                            </g>
                            <g id="Group-58" stroke="none" stroke-width="1" fill="none" fill-rule="evenodd">
                                <mask id="mask-20" fill="white">
                                    <use xlink:href="#path-19"></use>
                                </mask>
                                <g id="Clip-57"></g>
                            </g>
                            <g id="Group-61" stroke="none" stroke-width="1" fill="none" fill-rule="evenodd">
                                <mask id="mask-22" fill="white">
                                    <use xlink:href="#path-21"></use>
                                </mask>
                                <g id="Clip-60"></g>
                                <path d="M56.3333317,245.463574 C56.3333317,245.463574 72.5783438,260.023886 88.8233558,265.48343 L97.2841108,246.980114 L105.069123,265.48343 C105.069123,265.48343 127.028882,259.223978 135.866392,245.463574 C117.970906,219.20795 110.900898,197.299486 129.459292,169.969678 C129.459292,169.969678 121.989878,121.098126 94.9156129,119.884894 C67.8390827,118.670898 63.0160145,171.982054 63.0160145,171.982054 C80.6155325,198.673158 86.3786008,210.266094 56.3333317,245.463574" id="Fill-59" fill="#5B4B43" mask="url(#mask-22)"></path>
                            </g>
                            <g id="Group-64" stroke="none" stroke-width="1" fill="none" fill-rule="evenodd">
                                <mask id="mask-24" fill="white">
                                    <use xlink:href="#path-23"></use>
                                </mask>
                                <g id="Clip-63"></g>
                                <path d="M93.924347,143.14984 C97.9048129,143.14984 101.555335,144.58616 104.413841,146.978244 C107.159094,140.660728 108.989263,132.888556 107.031496,124.957472 C90.5494072,112.417176 80.3921221,126.260092 80.3921221,126.260092 C80.3921221,126.260092 78.2335197,134.897876 84.0441542,146.512204 C86.8052627,144.408148 90.2171984,143.14984 93.924347,143.14984" id="Fill-62" fill="#D8BEB8" mask="url(#mask-24)"></path>
                            </g>
                            <g id="Group-67" stroke="none" stroke-width="1" fill="none" fill-rule="evenodd">
                                <mask id="mask-26" fill="white">
                                    <use xlink:href="#path-25"></use>
                                </mask>
                                <g id="Clip-66"></g>
                                <path d="M84.3155084,125.223802 C84.3155084,125.223802 81.3218538,139.402878 94.9310908,154.78831 C94.9310908,154.78831 106.497243,139.81391 103.231782,124.127462 C91.5274602,113.568218 84.3155084,125.223802 84.3155084,125.223802" id="Fill-65" fill="#6D4D44" mask="url(#mask-26)"></path>
                            </g>
                            <g id="Group-70" stroke="none" stroke-width="1" fill="none" fill-rule="evenodd">
                                <mask id="mask-28" fill="white">
                                    <use xlink:href="#path-27"></use>
                                </mask>
                                <g id="Clip-69"></g>
                                <path d="M129.458914,169.969678 C129.458914,169.969678 129.450609,169.91849 129.444569,169.875706 C119.485854,175.488814 106.812842,178.855762 93.0072996,178.855762 C82.417388,178.855762 72.5017092,176.869362 63.956392,173.415318 C80.8046651,199.093358 85.8315888,210.90709 56.3329542,245.463574 C56.3329542,245.463574 72.5779663,260.023886 88.8237333,265.48343 L97.2844884,246.980114 L105.068745,265.48343 C105.068745,265.48343 127.028504,259.223978 135.866014,245.463574 C117.970529,219.20795 110.901276,197.298722 129.458914,169.969678" id="Fill-68" fill="#6D4D44" mask="url(#mask-28)"></path>
                            </g>
                            <g id="Group-73" stroke="none" stroke-width="1" fill="none" fill-rule="evenodd">
                                <mask id="mask-30" fill="white">
                                    <use xlink:href="#path-29"></use>
                                </mask>
                                <g id="Clip-72"></g>
                                <path d="M85.1236064,124.81086 C85.1236064,124.81086 82.3813735,138.726356 94.845245,153.826816 C94.845245,153.826816 105.440442,139.130512 102.448297,123.734384 C91.7292771,113.36996 85.1236064,124.81086 85.1236064,124.81086" id="Fill-71" fill="#FFCD9C" mask="url(#mask-30)"></path>
                            </g>
                            <mask id="mask-32" fill="white">
                                <use xlink:href="#path-31"></use>
                            </mask>
                            <g id="Clip-75" stroke="none" fill="none"></g>
                            <polygon id="Fill-74" stroke="none" fill="#FFCD9C" fill-rule="evenodd" mask="url(#mask-32)" points="86.8205141 123.968168 100.959775 123.968168 100.959775 97.147948 86.8205141 97.147948"></polygon>
                            <polygon id="Fill-76" stroke="none" fill="#F4AD7D" fill-rule="evenodd" mask="url(#mask-32)" points="94.787788 142.052354 93.4400771 152.084438 94.9048161 154.03111 96.0343261 152.084438"></polygon>
                            <path d="M107.870851,18.9621744 C107.870851,12.8822624 102.082112,7.9536984 94.9426426,7.9536984 C87.8024177,7.9536984 82.0144337,12.8822624 82.0144337,18.9621744 C82.0144337,25.0420864 87.8024177,29.9698864 94.9426426,29.9698864 C102.082112,29.9698864 107.870851,25.0420864 107.870851,18.9621744" id="Fill-78" stroke="none" fill="#824720" fill-rule="evenodd" mask="url(#mask-32)"></path>
                            <path d="M94.9425671,29.9700392 C100.767547,29.9700392 105.688768,26.6894232 107.307531,22.1810592 C105.688768,17.6719312 100.767547,14.3913152 94.9425671,14.3913152 C89.1175871,14.3913152 84.1963663,17.6719312 82.5791133,22.1810592 C84.1963663,26.6894232 89.1175871,29.9700392 94.9425671,29.9700392" id="Fill-79" stroke="none" fill="#703616" fill-rule="evenodd" mask="url(#mask-32)"></path>
                            <path d="M102.740565,23.4256916 C102.740565,20.7302996 99.0658827,18.5452596 94.5319871,18.5452596 C89.9980916,18.5452596 86.3234088,20.7302996 86.3234088,23.4256916 C86.3234088,26.1203196 89.9980916,28.3061236 94.5319871,28.3061236 C99.0658827,28.3061236 102.740565,26.1203196 102.740565,23.4256916" id="Fill-80" stroke="none" fill="#54AFAF" fill-rule="evenodd" mask="url(#mask-32)"></path>
                            <path d="M79.1402233,95.3822676 C70.9324,88.9417476 55.1298297,54.4731236 69.0841108,35.5740556 C88.6648016,9.0579076 119.300496,26.4557156 123.262842,44.5036876 C127.777862,65.0613996 121.415308,84.1690396 108.281733,97.6666276 C95.146649,111.163452 79.1402233,95.3822676 79.1402233,95.3822676" id="Fill-81" stroke="none" fill="#824720" fill-rule="evenodd" mask="url(#mask-32)"></path>
                            <path d="M94.5319116,65.6840596 C82.0401044,65.6840596 70.8892129,61.4507356 63.5504177,54.8192156 C63.6432851,72.0657516 73.3060321,90.8059076 79.1400723,95.3822676 C79.1400723,95.3822676 95.146498,111.163452 108.281582,97.6666276 C119.024763,86.6245356 125.228008,71.8281476 124.661743,55.5572396 C117.327478,61.7609196 106.551831,65.6840596 94.5319116,65.6840596" id="Fill-82" stroke="none" fill="#703616" fill-rule="evenodd" mask="url(#mask-32)"></path>
                            <path d="M94.0769365,115.109359 C85.2786876,115.109359 65.4662056,85.9734548 73.6506233,50.1670668 C75.3071373,42.9296948 81.799555,38.7651308 94.0769365,38.7651308 C107.581226,38.7651308 113.759555,43.1886908 114.743346,49.0493348 C121.700856,90.4909868 103.081306,115.109359 94.0769365,115.109359" id="Fill-83" stroke="none" fill="#FFCD9C" fill-rule="evenodd" mask="url(#mask-32)"></path>
                            <path d="M97.3013253,65.8951528 C100.378787,65.2671448 107.077325,64.7208848 110.64555,72.9407608 C107.050145,67.9564248 104.2611,66.0953208 97.3013253,65.8951528" id="Fill-84" stroke="none" fill="#A5331C" fill-rule="evenodd" mask="url(#mask-32)"></path>
                            <path d="M89.2843711,66.8975972 C86.3201622,65.9036332 79.7733831,64.5490612 75.2485478,72.2738652 C79.4064434,67.7647372 82.3865076,66.2558372 89.2843711,66.8975972" id="Fill-85" stroke="none" fill="#A5331C" fill-rule="evenodd" mask="url(#mask-32)"></path>
                            <path d="M106.228834,78.730964 C106.156352,77.032592 105.040432,75.706288 103.738022,75.76588 C102.433348,75.821652 101.431436,77.24422 101.504673,78.941828 C101.577155,80.6402 102.693075,81.963448 103.996994,81.907676 C105.301669,81.848084 106.302826,80.42628 106.228834,78.730964" id="Fill-86" stroke="none" fill="#5B371E" fill-rule="evenodd" mask="url(#mask-32)"></path>
                            <path d="M109.111727,78.3310864 C106.830056,76.3202384 103.779775,74.4392704 99.2209639,76.7732904 C103.40151,76.3683704 106.054651,77.2102984 109.111727,78.3310864" id="Fill-87" stroke="none" fill="#5B371E" fill-rule="evenodd" mask="url(#mask-32)"></path>
                            <path d="M81.3374827,78.730964 C81.4099647,77.032592 82.5258843,75.706288 83.828294,75.76588 C85.1337237,75.821652 86.1333703,77.24422 86.0608884,78.941828 C85.9876514,80.6402 84.8724867,81.963448 83.5693221,81.907676 C82.2646474,81.848084 81.2650008,80.42628 81.3374827,78.730964" id="Fill-88" stroke="none" fill="#5B371E" fill-rule="evenodd" mask="url(#mask-32)"></path>
                            <path d="M78.4560241,78.3310864 C80.7376948,76.3202384 83.7872209,74.4392704 88.343012,76.7732904 C84.1654859,76.3683704 81.5131004,77.2102984 78.4560241,78.3310864" id="Fill-89" stroke="none" fill="#5B371E" fill-rule="evenodd" mask="url(#mask-32)"></path>
                            <path d="M91.3783438,90.7076572 C91.3843839,90.8795572 93.3293157,91.8146932 94.0141189,91.8146932 C95.1844,91.8146932 96.5993076,90.8994212 96.649139,90.5976412 C96.7669221,89.8634372 94.8438859,81.6794692 94.1605928,81.6061252 C93.4765446,81.5274332 91.3292675,89.6434052 91.3783438,90.7076572" id="Fill-90" stroke="none" fill="#F4AD7D" fill-rule="evenodd" mask="url(#mask-32)"></path>
                            <path d="M93.002694,89.3080092 C93.0072241,89.4745612 93.7856498,89.7366132 94.0612321,89.7366132 C94.5331197,89.7366132 95.1024048,89.4913692 95.1220353,89.1957012 C95.1688466,88.4805972 95.5433365,80.3531652 94.1208787,80.4318572 C92.5647823,80.5136052 92.9845735,88.2689692 93.002694,89.3080092" id="Fill-91" stroke="none" fill="#FFCD9C" fill-rule="evenodd" mask="url(#mask-32)"></path>
                            <path d="M111.341452,88.057876 C111.151942,87.117392 109.715894,86.464172 108.021629,86.559672 C106.19599,86.66052 104.607428,87.590308 104.607428,88.691232 C104.607428,89.868556 106.393051,90.640196 108.42783,90.361336 C110.30028,90.105396 111.541533,89.057952 111.341452,88.057876" id="Fill-92" stroke="none" fill="#F4AD7D" fill-rule="evenodd" mask="url(#mask-32)"></path>
                            <path d="M77.4982056,88.3954876 C77.6907357,87.4527116 79.1418843,86.8017836 80.8557799,86.8949916 C82.7040691,86.9958396 84.3092418,87.9256276 84.3092418,89.0265516 C84.3092418,90.2069316 82.5054988,90.9747516 80.446559,90.6966556 C78.5522137,90.4399516 77.2951052,89.3925076 77.4982056,88.3954876" id="Fill-93" stroke="none" fill="#F4AD7D" fill-rule="evenodd" mask="url(#mask-32)"></path>
                            <path d="M96.7999165,105.306475 C96.7999165,104.314803 95.7172177,104.411067 94.3219406,104.411067 C92.9259084,104.411067 91.7465671,104.314803 91.7465671,105.306475 C91.7465671,106.297383 92.8760771,107.100347 94.2728643,107.100347 C95.6688964,107.100347 96.7999165,106.297383 96.7999165,105.306475" id="Fill-94" stroke="none" fill="#F4AD7D" fill-rule="evenodd" mask="url(#mask-32)"></path>
                            <path d="M98.9499116,95.9739856 C95.993253,94.3657656 95.0185221,95.8326456 94.3359839,95.8326456 C93.4654458,95.8326456 92.5949076,94.3459016 89.5944578,95.9739856 C88.7322249,96.4415536 91.6873735,97.7678576 94.2733173,97.7678576 C96.856996,97.7678576 99.8144096,96.4415536 98.9499116,95.9739856" id="Fill-95" stroke="none" fill="#F4AD7D" fill-rule="evenodd" mask="url(#mask-32)"></path>
                            <path d="M87.4587325,96.049698 L101.045319,96.049698 C101.045319,96.049698 99.2242104,105.942734 94.2524032,105.942734 C89.280596,105.942734 87.4587325,96.049698 87.4587325,96.049698" id="Fill-96" stroke="none" fill="#5B371E" fill-rule="evenodd" mask="url(#mask-32)"></path>
                            <polygon id="Fill-97" stroke="none" fill="#FFEADC" fill-rule="evenodd" mask="url(#mask-32)" points="100.052241 96.5540144 88.3509398 96.5540144 89.636739 100.578002 98.7649317 100.578002"></polygon>
                            <path d="M101.812268,96.0243332 C101.812268,95.5766292 101.506485,95.2160212 101.128975,95.2160212 C100.75222,95.2160212 100.445682,95.5766292 100.445682,96.0243332 C100.445682,96.4697452 100.75222,96.8295892 101.128975,96.8295892 C101.506485,96.8295892 101.812268,96.4697452 101.812268,96.0243332" id="Fill-98" stroke="none" fill="#5B371E" fill-rule="evenodd" mask="url(#mask-32)"></path>
                            <path d="M88.0323968,96.0243332 C88.0323968,95.5766292 87.7251036,95.2160212 87.3491036,95.2160212 C86.9708386,95.2160212 86.6643004,95.5766292 86.6643004,96.0243332 C86.6643004,96.4697452 86.9708386,96.8295892 87.3491036,96.8295892 C87.7251036,96.8295892 88.0323968,96.4697452 88.0323968,96.0243332" id="Fill-99" stroke="none" fill="#5B371E" fill-rule="evenodd" mask="url(#mask-32)"></path>
                            <path d="M72.4254522,84.4475176 C72.0101912,82.4848016 72.267653,80.8910976 70.83689,81.2005176 C69.4038618,81.5099376 68.5801349,83.3519416 68.996151,85.3146576 C69.409902,87.2750816 70.9071068,88.6159016 72.3378699,88.3057176 C73.7678779,87.9962976 72.8399582,86.4102336 72.4254522,84.4475176" id="Fill-100" stroke="none" fill="#F4AD7D" fill-rule="evenodd" mask="url(#mask-32)"></path>
                            <path d="M115.678363,84.2054824 C116.358636,82.3214584 116.308805,80.6964304 117.723712,81.2205344 C119.140885,81.7438744 119.737351,83.7012424 119.055568,85.5883224 C118.376805,87.4723464 116.675745,88.5763264 115.260837,88.0552784 C113.844419,87.5288824 114.99809,86.0948544 115.678363,84.2054824" id="Fill-101" stroke="none" fill="#F4AD7D" fill-rule="evenodd" mask="url(#mask-32)"></path>
                        </g>
                    </g>
                </g>
                <path d="M136.574556,121.866648 C134.683886,120.159673 132.842891,118.496606 130.94458,116.781928 C133.500117,113.907186 136.02967,111.059404 138.559988,108.211623 L138.628767,108.25784 C137.949379,112.760217 137.269228,117.262593 136.574556,121.866648 L136.574556,121.866648 Z M133.818794,135.691138 C132.557839,134.176737 131.354964,132.731663 130.147503,131.281197 C132.220055,128.484255 134.261275,125.730449 136.301731,122.976643 L136.398022,123.005144 C135.545157,127.197862 134.693057,131.389809 133.818794,135.691138 L133.818794,135.691138 Z M123.47743,143.983367 C125.633282,139.881544 127.78837,135.781262 129.980904,131.609343 C131.208998,133.081377 132.399646,134.508734 133.613985,135.964593 C130.226217,138.64445 126.852206,141.314294 123.47743,143.983367 L123.47743,143.983367 Z M126.000869,131.358227 L129.736355,131.358227 C127.595787,135.460819 125.504894,139.881544 123.385724,143.941771 C124.265336,139.873071 125.118201,135.443103 126.000869,131.358227 L126.000869,131.358227 Z M122.864529,141.993694 C122.624565,140.070267 122.383837,138.146839 122.144638,136.223412 C122.026949,135.274408 121.914609,134.325404 121.790806,133.377171 C121.76253,133.162258 121.829017,133.045944 122.032298,132.965833 C123.184735,132.512129 124.333351,132.047641 125.483496,131.588545 C125.502601,131.580842 125.529348,131.593167 125.601949,131.603181 C124.749084,135.573283 123.955064,140.23588 123.104493,144.20059 C123.042591,143.697587 122.927195,142.496697 122.864529,141.993694 L122.864529,141.993694 Z M117.31556,134.717485 C118.714074,134.214482 120.042281,133.736899 121.427039,133.239288 C121.874106,136.800363 122.503055,140.842103 122.941715,144.339243 C121.141987,141.333551 119.15197,137.78403 117.31556,134.717485 L117.31556,134.717485 Z M121.093841,144.822218 C120.143157,145.030968 119.186359,145.212758 118.240261,145.439995 C117.537947,145.60792 116.856266,145.715761 116.127205,145.537053 C114.57279,145.156527 113.00462,144.832232 111.441799,144.484059 C111.405881,144.475586 111.371491,144.456328 111.268322,144.413962 C113.176569,141.293496 115.07488,138.188435 116.999939,135.040238 C118.919648,138.179192 120.81796,141.281171 122.74684,144.433219 C122.173678,144.568791 121.63567,144.702823 121.093841,144.822218 L121.093841,144.822218 Z M111.175852,143.766144 L112.61487,133.317088 L116.660627,134.75754 L111.175852,143.766144 Z M110.952701,143.866282 L108.382644,131.542327 L112.19608,133.11527 L110.952701,143.866282 Z M104.252059,131.337429 L107.987545,131.352064 L110.702039,143.786171 L104.252059,131.337429 Z M110.400173,143.884769 C107.078129,141.257292 103.756084,138.629044 100.388186,135.966133 C101.600232,134.511045 102.788587,133.083688 104.017445,131.607802 C106.182468,135.725801 108.313865,139.776784 110.443734,143.828538 C110.429214,143.847025 110.415458,143.866282 110.400173,143.884769 L110.400173,143.884769 Z M97.6003274,122.992049 L97.6897406,122.962778 C99.2877153,125.120375 100.88569,127.277202 102.484429,129.434799 C102.887935,129.980168 103.30214,130.517834 103.689597,131.074758 C103.752262,131.165653 103.756848,131.386728 103.691889,131.466068 C102.554737,132.851829 101.404592,134.224496 100.182612,135.688827 C99.3106418,131.405215 98.4554846,127.198632 97.6003274,122.992049 L97.6003274,122.992049 Z M103.144711,117.131642 C103.144711,117.131642 103.586428,126.446053 103.801172,130.463143 C103.766018,130.48009 103.731629,130.496266 103.697239,130.512442 C101.656783,127.759407 99.6155638,125.006371 97.5475965,122.216362 C99.3817138,120.550983 103.144711,117.131642 103.144711,117.131642 L103.144711,117.131642 Z M95.3734033,108.264003 C95.4009151,108.252448 95.4291911,108.241664 95.4567028,108.23011 C97.9831994,111.07327 100.509696,113.91643 103.059119,116.78501 C101.178385,118.48197 99.3335683,120.147349 97.4253221,121.867418 C96.733707,117.279539 96.0535552,112.771771 95.3734033,108.264003 L95.3734033,108.264003 Z M98.2201062,101.785819 L95.4505891,106.696452 L95.3932729,93.0899554 L98.2201062,101.785819 Z M95.6745043,91.6880179 C97.3320878,90.8083406 98.9774438,89.9040139 100.626621,89.0104714 C100.719091,88.9596319 100.819203,88.9226577 100.965933,88.8571826 C100.104662,93.0106149 99.2571467,97.0985722 98.3844126,101.306695 C98.2330979,100.884574 98.1062381,100.560279 97.9992479,100.229052 C97.8074298,99.6305329 97.6339529,99.0273917 97.442899,98.4288722 C96.7849094,96.3691025 96.1223346,94.3108734 95.4628166,92.2518741 C95.386395,92.0107716 95.3955656,91.8359146 95.6745043,91.6880179 L95.6745043,91.6880179 Z M100.349975,79.3209266 L100.456201,79.3209266 C100.470721,79.4256868 100.492119,79.5304469 100.498997,79.6359774 C100.688522,82.4229058 100.873463,85.2106046 101.069102,87.9967627 C101.087443,88.2594334 101.033948,88.4119519 100.785578,88.545213 C99.0653286,89.4657159 97.3557784,90.4054762 95.5621646,91.2905455 C97.1578466,87.3004158 98.7542929,83.310286 100.349975,79.3209266 L100.349975,79.3209266 Z M110.08226,82.3119833 C107.179769,84.2870205 104.336887,86.221232 101.421405,88.2055128 C101.194433,84.9887595 100.973575,81.8575091 100.748131,78.664635 C103.869187,79.8847828 106.93522,81.082592 110.08226,82.3119833 L110.08226,82.3119833 Z M109.075788,74.0852293 C109.479294,76.7365858 109.874393,79.332481 110.284013,82.0277443 C107.127038,80.7937312 104.054892,79.5928408 100.88569,78.3534357 C103.661321,76.9068211 106.339896,75.5102757 109.075788,74.0852293 L109.075788,74.0852293 Z M116.405379,73.3796388 C114.457394,76.2174068 112.559082,78.9819967 110.595813,81.8421032 C110.196128,79.2061526 109.813256,76.6726513 109.418156,74.0628908 C111.731437,73.836424 114.01797,73.6130383 116.405379,73.3796388 L116.405379,73.3796388 Z M117.015987,73.4042883 C117.463818,74.032079 117.896364,74.6329093 118.322796,75.2360505 C119.830593,77.368228 121.322342,79.5127301 122.854594,81.6271908 C123.198491,82.1009224 123.318473,82.4367712 122.982218,83.0029382 C121.897032,84.8323896 120.89056,86.7080587 119.851991,88.566011 C118.958623,90.1659143 118.063727,91.7658177 117.16883,93.3649508 C117.126799,93.44121 117.074068,93.5105366 116.993825,93.6330136 C116.581913,92.9058548 116.189106,92.2226028 115.804706,91.5347291 C114.67978,89.5204069 113.557912,87.5037737 112.432223,85.4894515 C111.881987,84.5050141 111.321817,83.5259687 110.781517,82.535369 C110.728022,82.4375414 110.725729,82.2449676 110.786867,82.1586945 C112.805924,79.2893445 114.836445,76.4269271 116.866201,73.5645097 C116.895241,73.5236841 116.935745,73.4897911 117.015987,73.4042883 L117.015987,73.4042883 Z M124.585542,74.0613502 C124.192735,76.6418395 123.807571,79.1753408 123.403301,81.8359408 C121.442324,78.9819967 119.54172,76.2158662 117.593734,73.3804091 C119.961274,73.6107274 122.249335,73.8341131 124.585542,74.0613502 L124.585542,74.0613502 Z M124.921033,74.0836887 C127.653868,75.5079648 130.336264,76.9052805 133.114188,78.3534357 C129.956449,79.5882191 126.888124,80.7883392 123.72045,82.0277443 C124.126249,79.3417246 124.518291,76.7535323 124.921033,74.0836887 L124.921033,74.0836887 Z M132.583822,88.208594 C129.672161,86.2266241 126.828515,84.2924126 123.918382,82.3127536 C127.055487,81.0864435 130.111585,79.8917154 133.246397,78.6669459 C133.023246,81.8813882 132.805445,85.0103278 132.583822,88.208594 L132.583822,88.208594 Z M133.510816,79.7877256 C133.522279,79.6367477 133.542913,79.4865401 133.64761,79.3155345 C135.245585,83.3072049 136.842795,87.2981049 138.440006,91.2897752 C138.418608,91.3090326 138.397974,91.3275197 138.375812,91.3475474 C137.391502,90.8114218 136.407192,90.2737557 135.422119,89.7391707 C134.736617,89.3678884 134.05723,88.9819704 133.357972,88.6384187 C133.00032,88.4620211 132.877281,88.2455681 132.91702,87.8388522 C133.022482,86.7442626 133.07827,85.6450511 133.157748,84.5481506 C133.273909,82.9613423 133.392362,81.3745339 133.510816,79.7877256 L133.510816,79.7877256 Z M138.537061,92.2110484 C137.66127,94.9209473 136.799999,97.6339274 135.934907,100.346908 C135.842437,100.636539 135.755317,100.92771 135.59636,101.212719 C134.74808,97.1224513 133.900565,93.0329535 133.027067,88.8202084 C133.758421,89.2192214 134.394249,89.5673949 135.03084,89.9124872 C136.131311,90.5086958 137.228724,91.1087558 138.335308,91.6949505 C138.572979,91.8205087 138.622653,91.9476074 138.537061,92.2110484 L138.537061,92.2110484 Z M137.315845,104.615114 C136.8726,103.864076 136.43394,103.109957 135.991459,102.358919 C135.865364,102.144777 135.787414,101.954514 135.879884,101.675667 C136.335356,100.307622 136.756439,98.9287939 137.189749,97.5538167 C137.614653,96.2019484 138.038793,94.8493099 138.466753,93.4982119 C138.507257,93.3688023 138.565337,93.2447847 138.608133,93.1361731 L138.608133,106.779644 C138.17788,106.057877 137.743041,105.337651 137.315845,104.615114 L137.315845,104.615114 Z M133.591822,106.993786 C134.290315,105.424694 134.947541,103.948808 135.636099,102.400515 C136.625758,104.08438 137.582556,105.711244 138.59132,107.424381 C136.865722,107.276484 135.239471,107.13552 133.591822,106.993786 L133.591822,106.993786 Z M133.504702,107.325783 L138.506493,107.771784 C136.012857,110.57797 133.574245,113.321762 131.135634,116.067094 C131.924304,113.156919 132.712975,110.248284 133.504702,107.325783 L133.504702,107.325783 Z M130.790972,116.062473 C130.787916,114.444082 130.79785,112.826462 130.787151,111.208842 C130.78333,110.626499 130.736713,110.044155 130.735178,109.461812 C130.73442,109.331632 130.802436,109.149072 130.901784,109.076664 C131.579643,108.582135 132.273551,108.111484 133.057636,107.677808 C132.302591,110.472439 131.546782,113.267071 130.790972,116.062473 L130.790972,116.062473 Z M130.91019,117.216375 C131.383239,117.630024 131.784453,117.970494 132.174203,118.323289 C133.519222,119.543437 134.857363,120.772058 136.206968,121.986814 C136.365925,122.130089 136.451517,122.23716 136.304788,122.433585 C134.310949,125.114983 132.318639,127.797922 130.324801,130.48009 C130.317923,130.488563 130.30111,130.490104 130.197941,130.529389 C130.435612,126.093258 130.669462,121.710278 130.91019,117.216375 L130.91019,117.216375 Z M129.506326,130.383803 C127.705834,127.877262 125.904578,125.370721 124.108672,122.861099 C123.607346,122.160901 123.60429,122.140103 124.29514,121.644803 C125.88318,120.505536 127.483448,119.386297 129.075309,118.253192 C129.450538,117.98667 129.808191,117.696269 130.176543,117.421273 C130.285062,117.340392 130.403515,117.274917 130.577756,117.164765 C130.330915,121.719521 130.088658,126.196478 129.839524,130.782046 C129.691266,130.605648 129.59039,130.500888 129.506326,130.383803 L129.506326,130.383803 Z M124.752141,126.762645 C124.579429,126.094799 124.45639,125.413087 124.276799,124.747552 C124.148411,124.270739 123.961942,123.809333 123.807571,123.339452 C123.779295,123.252409 123.779295,123.156122 123.765539,123.063687 C123.787701,123.055984 123.809099,123.049051 123.829733,123.041348 C125.713524,125.663433 127.596551,128.286289 129.530017,130.979241 C129.329028,130.997728 129.199111,131.020837 129.068431,131.020837 C128.183469,131.023918 127.295451,130.993877 126.412017,131.034703 C125.977943,131.05473 125.838856,130.864467 125.744093,130.495496 C125.423887,129.248388 125.07464,128.008983 124.752141,126.762645 L124.752141,126.762645 Z M121.904674,128.996501 L123.325351,122.543737 L125.491138,130.890657 L121.904674,128.996501 Z M117.537947,131.13176 L118.745407,128.890971 L121.550842,129.184453 L125.37727,131.13176 L117.537947,131.13176 Z M125.004332,131.439108 L117.041971,134.474071 L109.165965,131.439108 L125.004332,131.439108 Z M112.487246,129.184453 L115.293446,128.890971 L116.500142,131.13176 L108.661583,131.13176 L112.487246,129.184453 Z M110.635552,123.001293 C110.658478,122.998982 110.681405,122.996671 110.705095,122.99436 C110.852589,123.537418 111.006961,124.079706 111.145284,124.625075 C111.440271,125.78591 111.713096,126.952908 112.022603,128.109891 C112.23047,128.884038 112.248811,128.874024 111.525863,129.262253 C110.540025,129.790676 109.557244,130.327572 108.472822,130.916847 C109.21029,128.214651 109.922539,125.607972 110.635552,123.001293 L110.635552,123.001293 Z M110.170909,123.040578 C110.198421,123.053673 110.225932,123.066768 110.254208,123.079093 C110.160974,123.460389 110.076146,123.843996 109.972213,124.222211 C109.369247,126.409079 108.763988,128.595177 108.150323,130.778194 C108.123575,130.873711 107.995951,131.010053 107.91418,131.010823 C106.810653,131.020837 105.705597,131.010823 104.60207,131.003891 C104.582201,131.003891 104.562331,130.97462 104.505779,130.930713 C106.394156,128.300925 108.282532,125.670366 110.170909,123.040578 L110.170909,123.040578 Z M110.407816,122.141643 C108.339084,125.023318 106.297864,127.866478 104.255881,130.708868 C104.223019,130.701935 104.190158,130.694232 104.156533,130.687299 C103.960893,127.099264 103.474088,117.981278 103.429764,117.136264 C105.795775,118.833225 108.087657,120.477805 110.407816,122.141643 L110.407816,122.141643 Z M101.025541,107.209468 C101.37326,106.919067 101.67971,106.657167 101.992274,106.40451 C102.230709,106.211936 102.509648,106.060188 102.712929,105.838343 C103.240238,105.265243 103.876065,105.125049 104.655565,105.28219 C103.373212,106.399888 103.188271,107.642374 104.330009,109.105165 C103.941788,109.003486 103.615468,108.994243 103.379325,108.842495 C102.599061,108.341032 101.85013,107.78796 101.025541,107.209468 L101.025541,107.209468 Z M100.945299,107.699376 C100.978924,107.677038 101.01255,107.653159 101.046175,107.63082 C101.75231,108.129201 102.463031,108.62065 103.159231,109.133666 C103.243295,109.19606 103.283034,109.371687 103.280742,109.493394 C103.227246,111.443012 103.31131,114.292334 103.168402,116.258128 C102.476787,113.705369 101.637678,110.252905 100.945299,107.699376 L100.945299,107.699376 Z M100.492883,107.325013 C101.285375,110.243662 102.076338,113.155378 102.868065,116.068635 C100.431746,113.327924 97.9977195,110.588754 95.492621,107.771014 C97.2143986,107.616955 98.8337713,107.472909 100.492883,107.325013 L100.492883,107.325013 Z M100.408055,106.996097 C98.7244885,107.140142 97.1020589,107.279565 95.4093215,107.423611 C96.407387,105.72665 97.3695343,104.091313 98.364543,102.400515 C99.0553938,103.9542 99.7133834,105.433938 100.408055,106.996097 L100.408055,106.996097 Z M101.539859,91.3537097 C101.931901,93.6699877 102.319358,95.9854955 102.717515,98.3002329 C102.75649,98.5282403 102.731271,98.6900023 102.535631,98.8301961 C101.311358,99.7083327 100.093199,100.592632 98.8712179,101.473079 C98.8307144,101.502351 98.7764551,101.508513 98.6793998,101.543176 C99.5078094,97.5468841 100.329341,93.5829444 101.150873,89.6190047 C101.181441,89.6159235 101.21201,89.6136126 101.242579,89.6105314 C101.341162,90.1913341 101.442039,90.7729071 101.539859,91.3537097 L101.539859,91.3537097 Z M116.340421,93.9765653 C111.868232,95.509453 107.499975,97.006907 103.099622,98.514375 C102.550916,95.2799049 102.012144,92.1062882 101.46038,88.8541014 C106.417846,90.5610758 111.325638,92.2503335 116.340421,93.9765653 L116.340421,93.9765653 Z M116.54141,93.6869342 C111.577065,91.9784192 106.612721,90.2691339 101.54368,88.5251853 C104.542461,86.4869839 107.449537,84.5104061 110.386418,82.5130304 C112.475019,86.249733 114.52923,89.9271228 116.58497,93.6045126 C116.57045,93.631473 116.556694,93.6592036 116.54141,93.6869342 L116.54141,93.6869342 Z M116.719472,103.129214 C115.238422,102.782581 113.790234,102.442881 112.270973,102.087005 C113.752787,99.6197488 115.207853,97.1956294 116.719472,94.677534 L116.719472,103.129214 Z M111.272143,122.666214 C111.286663,122.645416 111.302712,122.623848 111.317996,122.60305 C111.571716,122.70627 112.574367,123.115296 112.574367,123.115296 C112.574367,123.115296 115.790186,123.094498 116.449704,123.094498 C116.052312,124.678996 115.657976,126.257331 115.231544,127.959684 C113.865127,126.132543 112.568253,124.399379 111.272143,122.666214 L111.272143,122.666214 Z M111.233168,123.168447 C112.546855,124.92549 113.859777,126.681764 115.219317,128.499661 C114.284681,128.608272 113.427995,128.70764 112.534627,128.812401 C112.055464,126.912082 111.587764,125.057981 111.1193,123.20311 C111.156747,123.191556 111.194958,123.180001 111.233168,123.168447 L111.233168,123.168447 Z M112.581245,119.022717 C113.042067,119.174466 113.475377,119.317741 113.966767,119.479503 C113.855192,119.769134 113.753551,120.051062 113.638919,120.328368 C113.351574,121.027026 113.05353,121.721832 112.770006,122.422801 C112.675243,122.6562 112.574367,122.734771 112.313769,122.614605 C111.876638,122.413557 111.41658,122.26258 110.948116,122.083871 C111.509814,121.030107 112.039416,120.037196 112.581245,119.022717 L112.581245,119.022717 Z M106.550056,110.218242 C106.566868,110.206688 106.583681,110.194363 106.600494,110.182808 C106.870262,110.564105 107.145379,110.940779 107.407505,111.327467 C109.001659,113.679949 110.588935,116.037053 112.189202,118.384913 C112.343574,118.61138 112.343574,118.773142 112.211364,119.010393 C111.768119,119.806108 111.353914,120.617999 110.925954,121.423728 C110.874751,121.521555 110.811321,121.61245 110.724965,121.753414 C109.321101,117.874207 107.935578,114.04661 106.550056,110.218242 L106.550056,110.218242 Z M106.111396,110.119644 L106.203102,110.099617 C107.561113,113.898713 108.919124,117.697039 110.277135,121.496136 C110.243509,121.517704 110.210648,121.538502 110.177023,121.56007 C107.967675,119.981735 105.759093,118.40263 103.527583,116.808889 C104.391147,114.574262 105.250889,112.347338 106.111396,110.119644 L106.111396,110.119644 Z M105.881367,109.785336 C105.060599,111.910581 104.251295,114.005784 103.441991,116.103298 L103.611647,109.287725 C104.414837,109.463353 105.112566,109.616641 105.881367,109.785336 L105.881367,109.785336 Z M105.944797,105.296825 C107.05673,105.30838 107.924879,106.198841 107.924879,107.326553 C107.924115,108.441171 107.03304,109.339335 105.926456,109.34088 C104.820636,109.343187 103.917333,108.437319 103.915038,107.325783 C103.913512,106.1973 104.825985,105.285271 105.944797,105.296825 L105.944797,105.296825 Z M109.81402,101.428402 C110.455961,101.670275 111.100959,101.903674 111.818557,102.169426 C111.468547,102.470612 111.21177,102.771027 110.887743,102.938181 C110.718087,103.025224 110.422336,102.900437 110.196128,102.83034 C107.939399,102.123209 105.690313,101.392969 103.425178,100.714338 C103.128663,100.625754 102.75114,100.765178 102.422527,100.844518 C101.306773,101.112581 100.194839,101.400672 99.0813771,101.681059 C99.0699139,101.662572 99.0576865,101.643315 99.045459,101.624057 C99.4436153,101.345981 99.8402432,101.066363 100.240692,100.792138 C101.092792,100.205943 101.943364,99.615127 102.806928,99.046649 C102.933023,98.9626869 103.153882,98.91878 103.289148,98.9688492 C105.468691,99.7784296 107.640591,100.606497 109.81402,101.428402 L109.81402,101.428402 Z M111.535034,101.694154 C109.781159,101.018605 108.018878,100.366935 106.258125,99.7114139 C105.515308,99.4348779 104.769433,99.1698963 104.025087,98.8964415 C103.907398,98.8533049 103.794294,98.7939922 103.593306,98.7046379 C107.93405,97.2164274 112.198373,95.7551772 116.582677,94.2515607 C116.172293,94.940975 115.820754,95.5317915 115.467687,96.1218377 C114.414598,97.8804219 113.352338,99.6343844 112.313769,101.402212 C112.111252,101.746534 111.91867,101.84128 111.535034,101.694154 L111.535034,101.694154 Z M108.562999,104.947881 C107.117868,103.756235 105.675029,102.566128 104.233718,101.376792 C104.242889,101.352913 104.252824,101.328264 104.263523,101.305155 C106.328433,101.956054 108.393343,102.607724 110.518627,103.278652 C109.841532,103.857143 109.211054,104.394809 108.562999,104.947881 L108.562999,104.947881 Z M115.288096,105.307609 C115.304145,105.323015 115.307201,105.353827 115.333949,105.425465 C114.269397,105.896115 113.223186,106.372157 112.162454,106.810456 C112.001205,106.877471 111.737551,106.825091 111.573244,106.732656 C110.67147,106.228112 109.786508,105.693527 108.855694,105.145077 C109.446432,104.636682 110.024179,104.138301 110.604219,103.641461 C111.029887,103.277111 111.464726,102.920464 111.885044,102.548412 C112.022603,102.428245 112.11278,102.38896 112.26868,102.533776 C113.270567,103.463522 114.28086,104.383255 115.288096,105.307609 L115.288096,105.307609 Z M115.796299,105.302988 C114.805876,104.409445 113.866655,103.56289 112.928963,102.716336 L112.97558,102.604643 C114.189154,102.888112 115.401964,103.17158 116.669034,103.467374 C116.359526,104.117503 116.092051,104.679048 115.796299,105.302988 L115.796299,105.302988 Z M116.772203,111.060175 L114.780657,111.80351 L115.933858,105.923846 L116.816527,107.921221 L116.772203,111.060175 Z M112.086033,107.217171 C113.276681,106.721872 114.428354,106.242748 115.697716,105.715866 C115.561685,106.275871 114.539929,111.285101 114.479556,111.458417 C113.664902,110.015654 112.887695,108.638366 112.086033,107.217171 L112.086033,107.217171 Z M107.450301,109.135207 C107.986781,108.594459 108.30928,107.962047 108.264191,107.194063 C108.219102,106.435322 107.867563,105.835262 107.194289,105.327637 C107.853043,105.329178 108.411685,105.220566 108.964977,105.586456 C109.790329,106.134136 110.666885,106.604787 111.570187,107.13629 C110.287834,108.040617 109.139218,109.093611 107.450301,109.135207 L107.450301,109.135207 Z M107.779678,109.438703 C109.085723,109.311604 110.121999,108.62296 111.135349,107.871152 C111.339394,107.720174 111.554139,107.583062 111.802509,107.412056 C112.207543,108.115336 112.6057,108.796277 112.993921,109.48184 C113.429524,110.250594 113.865127,111.02089 114.281624,111.801199 C114.35881,111.945244 114.40772,112.157846 114.363395,112.305742 C113.766543,114.278469 113.151349,116.245033 112.517815,118.287856 C110.54461,115.412343 108.614966,112.597684 106.656282,109.739889 C107.074307,109.623574 107.422026,109.474137 107.779678,109.438703 L107.779678,109.438703 Z M115.729048,114.304659 C115.21626,115.828303 114.691244,117.348095 114.187626,118.875591 C114.114261,119.097436 114.055416,119.175236 113.821566,119.079719 C113.490661,118.945688 113.146,118.84555 112.763128,118.71614 C112.860947,118.362574 112.94654,118.018252 113.049709,117.679322 C113.581603,115.929982 114.116554,114.180641 114.655326,112.433611 C114.684366,112.338865 114.737097,112.212537 114.81199,112.179414 C115.390501,111.926757 116.779081,111.362901 116.779081,111.362901 C116.779081,111.362901 116.035499,113.390318 115.729048,114.304659 L115.729048,114.304659 Z M116.591084,122.675458 C115.345412,122.717054 114.189154,122.756339 112.96106,122.797935 C113.402776,121.74263 113.823095,120.740476 114.274746,119.660522 C115.067238,120.692718 115.806234,121.654046 116.591084,122.675458 L116.591084,122.675458 Z M114.934264,119.96864 C114.535344,119.519558 114.411541,119.123626 114.629342,118.519715 C115.332421,116.570867 115.965955,114.59583 116.627766,112.631577 C116.638465,112.599225 116.669034,112.573805 116.723293,112.499086 L116.723293,122.187861 C116.086701,121.391376 115.541051,120.652662 114.934264,119.96864 L114.934264,119.96864 Z M103.007152,105.171267 C102.251343,105.77903 101.532216,106.357522 100.764944,106.974528 C100.090906,105.459358 99.4474364,104.012743 98.8039669,102.565358 C98.8276576,102.54533 98.8513483,102.526843 98.8742747,102.506816 C100.229993,103.381101 101.586476,104.255386 103.007152,105.171267 L103.007152,105.171267 Z M102.565436,104.411756 C101.348805,103.660718 100.139816,102.898126 98.8635757,102.099329 C99.0118335,102.040787 99.1150026,101.985326 99.2258139,101.958365 C100.454672,101.654099 101.683531,101.34444 102.918503,101.064052 C103.087395,101.026308 103.334237,101.080229 103.468739,101.18807 C104.949024,102.383568 106.414025,103.597554 107.882083,104.808458 C107.908831,104.830797 107.918766,104.874703 107.937107,104.911678 C106.446886,104.911678 104.972715,104.940178 103.5016,104.889339 C103.18445,104.877785 102.865772,104.598167 102.565436,104.411756 L102.565436,104.411756 Z M116.779081,129.791446 L116.779081,130.969998 L115.644985,128.895593 L116.779081,129.791446 Z M115.515832,128.283208 L116.825698,123.22776 L116.825698,129.308471 L115.515832,128.283208 Z M118.039272,105.88302 L117.027451,107.651618 L116.052312,105.564118 C116.052312,105.564118 116.688903,104.330105 116.99841,103.733126 C117.300276,104.306225 118.039272,105.88302 118.039272,105.88302 L118.039272,105.88302 Z M121.728905,102.084694 C120.214229,102.44134 118.766041,102.781811 117.272764,103.132295 L117.272764,94.6652093 C118.780561,97.1748314 120.231042,99.5912478 121.728905,102.084694 L121.728905,102.084694 Z M117.463053,93.6869342 C117.447005,93.6615145 117.430192,93.636865 117.414144,93.6114453 C118.361007,91.9114035 119.30787,90.2105915 120.257025,88.5105497 C121.307822,86.6294886 122.365496,84.7522789 123.407886,82.8658256 C123.563022,82.5862084 123.66237,82.535369 123.952008,82.7341051 C126.616063,84.5635565 129.292346,86.3729802 131.965572,88.1885663 C132.101602,88.281772 132.236868,88.3765183 132.451613,88.5251853 C127.42231,90.2568092 122.443446,91.9714866 117.463053,93.6869342 L117.463053,93.6869342 Z M130.907133,98.5159156 C126.501431,97.006907 122.141581,95.5133044 117.780967,94.0189315 C117.77791,93.9919712 117.775618,93.9650108 117.773325,93.9380505 C122.66889,92.2526444 127.56369,90.5672382 132.538733,88.8541014 C131.988498,92.1116803 131.454312,95.2768238 130.907133,98.5159156 L130.907133,98.5159156 Z M134.057994,100.697392 C133.239519,100.106575 132.432507,99.4995827 131.601041,98.9287939 C131.331273,98.7423824 131.228104,98.5528897 131.28542,98.2309063 C131.500929,97.0369486 131.704974,95.8406799 131.905963,94.643641 C132.168089,93.0776306 132.423337,91.5100797 132.686227,89.9440693 C132.705332,89.8323765 132.755771,89.7253054 132.791689,89.6166938 C132.812323,89.6228562 132.832956,89.6290185 132.852826,89.6359512 C133.670537,93.5829444 134.489011,97.5299376 135.331941,101.597867 C134.849721,101.257397 134.451565,100.980861 134.057994,100.697392 L134.057994,100.697392 Z M130.989668,105.176659 C132.401175,104.2654 133.769885,103.381101 135.138595,102.496802 C135.158464,102.519911 135.179098,102.543019 135.198203,102.566128 C134.55397,104.011973 133.9105,105.458587 133.237991,106.969136 C132.482181,106.365995 131.763055,105.793666 130.989668,105.176659 L130.989668,105.176659 Z M130.576992,108.874847 C130.351549,109.020433 130.030578,109.015811 129.752404,109.079746 C130.230802,108.46428 130.45701,107.832637 130.398166,107.08237 C130.337793,106.32594 129.922059,105.789814 129.341256,105.288352 C130.057326,105.165875 130.634308,105.209012 131.155503,105.708933 C131.670585,106.201922 132.259795,106.615571 132.813851,107.066194 C132.858175,107.102397 132.886451,107.157088 132.943003,107.229496 C132.143634,107.791812 131.376362,108.358749 130.576992,108.874847 L130.576992,108.874847 Z M128.120039,109.788417 C128.879669,109.620493 129.585805,109.464123 130.360719,109.293888 C130.439433,111.624801 130.515091,113.903335 130.592276,116.184179 C129.774566,114.068948 128.957619,111.956799 128.120039,109.788417 L128.120039,109.788417 Z M127.795248,110.106549 C127.824288,110.111171 127.854092,110.115022 127.883897,110.118874 C128.240021,111.026282 128.599202,111.932149 128.950741,112.841098 C129.387108,113.967269 129.808191,115.099603 130.251436,116.222694 C130.474587,116.789631 130.489107,116.781928 129.999245,117.132413 C127.997765,118.568243 125.997048,120.004844 123.995568,121.440674 C123.923732,121.491514 123.845017,121.530799 123.675362,121.630937 C125.070055,117.729392 126.432651,113.918741 127.795248,110.106549 L127.795248,110.106549 Z M121.794627,119.026569 C121.642548,118.757736 121.674645,118.564392 121.829781,118.337925 C122.934837,116.721075 124.039892,115.104225 125.140363,113.484294 C125.816694,112.489843 126.486146,111.49077 127.160949,110.494778 C127.199924,110.435465 127.258004,110.388477 127.306914,110.335327 C127.334426,110.349963 127.362702,110.363828 127.390978,110.378463 C126.023032,114.159843 124.655086,117.940453 123.265742,121.780375 C122.751425,120.809803 122.292896,119.907787 121.794627,119.026569 L121.794627,119.026569 Z M121.372016,122.723216 C120.921893,121.644032 120.479412,120.585647 120.022411,119.491057 C120.459543,119.343931 120.850057,119.200656 121.248213,119.087422 C121.326927,119.065084 121.485884,119.132099 121.524859,119.202967 C122.014721,120.116537 122.490063,121.03781 122.968462,121.957543 C122.985275,121.988354 122.988332,122.026099 123.008966,122.101588 C122.470958,122.305716 121.940592,122.507533 121.372016,122.723216 L121.372016,122.723216 Z M122.914967,122.94121 L121.482063,128.779278 L118.993013,128.285519 L122.914967,122.94121 Z M117.546353,123.109134 L121.277253,123.206962 L122.731555,122.664674 L118.808073,127.92271 L117.546353,123.109134 Z M119.201644,111.787334 C118.478696,111.505405 117.248309,111.023971 117.248309,111.023971 L117.11075,107.922762 L118.061434,106.56242 C118.061434,106.56242 118.82565,109.981761 119.201644,111.787334 L119.201644,111.787334 Z M118.212749,105.322245 C118.212749,105.322245 117.615132,104.064353 117.336194,103.465063 C118.634596,103.161567 121.451494,102.496802 121.451494,102.496802 L118.212749,105.322245 Z M122.033062,102.49295 C123.04412,103.350289 124.047535,104.216871 125.052478,105.082683 C125.061649,105.090386 125.061649,105.106562 125.084575,105.172037 C124.554974,105.487088 124.015437,105.809072 123.475901,106.131055 C123.125126,106.339805 122.781229,106.56165 122.419755,106.749602 C122.276083,106.82278 122.064395,106.890566 121.933714,106.836646 C120.837829,106.384482 119.753407,105.904588 118.60632,105.406977 C119.710611,104.39712 120.746123,103.447346 121.788513,102.505275 C121.838187,102.461368 121.984917,102.452895 122.033062,102.49295 L122.033062,102.49295 Z M127.461285,99.8284988 C126.274459,100.269108 125.085339,100.701243 123.896984,101.137231 C123.332993,101.34444 122.765181,101.540095 122.207304,101.765021 C121.992559,101.851294 121.909259,101.759629 121.813733,101.599408 C120.4519,99.3201039 119.087011,97.0431109 117.723651,94.7653477 C117.640351,94.6251539 117.560109,94.4826493 117.428664,94.2554122 C121.780871,95.7474742 126.049779,97.210265 130.425677,98.71003 C129.371824,99.1082727 128.418083,99.4733926 127.461285,99.8284988 L127.461285,99.8284988 Z M132.579237,101.094094 C132.021359,100.954671 131.467303,100.788287 130.901784,100.688148 C130.680161,100.648863 130.424149,100.731285 130.197177,100.802152 C128.573983,101.311317 126.953846,101.832807 125.332181,102.348135 C124.674191,102.556885 124.015437,102.764094 123.353627,102.955898 C123.261157,102.982858 123.119777,102.952046 123.041827,102.893504 C122.767474,102.687065 122.511461,102.456746 122.179792,102.17867 C123.03877,101.850524 123.810628,101.550109 124.586306,101.259707 C125.962659,100.74361 127.341304,100.235215 128.71842,99.7206574 C129.388637,99.4687709 130.05274,99.1999378 130.728307,98.9619166 C130.850581,98.9180097 131.043928,98.9380374 131.150154,99.0104452 C132.389711,99.8431344 133.620098,100.69123 134.85125,101.537014 C134.891753,101.564744 134.916972,101.614043 134.982695,101.694924 C134.150464,101.486945 133.365615,101.290519 132.579237,101.094094 L132.579237,101.094094 Z M125.442992,104.947881 C124.807165,104.407134 124.171337,103.866387 123.480487,103.279422 C125.621819,102.603873 127.684436,101.952203 129.747054,101.301303 C129.761574,101.31825 129.776094,101.335967 129.789086,101.352913 C128.34854,102.54456 126.907993,103.736207 125.442992,104.947881 L125.442992,104.947881 Z M126.007747,104.927083 C126.403611,104.593546 126.773491,104.276954 127.147957,103.967296 C128.290459,103.023684 129.432961,102.079302 130.583106,101.144933 C130.678633,101.067134 130.845996,101.007821 130.957571,101.034011 C132.279664,101.341359 133.597172,101.666423 134.914679,101.990718 C134.971996,102.004583 135.020905,102.054652 135.107262,102.109343 C133.717154,102.98902 132.374427,103.84944 131.017944,104.685981 C130.800143,104.820783 130.52044,104.912448 130.267485,104.91707 C128.869735,104.938638 127.47122,104.927083 126.007747,104.927083 L126.007747,104.927083 Z M126.077287,107.304985 C126.080348,106.181895 126.957667,105.300677 128.077243,105.296043 C129.174657,105.292203 130.119991,106.239667 130.106235,107.331945 C130.094008,108.416521 129.1716,109.333173 128.087942,109.340876 C126.964545,109.349349 126.074998,108.447333 126.077287,107.304985 L126.077287,107.304985 Z M122.428926,107.143993 C123.146524,106.71725 123.819798,106.316696 124.492308,105.916143 C124.688711,105.799058 124.898871,105.69969 125.081518,105.564118 C125.588193,105.188984 126.146835,105.329178 126.783426,105.325326 C125.473561,106.459971 125.423123,107.556872 126.51213,109.132126 C124.874416,109.101314 123.727328,108.04755 122.428926,107.143993 L122.428926,107.143993 Z M120.01859,113.557472 C119.881796,113.115323 119.732009,112.673943 119.633426,112.22255 C119.5998,112.071573 119.672401,111.869755 119.753407,111.724169 C120.470242,110.437006 121.200067,109.156775 121.926072,107.875004 C122.007079,107.732499 122.08885,107.591535 122.227937,107.351973 C123.694467,108.716166 125.40096,109.447176 127.387156,109.680576 C125.391025,112.589981 123.462145,115.4031 121.488177,118.280923 C121.420926,118.06524 121.367431,117.893465 121.313936,117.722459 C120.882154,116.334387 120.448079,114.946315 120.01859,113.557472 L120.01859,113.557472 Z M118.347251,105.815234 C118.347251,105.815234 120.768286,106.740359 121.912316,107.214861 C121.114475,108.632974 120.334975,110.016425 119.495103,111.506946 C119.290293,110.501711 118.347251,105.815234 118.347251,105.815234 L118.347251,105.815234 Z M117.288812,111.345954 C117.486744,111.401416 119.287236,112.147061 119.287236,112.147061 C119.287236,112.147061 120.353317,115.754354 120.793505,117.206361 C120.940998,117.695499 121.086964,118.186177 121.243628,118.706896 C120.809553,118.858645 120.401462,119.001919 119.914657,119.172155 C119.063321,116.633261 118.172245,113.977283 117.288812,111.345954 L117.288812,111.345954 Z M117.26665,122.167833 L117.26665,112.542993 C117.285755,112.536831 117.304097,112.529898 117.323202,112.523736 C117.400388,112.740189 117.482159,112.955872 117.553995,113.173865 C118.126393,114.893164 118.696497,116.613234 119.268131,118.334073 C119.271952,118.345628 119.270423,118.361034 119.277301,118.371048 C119.741944,119.083571 119.424795,119.608912 118.922705,120.14966 C118.410681,120.701191 117.970493,121.320508 117.498207,121.909784 C117.447005,121.973719 117.388925,122.032261 117.26665,122.167833 L117.26665,122.167833 Z M119.728188,119.658211 C120.182897,120.748949 120.595573,121.738779 121.005192,122.721676 L117.372112,122.721676 C118.18753,121.661749 118.929583,120.697339 119.728188,119.658211 L119.728188,119.658211 Z M118.334259,128.895593 L117.199399,130.969998 L117.199399,129.791446 L118.334259,128.895593 Z M117.152782,129.308471 L117.152782,123.22776 L118.462647,128.283208 L117.152782,129.308471 Z M138.978013,106.573975 L138.978013,93.1361731 C138.978013,92.9798031 138.832813,91.2759099 138.782374,91.1503518 L133.989214,79.1768814 C133.937248,79.0467015 133.835607,78.8102208 133.733966,78.5783619 C133.632326,78.3449624 133.411468,78.0899947 133.282315,78.022979 L125.090689,73.7540024 C124.992105,73.7023926 124.676484,73.6962302 124.620696,73.6908381 L117.629652,73.0106674 C117.497443,72.9983426 116.508548,72.9952615 116.370225,73.0091268 L109.383003,73.6923787 C109.326451,73.6985411 109.006244,73.7023926 108.906132,73.7547726 L100.716034,78.0237493 C100.586882,78.090765 100.344625,78.3842475 100.249098,78.5983896 C100.153572,78.8117614 100.064158,79.0405391 100.006842,79.1815031 L95.2205602,91.1511221 C95.1693578,91.2774505 95.0233926,91.8066434 95.0050515,92.1494248 C94.9867103,92.4929765 95.0241568,92.9443696 95.0249211,93.0922663 L95.0822372,106.697992 C95.0830014,106.818158 94.9867103,108.173108 95.0088725,108.319464 L97.0607913,121.92365 C97.0730187,122.00299 97.2059922,122.905776 97.2388535,123.067538 L99.8203736,135.764316 C99.8440642,135.87909 100.087085,136.200303 100.161214,136.258845 L110.172437,144.177481 C110.23816,144.229091 111.029887,144.718999 111.131528,144.759825 C111.167446,144.77446 111.194193,144.786015 111.215591,144.795258 C111.262209,144.815286 111.307297,144.834543 111.362321,144.846868 C111.830785,144.950858 112.298485,145.053307 112.767713,145.154986 C113.842964,145.390696 114.955662,145.632569 116.040084,145.898321 C116.3366,145.970729 116.624709,146 116.906705,146 C117.40268,146 117.87573,145.909105 118.325853,145.801264 C118.911242,145.66107 119.514208,145.535512 120.09654,145.413805 C120.455722,145.339087 120.814903,145.264368 121.172556,145.185798 C121.543964,145.104147 121.913081,145.015563 122.29366,144.923897 C122.470194,144.881531 122.653605,144.855341 122.831668,144.796028 C123.417057,144.597292 123.787701,144.210604 123.853424,144.158224 L133.842485,136.257305 C133.91585,136.198762 133.962467,136.115571 133.976987,136.023135 C134.079392,135.973836 134.156578,135.88063 134.180268,135.765856 L136.758732,123.079863 C136.791593,122.919641 136.921509,122.040735 136.939086,121.922879 L138.993298,108.313302 C139.014696,108.170797 138.978013,106.734967 138.978013,106.573975 L138.978013,106.573975 Z" id="Fill-103" fill="#5A6E7E"></path>
            </g>
        </g>
    </g>
</svg>