<?xml version="1.0" encoding="UTF-8"?>
<svg width="237px" height="209px" viewBox="0 0 237 209" version="1.1" xmlns="http://www.w3.org/2000/svg" xmlns:xlink="http://www.w3.org/1999/xlink">
    <!-- Generator: Sketch 58 (84663) - https://sketch.com -->
    <title>Group 105</title>
    <desc>Created with Sketch.</desc>
    <defs>
        <polygon id="path-1" points="0 0.191739122 8.48073834 0.191739122 8.48073834 8.65971298 0 8.65971298"></polygon>
        <path d="M0.324638727,89.0657924 C0.324638727,137.944992 40.1171548,177.569651 89.2043508,177.569651 L89.2043508,177.569651 C138.291547,177.569651 178.084821,137.944992 178.084821,89.0657924 L178.084821,89.0657924 C178.084821,40.1865931 138.291547,0.561934055 89.2043508,0.561934055 L89.2043508,0.561934055 C40.1171548,0.561934055 0.324638727,40.1865931 0.324638727,89.0657924" id="path-3"></path>
        <path d="M0.324638727,89.0657924 C0.324638727,137.944992 40.1171548,177.569651 89.2043508,177.569651 L89.2043508,177.569651 C138.291547,177.569651 178.084821,137.944992 178.084821,89.0657924 L178.084821,89.0657924 C178.084821,40.1865931 138.291547,0.561934055 89.2043508,0.561934055 L89.2043508,0.561934055 C40.1171548,0.561934055 0.324638727,40.1865931 0.324638727,89.0657924" id="path-5"></path>
        <path d="M0.324638727,89.0657924 C0.324638727,137.944992 40.1171548,177.569651 89.2043508,177.569651 L89.2043508,177.569651 C138.291547,177.569651 178.084821,137.944992 178.084821,89.0657924 L178.084821,89.0657924 C178.084821,40.1865931 138.291547,0.561934055 89.2043508,0.561934055 L89.2043508,0.561934055 C40.1171548,0.561934055 0.324638727,40.1865931 0.324638727,89.0657924" id="path-7"></path>
        <path d="M0.324638727,89.0657924 C0.324638727,137.944992 40.1171548,177.569651 89.2043508,177.569651 L89.2043508,177.569651 C138.291547,177.569651 178.084821,137.944992 178.084821,89.0657924 L178.084821,89.0657924 C178.084821,40.1865931 138.291547,0.561934055 89.2043508,0.561934055 L89.2043508,0.561934055 C40.1171548,0.561934055 0.324638727,40.1865931 0.324638727,89.0657924" id="path-9"></path>
        <path d="M0.324638727,89.0657924 C0.324638727,137.944992 40.1171548,177.569651 89.2043508,177.569651 L89.2043508,177.569651 C138.291547,177.569651 178.084821,137.944992 178.084821,89.0657924 L178.084821,89.0657924 C178.084821,40.1865931 138.291547,0.561934055 89.2043508,0.561934055 L89.2043508,0.561934055 C40.1171548,0.561934055 0.324638727,40.1865931 0.324638727,89.0657924" id="path-11"></path>
        <path d="M0.324638727,89.0657924 C0.324638727,137.944992 40.1171548,177.569651 89.2043508,177.569651 L89.2043508,177.569651 C138.291547,177.569651 178.084821,137.944992 178.084821,89.0657924 L178.084821,89.0657924 C178.084821,40.1865931 138.291547,0.561934055 89.2043508,0.561934055 L89.2043508,0.561934055 C40.1171548,0.561934055 0.324638727,40.1865931 0.324638727,89.0657924" id="path-13"></path>
        <path d="M0.324638727,89.0657924 C0.324638727,137.944992 40.1171548,177.569651 89.2043508,177.569651 L89.2043508,177.569651 C138.291547,177.569651 178.084821,137.944992 178.084821,89.0657924 L178.084821,89.0657924 C178.084821,40.1865931 138.291547,0.561934055 89.2043508,0.561934055 L89.2043508,0.561934055 C40.1171548,0.561934055 0.324638727,40.1865931 0.324638727,89.0657924" id="path-15"></path>
        <path d="M0.324638727,89.0657924 C0.324638727,137.944992 40.1171548,177.569651 89.2043508,177.569651 L89.2043508,177.569651 C138.291547,177.569651 178.084821,137.944992 178.084821,89.0657924 L178.084821,89.0657924 C178.084821,40.1865931 138.291547,0.561934055 89.2043508,0.561934055 L89.2043508,0.561934055 C40.1171548,0.561934055 0.324638727,40.1865931 0.324638727,89.0657924" id="path-17"></path>
        <path d="M0.324638727,89.0657924 C0.324638727,137.944992 40.1171548,177.569651 89.2043508,177.569651 L89.2043508,177.569651 C138.291547,177.569651 178.084821,137.944992 178.084821,89.0657924 L178.084821,89.0657924 C178.084821,40.1865931 138.291547,0.561934055 89.2043508,0.561934055 L89.2043508,0.561934055 C40.1171548,0.561934055 0.324638727,40.1865931 0.324638727,89.0657924" id="path-19"></path>
        <path d="M0.324638727,89.0657924 C0.324638727,137.944992 40.1171548,177.569651 89.2043508,177.569651 L89.2043508,177.569651 C138.291547,177.569651 178.084821,137.944992 178.084821,89.0657924 L178.084821,89.0657924 C178.084821,40.1865931 138.291547,0.561934055 89.2043508,0.561934055 L89.2043508,0.561934055 C40.1171548,0.561934055 0.324638727,40.1865931 0.324638727,89.0657924 L0.324638727,89.0657924 Z" id="path-21"></path>
    </defs>
    <g id="Symbols" stroke="none" stroke-width="1" fill="none" fill-rule="evenodd">
        <g id="dibu/renaper/mujer">
            <g id="Group-105">
                <g id="Group-91">
                    <g id="Group-34">
                        <path d="M196.890741,107.719205 C196.890741,63.6985944 161.152201,28.0128892 117.065658,28.0128892 C72.9798719,28.0128892 37.2413319,63.6985944 37.2413319,107.719205 C37.2413319,151.739816 72.9798719,187.425521 117.065658,187.425521 C161.152201,187.425521 196.890741,151.739816 196.890741,107.719205" id="Fill-1" fill="#C6E9E6"></path>
                        <path d="M35.2073722,152.085113 C33.9587684,152.085113 32.9464073,151.074249 32.9464073,149.827491 C32.9464073,148.579977 33.9587684,147.569112 35.2073722,147.569112 C36.455976,147.569112 37.4683371,148.579977 37.4683371,149.827491 C37.4683371,151.074249 36.455976,152.085113 35.2073722,152.085113 M35.2073722,144.249213 C32.1225863,144.249213 29.6208355,146.745753 29.6208355,149.827491 C29.6208355,152.907716 32.1225863,155.405012 35.2073722,155.405012 C38.2929153,155.405012 40.7939089,152.907716 40.7939089,149.827491 C40.7939089,146.745753 38.2929153,144.249213 35.2073722,144.249213" id="Fill-3" fill="#C6E9E6"></path>
                        <path d="M184.89998,174.656422 C183.651376,174.656422 182.639015,173.645557 182.639015,172.398799 C182.639015,171.151285 183.651376,170.140421 184.89998,170.140421 C186.148583,170.140421 187.160944,171.151285 187.160944,172.398799 C187.160944,173.645557 186.148583,174.656422 184.89998,174.656422 M184.89998,166.820521 C181.815194,166.820521 179.313443,169.317062 179.313443,172.398799 C179.313443,175.479025 181.815194,177.976321 184.89998,177.976321 C187.984765,177.976321 190.486516,175.479025 190.486516,172.398799 C190.486516,169.317062 187.984765,166.820521 184.89998,166.820521" id="Fill-5" fill="#C6E9E6"></path>
                        <path d="M230.602666,86.1852989 C229.64558,86.1852989 228.870976,85.4118403 228.870976,84.456925 C228.870976,83.5020097 229.64558,82.7285511 230.602666,82.7285511 C231.558995,82.7285511 232.333599,83.5020097 232.333599,84.456925 C232.333599,85.4118403 231.558995,86.1852989 230.602666,86.1852989 M230.602666,80.1858907 C228.240238,80.1858907 226.326065,82.0979894 226.326065,84.456925 C226.326065,86.8151045 228.240238,88.7272032 230.602666,88.7272032 C232.964337,88.7272032 234.879266,86.8151045 234.879266,84.456925 C234.879266,82.0979894 232.964337,80.1858907 230.602666,80.1858907" id="Fill-7" fill="#C6E9E6"></path>
                        <path d="M155.288988,18.2099241 C154.278141,18.2099241 153.458106,17.3911013 153.458106,16.3825051 C153.458106,15.3731529 154.278141,14.5543301 155.288988,14.5543301 C156.299834,14.5543301 157.119112,15.3731529 157.119112,16.3825051 C157.119112,17.3911013 156.299834,18.2099241 155.288988,18.2099241 M155.288988,11.8665044 C152.791023,11.8665044 150.766301,13.8882332 150.766301,16.3825051 C150.766301,18.876021 152.791023,20.8977498 155.288988,20.8977498 C157.786952,20.8977498 159.811674,18.876021 159.811674,16.3825051 C159.811674,13.8882332 157.786952,11.8665044 155.288988,11.8665044" id="Fill-9" fill="#C6E9E6"></path>
                        <path d="M10.6341824,117.079265 C8.00749553,117.079265 5.87903866,119.205331 5.87903866,121.827379 C5.87903866,124.449427 8.00749553,126.575493 10.6341824,126.575493 C13.2601121,126.575493 15.388569,124.449427 15.388569,121.827379 C15.388569,119.205331 13.2601121,117.079265 10.6341824,117.079265" id="Fill-11" fill="#C6E9E6"></path>
                        <path d="M201.393211,132.795749 C199.483581,132.795749 197.935131,134.34191 197.935131,136.248716 C197.935131,138.156279 199.483581,139.701684 201.393211,139.701684 C203.30284,139.701684 204.851291,138.156279 204.851291,136.248716 C204.851291,134.34191 203.30284,132.795749 201.393211,132.795749" id="Fill-13" fill="#C6E9E6"></path>
                        <path d="M86.8721607,13.2858729 C84.0804067,13.2858729 81.8179275,15.5457635 81.8179275,18.3326342 C81.8179275,21.1202609 84.0804067,23.3793954 86.8721607,23.3793954 C89.6639147,23.3793954 91.9271511,21.1202609 91.9271511,18.3326342 C91.9271511,15.5457635 89.6639147,13.2858729 86.8721607,13.2858729" id="Fill-15" fill="#C6E9E6"></path>
                        <path d="M113.930519,196.098087 C111.895953,196.098087 110.247554,197.744806 110.247554,199.775608 C110.247554,201.806409 111.895953,203.453128 113.930519,203.453128 C115.965084,203.453128 117.613484,201.806409 117.613484,199.775608 C117.613484,197.744806 115.965084,196.098087 113.930519,196.098087" id="Fill-17" fill="#C6E9E6"></path>
                        <path d="M185.223072,32.7520815 C182.835657,32.7520815 180.900283,34.6845941 180.900283,37.0684799 C180.900283,39.4523658 182.835657,41.3841223 185.223072,41.3841223 C187.60973,41.3841223 189.545861,39.4523658 189.545861,37.0684799 C189.545861,34.6845941 187.60973,32.7520815 185.223072,32.7520815" id="Fill-19" fill="#C6E9E6"></path>
                        <path d="M32.1053981,66.3104351 C30.7462447,66.3104351 29.6445355,67.4105156 29.6445355,68.7676596 C29.6445355,70.1240476 30.7462447,71.2241281 32.1053981,71.2241281 C33.4645514,71.2241281 34.5655035,70.1240476 34.5655035,68.7676596 C34.5655035,67.4105156 33.4645514,66.3104351 32.1053981,66.3104351" id="Fill-21" fill="#C6E9E6"></path>
                        <path d="M232.095614,58.6603768 C229.777103,58.6603768 227.897761,60.5369402 227.897761,62.8520238 C227.897761,65.1663513 229.777103,67.0436709 232.095614,67.0436709 C234.414883,67.0436709 236.293467,65.1663513 236.293467,62.8520238 C236.293467,60.5369402 234.414883,58.6603768 232.095614,58.6603768" id="Fill-23" fill="#C6E9E6"></path>
                        <path d="M8.27538882,80.8411002 C6.79584249,80.8411002 5.59645591,82.0387136 5.59645591,83.5153165 C5.59645591,84.9926756 6.79584249,86.190289 8.27538882,86.190289 C9.75417796,86.190289 10.9535645,84.9926756 10.9535645,83.5153165 C10.9535645,82.0387136 9.75417796,80.8411002 8.27538882,80.8411002" id="Fill-25" fill="#C6E9E6"></path>
                        <path d="M120.87689,4.31866667 L122.559363,2.63868114 C123.142398,2.05650794 123.142398,1.10386088 122.559363,0.521687675 C121.976328,-0.0604855275 121.021513,-0.0604855275 120.439235,0.521687675 L118.756763,2.20091713 L117.075047,0.521687675 C116.491255,-0.0604855275 115.53644,-0.0604855275 114.954162,0.521687675 C114.37037,1.10386088 114.37037,2.05650794 114.954162,2.63868114 L116.635878,4.31866667 L114.954162,5.99865219 C114.37037,6.5808254 114.37037,7.53347246 114.954162,8.11564566 C115.53644,8.69781886 116.491255,8.69781886 117.075047,8.11564566 L118.756763,6.4364162 L120.439235,8.11564566 C121.021513,8.69781886 121.976328,8.69781886 122.559363,8.11564566 C123.142398,7.53347246 123.142398,6.5808254 122.559363,5.99865219 L120.87689,4.31866667 Z" id="Fill-27" fill="#C6E9E6"></path>
                        <g id="Group-31" transform="translate(0.000000, 50.656629)">
                            <mask id="mask-2" fill="white">
                                <use xlink:href="#path-1"></use>
                            </mask>
                            <g id="Clip-30"></g>
                            <path d="M6.36098914,4.42534802 L8.04346198,2.74536249 C8.62649712,2.16318929 8.62649712,1.21054223 8.04346198,0.628369024 C7.45966965,0.0461958217 6.50561214,0.0461958217 5.922577,0.628369024 L4.24010415,2.30835455 L2.5583885,0.628369024 C1.97459617,0.0461958217 1.02053866,0.0461958217 0.437503514,0.628369024 C-0.146288818,1.21054223 -0.146288818,2.16318929 0.437503514,2.74536249 L2.11921917,4.42534802 L0.437503514,6.10533354 C-0.146288818,6.68750675 -0.146288818,7.6401538 0.437503514,8.22308308 C1.02053866,8.80525628 1.97459617,8.80525628 2.5583885,8.22308308 L4.24010415,6.54309755 L5.922577,8.22308308 C6.50561214,8.80525628 7.45966965,8.80525628 8.04346198,8.22308308 C8.62649712,7.6401538 8.62649712,6.68750675 8.04346198,6.10533354 L6.36098914,4.42534802 Z" id="Fill-29" fill="#C6E9E6" mask="url(#mask-2)"></path>
                        </g>
                        <path d="M204.777616,157.656662 L206.202645,156.23374 C206.696332,155.740783 206.696332,154.933301 206.202645,154.440344 C205.708201,153.947387 204.900281,153.947387 204.406594,154.440344 L202.981565,155.863266 L201.557294,154.440344 C201.06285,153.947387 200.254929,153.947387 199.761242,154.440344 C199.266798,154.933301 199.266798,155.740783 199.761242,156.23374 L201.185514,157.656662 L199.761242,159.078828 C199.266798,159.571785 199.266798,160.379266 199.761242,160.872224 C200.254929,161.365181 201.06285,161.365181 201.557294,160.872224 L202.981565,159.450058 L204.406594,160.872224 C204.900281,161.365181 205.708201,161.365181 206.202645,160.872224 C206.696332,160.379266 206.696332,159.571785 206.202645,159.078828 L204.777616,157.656662 Z" id="Fill-32" fill="#C6E9E6"></path>
                    </g>
                    <g id="Group-90" transform="translate(27.882353, 30.869748)">
                        <g id="Group-37">
                            <mask id="mask-4" fill="white">
                                <use xlink:href="#path-3"></use>
                            </mask>
                            <g id="Clip-36"></g>
                            <path d="M76.8067163,130.194985 C68.6050375,119.701017 14.8841547,178.640649 13.8859664,181.291709 C13.8859664,181.291709 17.1217347,190.861204 20.2103536,189.579481 C28.201169,186.264523 80.4687625,134.88079 76.8067163,130.194985" id="Fill-35" fill="#5B4B43" mask="url(#mask-4)"></path>
                        </g>
                        <g id="Group-40">
                            <mask id="mask-6" fill="white">
                                <use xlink:href="#path-5"></use>
                            </mask>
                            <g id="Clip-39"></g>
                            <path d="M76.8067163,130.194985 C76.5344142,129.846797 76.2067415,129.58018 75.8381097,129.379274 C69.8231912,141.464632 28.8345179,182.4118 18.3262354,189.161807 C18.9421388,189.633861 19.5785217,189.842321 20.2103536,189.579481 C28.201169,186.264523 80.4687625,134.88079 76.8067163,130.194985" id="Fill-38" fill="#6D4D44" mask="url(#mask-6)"></path>
                        </g>
                        <g id="Group-43">
                            <mask id="mask-8" fill="white">
                                <use xlink:href="#path-7"></use>
                            </mask>
                            <g id="Clip-42"></g>
                            <path d="M104.988316,130.194985 C113.190753,119.701017 166.911636,178.640649 167.909824,181.291709 C167.909824,181.291709 164.673298,190.861204 161.585437,189.579481 C153.594622,186.264523 101.327028,134.88079 104.988316,130.194985" id="Fill-41" fill="#5B4B43" mask="url(#mask-8)"></path>
                        </g>
                        <g id="Group-46">
                            <mask id="mask-10" fill="white">
                                <use xlink:href="#path-9"></use>
                            </mask>
                            <g id="Clip-45"></g>
                            <path d="M104.988316,130.194985 C105.261377,129.846797 105.588291,129.58018 105.956923,129.379274 C111.9726,141.464632 152.961273,182.4118 163.469555,189.161807 C162.853652,189.633861 162.217269,189.842321 161.585437,189.579481 C153.594622,186.264523 101.327028,134.88079 104.988316,130.194985" id="Fill-44" fill="#6D4D44" mask="url(#mask-10)"></path>
                        </g>
                        <g id="Group-49">
                            <mask id="mask-12" fill="white">
                                <use xlink:href="#path-11"></use>
                            </mask>
                            <g id="Clip-48"></g>
                            <path d="M51.2835893,244.930136 C51.2835893,244.930136 67.6035118,259.324409 83.9234344,264.721695 L92.4232044,246.429382 L100.244115,264.721695 C100.244115,264.721695 122.305137,258.533623 131.1834,244.930136 C113.205392,218.973919 106.102783,197.315288 124.746754,170.297892 C124.746754,170.297892 117.242897,121.983648 90.0437846,120.783496 C62.8423967,119.583343 57.9970878,172.285809 57.9970878,172.285809 C75.6777624,198.674051 81.4674059,210.134031 51.2835893,244.930136" id="Fill-47" fill="#5B4B43" mask="url(#mask-12)"></path>
                        </g>
                        <g id="Group-52">
                            <mask id="mask-14" fill="white">
                                <use xlink:href="#path-13"></use>
                            </mask>
                            <g id="Clip-51"></g>
                            <path d="M89.0479477,143.783517 C93.0467687,143.783517 96.7141244,145.203458 99.5858118,147.568264 C102.343724,141.322034 104.182332,133.638492 102.215537,125.798606 C85.6574451,113.400558 75.4533218,127.085616 75.4533218,127.085616 C75.4533218,127.085616 73.2847654,135.625654 79.1221945,147.106783 C81.8960352,145.027476 85.3237044,143.783517 89.0479477,143.783517" id="Fill-50" fill="#D8BEB8" mask="url(#mask-14)"></path>
                        </g>
                        <g id="Group-55">
                            <mask id="mask-16" fill="white">
                                <use xlink:href="#path-15"></use>
                            </mask>
                            <g id="Clip-54"></g>
                            <path d="M79.3948,126.061522 C79.3948,126.061522 76.3873408,140.079661 90.0593339,155.28889 C90.0593339,155.28889 101.678821,140.486006 98.3983015,124.977684 C86.6400082,114.538852 79.3948,126.061522 79.3948,126.061522" id="Fill-53" fill="#6D4D44" mask="url(#mask-16)"></path>
                        </g>
                        <g id="Group-58">
                            <mask id="mask-18" fill="white">
                                <use xlink:href="#path-17"></use>
                            </mask>
                            <g id="Clip-57"></g>
                            <path d="M124.746375,170.297514 C124.746375,170.297514 124.738032,170.24691 124.731964,170.204614 C114.727326,175.753713 101.995875,179.082265 88.1266715,179.082265 C77.4879267,179.082265 67.5265239,177.117762 58.9418017,173.703862 C75.8677671,199.088326 80.9178714,210.768095 51.28321,244.929758 C51.28321,244.929758 67.6031326,259.324032 83.9238136,264.722073 L92.4235837,246.42976 L100.243736,264.722073 C100.243736,264.722073 122.304758,258.533245 131.18302,244.929758 C113.205013,218.973541 106.103162,197.314911 124.746375,170.297514" id="Fill-56" fill="#6D4D44" mask="url(#mask-18)"></path>
                        </g>
                        <g id="Group-61">
                            <mask id="mask-20" fill="white">
                                <use xlink:href="#path-19"></use>
                            </mask>
                            <g id="Clip-60"></g>
                            <path d="M80.2066244,125.652911 C80.2066244,125.652911 77.4517462,139.410476 89.9730922,154.338738 C89.9730922,154.338738 100.617147,139.810024 97.6112043,124.589466 C86.8427557,114.343233 80.2066244,125.652911 80.2066244,125.652911" id="Fill-59" fill="#FFCD9C" mask="url(#mask-20)"></path>
                        </g>
                        <mask id="mask-22" fill="white">
                            <use xlink:href="#path-21"></use>
                        </mask>
                        <g id="Clip-63"></g>
                        <polygon id="Fill-62" fill="#FFCD9C" mask="url(#mask-22)" points="81.9113569 124.820357 96.1158182 124.820357 96.1158182 98.3059822 81.9113569 98.3059822"></polygon>
                        <polygon id="Fill-64" fill="#F4AD7D" mask="url(#mask-22)" points="89.9153703 142.698546 88.5614447 152.616229 90.032938 154.540702 91.1676566 152.616229"></polygon>
                        <path d="M103.058764,21.0116509 C103.058764,15.0010713 97.243331,10.1287103 90.070939,10.1287103 C82.8977884,10.1287103 77.0831144,15.0010713 77.0831144,21.0116509 C77.0831144,27.0222305 82.8977884,31.8938362 90.070939,31.8938362 C97.243331,31.8938362 103.058764,27.0222305 103.058764,21.0116509" id="Fill-66" fill="#824720" mask="url(#mask-22)"></path>
                        <path d="M90.0708631,31.8939872 C95.9227037,31.8939872 100.866618,28.6507818 102.492845,24.193829 C100.866618,19.736121 95.9227037,16.4929156 90.0708631,16.4929156 C84.2190225,16.4929156 79.2751084,19.736121 77.6503978,24.193829 C79.2751084,28.6507818 84.2190225,31.8939872 90.0708631,31.8939872" id="Fill-67" fill="#703616" mask="url(#mask-22)"></path>
                        <path d="M97.9048203,25.4242683 C97.9048203,22.7603685 94.2131926,20.5994904 89.6583899,20.5994904 C85.1035872,20.5994904 81.4119594,22.7603685 81.4119594,25.4242683 C81.4119594,28.088168 85.1035872,30.2490461 89.6583899,30.2490461 C94.2131926,30.2490461 97.9048203,28.088168 97.9048203,25.4242683" id="Fill-68" fill="#54AFAF" mask="url(#mask-22)"></path>
                        <path d="M74.1956501,96.5602858 C65.9499781,90.1932104 50.0745376,56.1176501 64.093166,37.4348534 C83.764149,11.2203276 114.541114,28.4197393 118.521731,46.2619008 C123.057571,66.5851825 116.665677,85.4749281 103.47154,98.8178407 C90.2758861,112.161509 74.1956501,96.5602858 74.1956501,96.5602858" id="Fill-69" fill="#824720" mask="url(#mask-22)"></path>
                        <path d="M89.658314,67.200742 C77.1089034,67.200742 65.9065918,63.0164481 58.5339553,56.4597955 C58.627251,73.5096602 68.3345558,92.0368677 74.1954984,96.5602858 C74.1954984,96.5602858 90.2757344,112.161509 103.471388,98.8178407 C114.264109,87.9024228 120.495959,73.275521 119.927083,57.1894034 C112.558997,63.3223396 101.733661,67.200742 89.658314,67.200742" id="Fill-70" fill="#703616" mask="url(#mask-22)"></path>
                        <path d="M89.2012409,116.062796 C80.3624206,116.062796 60.4585775,87.2591442 68.680736,51.8610752 C70.3448887,44.7054795 76.8672448,40.5884062 89.2012409,40.5884062 C102.767802,40.5884062 108.974622,44.9622773 109.962949,50.755334 C116.952543,91.7244052 98.2471322,116.062796 89.2012409,116.062796" id="Fill-71" fill="#FFCD9C" mask="url(#mask-22)"></path>
                        <path d="M92.4404983,67.4095035 C95.5321512,66.788657 102.261578,66.2486263 105.846257,74.375522 C102.234272,69.4472697 99.4323669,67.6073889 92.4404983,67.4095035" id="Fill-72" fill="#A5331C" mask="url(#mask-22)"></path>
                        <path d="M84.3865755,68.4008186 C81.4086979,67.417434 74.8317296,66.0790642 70.2860289,73.7150229 C74.4630978,69.2580702 77.456904,67.7656216 84.3865755,68.4008186" id="Fill-73" fill="#A5331C" mask="url(#mask-22)"></path>
                        <path d="M101.409174,80.0988657 C101.336358,78.4198611 100.215292,77.1086817 98.9068769,77.1675941 C97.596186,77.2227301 96.5896542,78.6290758 96.6632289,80.3073251 C96.7360451,81.9863297 97.8571106,83.294488 99.167043,83.239352 C100.477734,83.1804395 101.483507,81.7748491 101.409174,80.0988657" id="Fill-74" fill="#5B371E" mask="url(#mask-22)"></path>
                        <path d="M104.305361,79.7035481 C102.013169,77.7156309 98.9488221,75.8561125 94.3689888,78.1642718 C98.5688127,77.763214 101.234188,78.595541 104.305361,79.7035481" id="Fill-75" fill="#5B371E" mask="url(#mask-22)"></path>
                        <path d="M76.4030417,80.0988657 C76.4758579,78.4198611 77.5969234,77.1086817 78.9053388,77.1675941 C80.2167883,77.2227301 81.2210445,78.6290758 81.1482284,80.3073251 C81.0746537,81.9863297 79.9543467,83.294488 78.6451728,83.239352 C77.3344818,83.1804395 76.3302256,81.7748491 76.4030417,80.0988657" id="Fill-76" fill="#5B371E" mask="url(#mask-22)"></path>
                        <path d="M73.5082959,79.7035481 C75.800488,77.7156309 78.8640764,75.8561125 83.4408756,78.1642718 C79.2440857,77.763214 76.5794692,78.595541 73.5082959,79.7035481" id="Fill-77" fill="#5B371E" mask="url(#mask-22)"></path>
                        <path d="M86.4902041,91.93936 C86.4962721,92.1092998 88.4501725,93.0330166 89.1381336,93.0330166 C90.3138112,93.0330166 91.7352434,92.1289373 91.7853045,91.8305986 C91.9036308,91.1040118 89.9717269,83.0141252 89.2852829,82.9416176 C88.5980804,82.8630677 86.4409015,90.886489 86.4902041,91.93936" id="Fill-78" fill="#F4AD7D" mask="url(#mask-22)"></path>
                        <path d="M88.1220447,90.555673 C88.1265957,90.7203257 88.9086109,90.9793894 89.1854641,90.9793894 C89.6595276,90.9793894 90.2314379,90.7361867 90.251159,90.4446457 C90.2981861,89.7369411 90.6744029,81.7021904 89.2453857,81.7807404 C87.6821137,81.8608009 88.1038406,89.5284817 88.1220447,90.555673" id="Fill-79" fill="#FFCD9C" mask="url(#mask-22)"></path>
                        <path d="M106.545368,89.319418 C106.354984,88.3896589 104.912314,87.7438879 103.210236,87.8382988 C101.376179,87.9387521 99.7802916,88.857182 99.7802916,89.9455515 C99.7802916,91.1094499 101.574148,91.8722905 103.61831,91.5973658 C105.499394,91.3435891 106.746371,90.3080896 106.545368,89.319418" id="Fill-80" fill="#F4AD7D" mask="url(#mask-22)"></path>
                        <path d="M72.5460606,89.6535573 C72.7394785,88.720777 74.1973188,88.0780272 75.9191177,88.169417 C77.7759298,88.2698702 79.3885044,89.1890554 79.3885044,90.2766697 C79.3885044,91.4435892 77.5764439,92.2034086 75.5080097,91.9284839 C73.604929,91.6747072 72.3420236,90.6392078 72.5460606,89.6535573" id="Fill-81" fill="#F4AD7D" mask="url(#mask-22)"></path>
                        <path d="M91.9367773,106.3717 C91.9367773,105.391336 90.8490858,105.485747 89.4473747,105.485747 C88.0449051,105.485747 86.8601254,105.391336 86.8601254,106.3717 C86.8601254,107.351308 87.994844,108.145115 89.3980721,108.145115 C90.8005417,108.145115 91.9367773,107.351308 91.9367773,106.3717" id="Fill-82" fill="#F4AD7D" mask="url(#mask-22)"></path>
                        <path d="M94.0966867,97.1452561 C91.1263941,95.5561308 90.1471684,97.0055279 89.4614828,97.0055279 C88.5869304,97.0055279 87.7123779,95.535738 84.6980922,97.1452561 C83.8318832,97.6074922 86.8006589,98.9186716 89.3985272,98.9186716 C91.99412,98.9186716 94.9651712,97.6074922 94.0966867,97.1452561" id="Fill-83" fill="#F4AD7D" mask="url(#mask-22)"></path>
                        <path d="M82.5525184,97.2204828 L96.2017565,97.2204828 C96.2017565,97.2204828 94.3722504,107.000703 89.3775167,107.000703 C84.382783,107.000703 82.5525184,97.2204828 82.5525184,97.2204828" id="Fill-84" fill="#5B371E" mask="url(#mask-22)"></path>
                        <polygon id="Fill-85" fill="#FFEADC" mask="url(#mask-22)" points="95.2040992 97.7190482 83.4488399 97.7190482 84.7405683 101.697149 93.9108538 101.697149"></polygon>
                        <path d="M96.9722425,97.1954072 C96.9722425,96.7528086 96.6650493,96.3963128 96.2857985,96.3963128 C95.9073061,96.3963128 95.5993544,96.7528086 95.5993544,97.1954072 C95.5993544,97.6349846 95.9073061,97.9914804 96.2857985,97.9914804 C96.6650493,97.9914804 96.9722425,97.6349846 96.9722425,97.1954072" id="Fill-86" fill="#5B371E" mask="url(#mask-22)"></path>
                        <path d="M83.128828,97.1954072 C83.128828,96.7528086 82.8201178,96.3963128 82.442384,96.3963128 C82.0623746,96.3963128 81.7544229,96.7528086 81.7544229,97.1954072 C81.7544229,97.6349846 82.0623746,97.9914804 82.442384,97.9914804 C82.8201178,97.9914804 83.128828,97.6349846 83.128828,97.1954072" id="Fill-87" fill="#5B371E" mask="url(#mask-22)"></path>
                        <path d="M67.4499152,85.7502304 C67.0327393,83.8098963 67.2913884,82.2343662 65.8540277,82.5402577 C64.4143914,82.8461492 63.5868661,84.6671479 64.0048005,86.6082373 C64.4204595,88.5455503 65.9245683,89.8703249 67.361929,89.5644334 C68.7985313,89.2585418 67.8663327,87.6905646 67.4499152,85.7502304" id="Fill-88" fill="#F4AD7D" mask="url(#mask-22)"></path>
                        <path d="M110.902278,85.5112574 C111.585688,83.6479626 111.535627,82.042221 112.957059,82.5603483 C114.380767,83.0777204 114.979983,85.0127675 114.295056,86.8783282 C113.613163,88.7401124 111.904259,89.8322584 110.482826,89.3163969 C109.059877,88.7967589 110.218868,87.3790839 110.902278,85.5112574" id="Fill-89" fill="#F4AD7D" mask="url(#mask-22)"></path>
                    </g>
                </g>
            </g>
        </g>
    </g>
</svg>