<svg width="10" height="12" viewBox="0 0 10 12" fill="none" xmlns="http://www.w3.org/2000/svg">
<path d="M5 4.30967L2.05372 7.25595C1.72828 7.58139 1.20065 7.58139 0.87521 7.25595C0.549773 6.93051 0.549773 6.40287 0.87521 6.07744L4.41074 2.5419C4.73618 2.21647 5.26382 2.21647 5.58925 2.5419L9.12479 6.07744C9.45023 6.40287 9.45023 6.93051 9.12479 7.25595C8.79935 7.58138 8.27171 7.58138 7.94628 7.25595L5 4.30967Z" fill="#F5F5F5"/>
<mask id="mask0" mask-type="alpha" maskUnits="userSpaceOnUse" x="0" y="1" width="10" height="11">
<path d="M5 4.30967L2.05372 7.25595C1.72828 7.58139 1.20065 7.58139 0.87521 7.25595C0.549773 6.93051 0.549773 6.40287 0.87521 6.07744L4.41074 2.5419C4.73618 2.21647 5.26382 2.21647 5.58925 2.5419L9.12479 6.07744C9.45023 6.40287 9.45023 6.93051 9.12479 7.25595C8.79935 7.58138 8.27171 7.58138 7.94628 7.25595L5 4.30967Z" fill="white"/>
</mask>
<g mask="url(#mask0)">
<rect x="10" y="10" width="10" height="10" transform="rotate(180 10 10)" fill="#646464"/>
</g>
</svg>
