<?xml version="1.0" encoding="UTF-8" standalone="no"?>
<svg width="7px" height="12px" viewBox="0 0 7 12" version="1.1" xmlns="http://www.w3.org/2000/svg" xmlns:xlink="http://www.w3.org/1999/xlink">
  <!-- Generator: Sketch 58 (84663) - https://sketch.com -->
  <title>Chevron</title>
  <desc>Created with Sketch.</desc>
  <defs>
    <path d="M8,8 L8,3 C8,2.44771525 8.44771525,2 9,2 C9.55228475,2 10,2.44771525 10,3 L10,9 C10,9.55228475 9.55228475,10 9,10 L3,10 C2.44771525,10 2,9.55228475 2,9 C2,8.44771525 2.44771525,8 3,8 L8,8 Z" id="path-1"></path>
  </defs>
  <g
     id="Symbols"
     style="fill:none;fill-rule:evenodd;stroke:none;stroke-width:1"
     transform="matrix(-1,0,0,1,6.2426407,0)">
    <g
       id="Icons-/-carret"
       transform="translate(-5,2)">
      <g
         id="Chevron"
         transform="translate(0,-2)">
        <g
           id="Color/Gray40"
           transform="rotate(-90,6,6)">
          <mask
             id="mask-2"
             fill="white">
            <use
               xlink:href="#path-1"
               id="use9"
               x="0"
               y="0"
               width="100%"
               height="100%" />
          </mask>
          <use
             id="Mask"
             transform="rotate(45,6,6)"
             xlink:href="#path-1"
             style="fill:#4a4a4a;fill-rule:nonzero"
             x="0"
             y="0"
             width="100%"
             height="100%" />
        </g>
      </g>
    </g>
  </g>
</svg>
