<?xml version="1.0" encoding="UTF-8"?>
<svg width="24px" height="18px" viewBox="0 0 24 18" version="1.1" xmlns="http://www.w3.org/2000/svg" xmlns:xlink="http://www.w3.org/1999/xlink">
    <!-- Generator: Sketch 58 (84663) - https://sketch.com -->
    <title>Group 6</title>
    <desc>Created with Sketch.</desc>
    <defs>
        <polygon id="path-1" points="0 0.536793047 23.5458616 0.536793047 23.5458616 17 0 17"></polygon>
    </defs>
    <g id="UI" stroke="none" stroke-width="1" fill="none" fill-rule="evenodd">
        <g id="Configuracion" transform="translate(-304.000000, -142.000000)">
            <g id="Group-6" transform="translate(304.000000, 142.000000)">
                <g id="Group-3" transform="translate(0.000000, 1.000000)">
                    <mask id="mask-2" fill="white">
                        <use xlink:href="#path-1"></use>
                    </mask>
                    <g id="Clip-2"></g>
                    <path d="M0,2.37922727 C0.59475,0.944272727 1.67625,0.487590909 3.14175,0.540909091 C5.25975,0.618181818 7.3815,0.560227273 9.59625,0.560227273 C9.342,0.957409091 8.973,1.09186364 8.72625,1.35613636 C7.365,2.81581818 5.718,3.26786364 3.7815,3.07390909 C2.38875,2.93404545 2.37825,3.04686364 2.37825,4.51813636 C2.37825,7.66622727 2.388,10.8150909 2.36775,13.9631818 C2.36475,14.4206364 2.4765,14.5411818 2.92425,14.5396364 C8.81775,14.5234091 14.71125,14.5226364 20.60475,14.5411818 C21.09075,14.5427273 21.2085,14.3843182 21.195,13.9191364 C21.171,13.0822727 21.20325,12.2430909 21.204,11.4054545 C21.204,11.1535455 21.21825,10.9364091 21.444,10.7586818 C22.1055,10.2394091 22.74975,9.6985 23.394,9.17072727 C23.6115,9.28895455 23.53125,9.47363636 23.532,9.61813636 C23.53875,11.1921818 23.54475,12.7662273 23.5335,14.3402727 C23.523,15.9653182 22.53375,16.9775909 20.9655,16.9783636 C14.93325,16.9806818 8.90025,16.9520909 2.868,17 C1.4505,17.0115909 0.51,16.49 0,15.1385 L0,2.37922727 Z" id="Fill-1" fill="#417FD7" mask="url(#mask-2)"></path>
                </g>
                <path d="M24,5.26726024 C21.7416234,6.87407687 19.4847553,8.48161697 17.2248701,10.0855397 C17.0875873,10.1824841 16.9570933,10.373479 16.7655009,10.2844927 C16.5723999,10.194783 16.6546186,9.97846687 16.6516014,9.81713408 C16.6410412,9.14720513 16.6395326,8.47727618 16.6440584,7.80734723 C16.645567,7.56064553 16.5942746,7.39641888 16.2804854,7.42608096 C12.9374242,7.74657613 9.71580542,8.43603865 6.87586284,10.2743642 C6.58243983,10.4646356 6.34408077,10.7315943 6.03858894,11 C5.92996962,10.4805518 6.07026957,10.0124697 6.21660393,9.55596308 C6.72273978,7.97663813 7.79309264,6.77568558 9.11311907,5.7780268 C11.241756,4.16759284 13.6155406,3.04477455 16.3189548,2.64108086 C16.5957832,2.59984334 16.6334982,2.47902461 16.6319896,2.26560232 C16.6274638,1.69189427 16.6244466,1.11746275 16.6319896,0.543754692 C16.6350068,0.360717948 16.5467536,0.117633576 16.7556949,0.0199657481 C16.9329556,-0.063232772 17.0762728,0.13427328 17.2150641,0.232664573 C19.4787209,1.83079962 21.7386061,3.4347224 24,5.03792171 L24,5.26726024 Z" id="Fill-4" fill="#417FD7"></path>
            </g>
        </g>
    </g>
</svg>