<svg width="152" height="143" viewBox="0 0 152 143" fill="none" xmlns="http://www.w3.org/2000/svg">
<path d="M16.9844 116.059H17.0696C18.5652 113.357 21.131 112.159 24.1649 112.159H25.6606V119.66C24.5905 119.059 23.566 118.931 22.3683 118.931C18.0515 118.931 16.9844 121.803 16.9844 125.575V134.447H9.20508V112.458H16.9844V116.059Z" fill="#030169"/>
<path d="M54.2943 123.477C54.2943 130.935 48.1414 135.179 41.0886 135.179C34.0783 135.179 27.8828 130.978 27.8828 123.477C27.8828 115.976 34.0358 111.732 41.0886 111.732C48.1414 111.732 54.2943 115.973 54.2943 123.477ZM36.0878 123.477C36.0878 126.264 37.9239 128.407 41.0886 128.407C44.2532 128.407 46.0894 126.264 46.0894 123.477C46.0894 120.776 44.2532 118.504 41.0886 118.504C37.9239 118.504 36.0878 120.776 36.0878 123.477Z" fill="#32C0CA"/>
<path d="M67.2842 115.287H67.3693C69.1629 112.628 71.3426 111.729 74.3796 111.729C80.2772 111.729 82.6271 115.458 82.6271 120.858V134.447H74.8477V123.73C74.8477 121.629 75.1882 117.943 71.3426 117.943C68.181 117.943 67.2812 120.3 67.2812 123.044V134.447H59.5018V112.458H67.2812V115.287H67.2842Z" fill="#030169"/>
<path d="M105.959 132.005H105.874C104.506 134.191 101.813 135.176 99.2499 135.176C92.7534 135.176 88.1813 129.731 88.1813 123.431C88.1813 117.129 92.6683 111.729 99.1648 111.729C101.688 111.729 104.336 112.671 105.959 114.601V98.8712H113.739V134.45H105.959V132.005ZM96.216 123.477C96.216 126.264 98.0522 128.407 101.217 128.407C104.378 128.407 106.218 126.264 106.218 123.477C106.218 120.776 104.378 118.504 101.217 118.504C98.0522 118.504 96.216 120.776 96.216 123.477Z" fill="#030169"/>
<path d="M144.293 134.45H136.514V132.008H136.429C135.061 134.194 132.368 135.179 129.805 135.179C123.308 135.179 118.736 129.734 118.736 123.434C118.736 117.132 123.223 111.732 129.72 111.732C132.243 111.732 134.891 112.674 136.514 114.604V112.461H144.293V134.45ZM126.771 123.477C126.771 126.264 128.607 128.407 131.772 128.407C134.933 128.407 136.773 126.264 136.773 123.477C136.773 120.776 134.933 118.504 131.772 118.504C128.61 118.504 126.771 120.776 126.771 123.477Z" fill="#030169"/>
<path d="M53.4431 22.2458C53.6924 22.2885 53.9387 22.3099 54.1849 22.3099C56.2825 22.3099 58.143 20.7914 58.5078 18.648C58.7054 17.4893 58.4409 16.3215 57.763 15.3641C57.0851 14.4037 56.0758 13.7664 54.9206 13.5683C53.7654 13.3701 52.6011 13.6353 51.6465 14.3153C50.6889 14.9952 50.0535 16.0075 49.8559 17.1661C49.4486 19.5566 51.0567 21.8373 53.4431 22.2458Z" fill="#1FD5D9"/>
<path d="M96.4714 22.2092C96.7206 22.2519 96.9699 22.2732 97.2192 22.2732C98.119 22.2732 98.9976 21.9958 99.7454 21.4622C100.703 20.7823 101.338 19.77 101.536 18.6113C101.734 17.4527 101.469 16.2849 100.791 15.3275C100.113 14.3671 99.104 13.7298 97.9488 13.5316C96.7936 13.3335 95.6293 13.5987 94.6747 14.2787C93.7202 14.9586 93.0818 15.9709 92.8842 17.1295C92.6866 18.2881 92.951 19.4559 93.629 20.4133C94.3038 21.3738 95.3131 22.011 96.4714 22.2092Z" fill="#030169"/>
<path d="M110.607 54.3308C109.452 54.1326 108.288 54.3979 107.333 55.0778C106.376 55.7578 105.74 56.7701 105.543 57.9287C105.135 60.3222 106.744 62.5998 109.13 63.0084C109.379 63.0511 109.625 63.0724 109.872 63.0724C111.969 63.0724 113.83 61.554 114.195 59.4105C114.392 58.2519 114.128 57.0841 113.45 56.1237C112.772 55.1663 111.763 54.526 110.607 54.3308Z" fill="#030169"/>
<path d="M45.6729 59.4106C46.0803 57.0171 44.4721 54.7394 42.0857 54.3309C39.7024 53.9223 37.4285 55.5352 37.0211 57.9287C36.6137 60.3222 38.2219 62.5998 40.6083 63.0084C40.8576 63.0511 41.1038 63.0724 41.3501 63.0724C43.4477 63.0724 45.3081 61.554 45.6729 59.4106Z" fill="#030169"/>
<path d="M76.7143 79.1196C75.5591 78.9214 74.3948 79.1867 73.4402 79.8666C72.4826 80.5465 71.8473 81.5588 71.6497 82.7175C71.4521 83.8761 71.7166 85.0439 72.3945 86.0013C73.0724 86.9617 74.0817 87.599 75.2369 87.7972C75.4862 87.8398 75.7324 87.8612 75.9786 87.8612C78.0762 87.8612 79.9367 86.3428 80.3015 84.1993C80.7089 81.8088 79.1007 79.5282 76.7143 79.1196Z" fill="#030169"/>
<path d="M75.8935 48.0529C79.9246 48.0529 83.1895 44.7782 83.1895 40.7352C83.1895 36.6922 79.9246 33.4175 75.8935 33.4175C71.8595 33.4175 68.5975 36.6922 68.5975 40.7352C68.5975 44.7782 71.8625 48.0529 75.8935 48.0529Z" fill="#030169"/>
<path d="M65.4298 55.4346V57.5537C68.2144 60.1057 71.9597 61.6455 75.9908 61.6455C80.0705 61.6455 83.7671 60.1057 86.6004 57.5537V55.4346C86.6004 53.2667 84.825 51.4861 82.6636 51.4861C78.1978 51.4861 73.7837 51.4861 69.3666 51.4861C67.2052 51.4861 65.4298 53.2698 65.4298 55.4346Z" fill="#030169"/>
<path d="M66.3935 16.1721C66.7188 16.1721 67.0471 16.1294 67.3754 16.044C70.0476 15.3336 72.814 14.9708 75.5986 14.9708C76.1975 14.9708 76.7994 14.9891 77.3922 15.0196C79.5354 15.1385 81.6634 15.4678 83.7185 16.0014C85.7583 16.5288 87.8407 15.3001 88.3666 13.2542C88.8956 11.2083 87.6674 9.11967 85.6276 8.59219C83.0831 7.93359 80.4535 7.52502 77.8117 7.37867C77.0821 7.33903 76.3373 7.31769 75.5956 7.31769C72.1513 7.31769 68.7252 7.7659 65.4146 8.64707C63.3778 9.1898 62.1649 11.2845 62.706 13.3273C63.162 15.0409 64.7063 16.1721 66.3935 16.1721Z" fill="#030169"/>
<path d="M107.713 45.2569C107.835 47.2906 109.516 48.8578 111.519 48.8578C111.595 48.8578 111.671 48.8548 111.747 48.8517C113.851 48.7267 115.456 46.9156 115.331 44.8057C114.927 37.9636 112.744 31.2984 109.023 25.5357C107.877 23.7612 105.515 23.255 103.746 24.4045C101.977 25.554 101.472 27.9231 102.618 29.6977C105.625 34.3535 107.385 39.7321 107.713 45.2569Z" fill="#030169"/>
<path d="M39.523 49.12C39.5929 49.1231 39.6598 49.1261 39.7297 49.1261C41.7452 49.1261 43.4294 47.5437 43.5358 45.5039L43.5388 45.4398C43.8428 39.8875 45.5726 34.4968 48.5427 29.847C49.6796 28.0664 49.1628 25.7003 47.3875 24.56C45.6121 23.4197 43.2531 23.938 42.1161 25.7186C38.4377 31.4783 36.2945 38.1526 35.9175 45.013L35.9115 45.0983C35.8051 47.2083 37.4193 49.0072 39.523 49.12Z" fill="#030169"/>
<path d="M64.0802 77.2962C58.9395 75.3113 54.3583 71.997 50.8288 67.707C49.4882 66.0758 47.0835 65.844 45.4571 67.1887C43.8307 68.5333 43.5997 70.9451 44.9403 72.5763C49.3028 77.8817 54.9724 81.9826 61.3381 84.4371C61.788 84.6109 62.2501 84.6932 62.7061 84.6932C64.2383 84.6932 65.6853 83.7602 66.269 82.2387C67.029 80.2691 66.0471 78.0555 64.0802 77.2962Z" fill="#030169"/>
<path d="M105.95 66.9691C104.315 65.6367 101.913 65.8837 100.581 67.5241C97.0884 71.8324 92.5284 75.1802 87.3969 77.2109C85.4361 77.9853 84.4755 80.2081 85.2476 82.1747C85.8404 83.6809 87.2784 84.5987 88.7984 84.5987C89.2635 84.5987 89.7377 84.5133 90.1968 84.3304C96.5443 81.821 102.183 77.6774 106.503 72.3537C107.832 70.7134 107.586 68.3016 105.95 66.9691Z" fill="#030169"/>
</svg>
