<svg width="227" height="78" viewBox="0 0 227 78" fill="none" xmlns="http://www.w3.org/2000/svg">
<path d="M17.6951 14.385C19.9929 14.385 21.8557 12.5222 21.8557 10.2244C21.8557 7.9265 19.9929 6.06372 17.6951 6.06372C15.3972 6.06372 13.5344 7.9265 13.5344 10.2244C13.5344 12.5222 15.3972 14.385 17.6951 14.385Z" fill="#32C0CA"/>
<path d="M17.7038 14.4941C17.464 14.4941 17.2197 14.4723 16.9755 14.433C15.8503 14.2411 14.869 13.6218 14.2105 12.6929C13.5519 11.7639 13.2946 10.63 13.4865 9.50481C13.6784 8.37961 14.2977 7.39833 15.2267 6.73978C16.1556 6.08123 17.2895 5.82392 18.4147 6.01581C19.5399 6.20771 20.5212 6.82701 21.1798 7.75595C21.8383 8.6849 22.0956 9.81882 21.9037 10.944C21.7118 12.0692 21.0925 13.0505 20.1636 13.7091C19.4353 14.2237 18.5805 14.4941 17.7038 14.4941ZM17.6864 6.16846C16.8534 6.16846 16.0466 6.42577 15.3531 6.91423C14.4678 7.53789 13.8834 8.4712 13.7002 9.5397C13.517 10.6082 13.7613 11.6811 14.3893 12.5664C15.013 13.4517 15.9463 14.0361 17.0148 14.2193C18.0833 14.4025 19.1561 14.1583 20.0415 13.5302C20.9268 12.9066 21.5112 11.9733 21.6944 10.9048C21.8776 9.83627 21.6333 8.7634 21.0053 7.87807C20.3816 6.99273 19.4483 6.40833 18.3798 6.22515C18.1487 6.19026 17.9175 6.16846 17.6864 6.16846Z" fill="#32C0CA"/>
<path d="M59.3623 14.8211C61.6601 14.8211 63.5229 12.9584 63.5229 10.6605C63.5229 8.36266 61.6601 6.49988 59.3623 6.49988C57.0644 6.49988 55.2017 8.36266 55.2017 10.6605C55.2017 12.9584 57.0644 14.8211 59.3623 14.8211Z" fill="#030169"/>
<path d="M59.3667 14.9302C59.1269 14.9302 58.887 14.9084 58.6471 14.8692C57.5219 14.6773 56.5407 14.058 55.8821 13.129C55.2236 12.2001 54.9663 11.0662 55.1581 9.94097C55.35 8.81577 55.9693 7.83449 56.8983 7.17594C57.8316 6.51739 58.9612 6.26008 60.0864 6.45197C61.2116 6.64387 62.1928 7.26316 62.8514 8.19211C63.5099 9.12106 63.7673 10.255 63.5754 11.3802C63.2177 13.4561 61.4078 14.9302 59.3667 14.9302ZM59.3537 6.60462C58.5207 6.60462 57.7138 6.86193 57.0204 7.35039C56.1351 7.97405 55.5507 8.90735 55.3675 9.97586C55.1843 11.0444 55.4285 12.1172 56.0566 13.0026C56.6802 13.8879 57.6135 14.4723 58.682 14.6555C60.8845 15.0305 62.9822 13.5477 63.3617 11.3409C63.5448 10.2724 63.3006 9.19956 62.6726 8.31422C62.0489 7.42889 61.1156 6.84448 60.0471 6.66131C59.816 6.62642 59.5848 6.60462 59.3537 6.60462Z" fill="#030169"/>
<path d="M71.6262 53.7409C73.9241 53.7409 75.7868 51.8782 75.7868 49.5803C75.7868 47.2825 73.9241 45.4197 71.6262 45.4197C69.3284 45.4197 67.4656 47.2825 67.4656 49.5803C67.4656 51.8782 69.3284 53.7409 71.6262 53.7409Z" fill="#030169"/>
<path d="M71.635 53.8544C71.3951 53.8544 71.1509 53.8326 70.9067 53.7934C69.7815 53.6015 68.8002 52.9822 68.1416 52.0532C67.4831 51.1243 67.2258 49.9904 67.4177 48.8652C67.8145 46.545 70.0257 44.9793 72.3459 45.3718C73.4711 45.5637 74.4524 46.183 75.1109 47.1119C75.7695 48.0409 76.0268 49.1748 75.8349 50.3C75.643 51.4252 75.0237 52.4065 74.0947 53.065C73.362 53.584 72.5116 53.8544 71.635 53.8544ZM67.5223 48.8826L67.6314 48.9001C67.4482 49.9686 67.6924 51.0414 68.3204 51.9268C68.9441 52.8121 69.8774 53.3965 70.9459 53.5797C72.0144 53.7628 73.0873 53.5186 73.9726 52.8906C74.858 52.2669 75.4424 51.3336 75.6255 50.2651C75.8087 49.1966 75.5645 48.1237 74.9365 47.2384C74.3128 46.3531 73.3795 45.7687 72.311 45.5855C70.1086 45.2061 68.0108 46.6933 67.6314 48.9001L67.5223 48.8826Z" fill="#030169"/>
<path d="M5.26976 53.7409C7.56761 53.7409 9.43039 51.8782 9.43039 49.5803C9.43039 47.2825 7.56761 45.4197 5.26976 45.4197C2.97191 45.4197 1.10913 47.2825 1.10913 49.5803C1.10913 51.8782 2.97191 53.7409 5.26976 53.7409Z" fill="#030169"/>
<path d="M5.27855 53.8543C5.03868 53.8543 4.79445 53.8325 4.55022 53.7933C3.42502 53.6014 2.44374 52.9821 1.78519 52.0531C1.12664 51.1242 0.869329 49.9902 1.06122 48.865C1.25312 47.7398 1.87242 46.7586 2.80136 46.1C3.73031 45.4415 4.86423 45.1841 5.98943 45.376C7.11463 45.5679 8.09592 46.1872 8.75446 47.1162C9.41301 48.0451 9.67033 49.1791 9.47843 50.3043C9.28654 51.4295 8.66724 52.4107 7.73829 53.0693C7.0056 53.5839 6.15516 53.8543 5.27855 53.8543ZM1.16589 48.8825L1.27493 48.8999C1.09175 49.9684 1.33598 51.0413 1.964 51.9266C2.58766 52.812 3.52097 53.3964 4.58947 53.5795C5.65798 53.7627 6.73085 53.5185 7.61618 52.8905C8.50151 52.2668 9.08592 51.3335 9.26909 50.265C9.45226 49.1965 9.20803 48.1236 8.58001 47.2383C7.95636 46.353 7.02305 45.7686 5.95454 45.5854C4.88604 45.4022 3.81317 45.6464 2.92784 46.2745C2.04251 46.8981 1.4581 47.8314 1.27493 48.8999L1.16589 48.8825Z" fill="#030169"/>
<path d="M38.8035 77.6799C41.1013 77.6799 42.9641 75.8171 42.9641 73.5193C42.9641 71.2214 41.1013 69.3586 38.8035 69.3586C36.5056 69.3586 34.6428 71.2214 34.6428 73.5193C34.6428 75.8171 36.5056 77.6799 38.8035 77.6799Z" fill="#030169"/>
<path d="M38.8122 77.7889C38.5724 77.7889 38.3281 77.7671 38.0839 77.7278C36.9587 77.5359 35.9774 76.9166 35.3189 75.9877C34.6603 75.0587 34.403 73.9248 34.5949 72.7996C34.7868 71.6744 35.4061 70.6931 36.3351 70.0346C37.264 69.376 38.3979 69.1187 39.5231 69.3106C40.6483 69.5025 41.6296 70.1218 42.2882 71.0507C42.9467 71.9797 43.204 73.1136 43.0121 74.2388C42.8202 75.364 42.2009 76.3453 41.272 77.0039C40.5393 77.5185 39.6889 77.7889 38.8122 77.7889ZM38.7948 69.4633C37.9618 69.4633 37.155 69.7206 36.4615 70.209C35.5762 70.8327 34.9918 71.766 34.8086 72.8345C34.6254 73.903 34.8697 74.9759 35.4977 75.8612C36.1214 76.7465 37.0547 77.3309 38.1232 77.5141C39.1917 77.6973 40.2645 77.4531 41.1499 76.825C42.0352 76.2014 42.6196 75.2681 42.8028 74.1996C42.986 73.1311 42.7417 72.0582 42.1137 71.1729C41.49 70.2875 40.5567 69.7031 39.4882 69.52C39.2527 69.4851 39.0216 69.4633 38.7948 69.4633Z" fill="#030169"/>
<path d="M38.5757 39.7262C42.3009 39.5696 45.1938 36.4228 45.0372 32.6976C44.8806 28.9723 41.7338 26.0794 38.0086 26.236C34.2833 26.3926 31.3904 29.5394 31.547 33.2647C31.7036 36.9899 34.8504 39.8828 38.5757 39.7262Z" fill="#030169"/>
<path d="M44.5558 42.4933C40.4257 42.4933 36.3392 42.4933 32.2571 42.4933C30.2597 42.4933 28.6155 44.1375 28.6155 46.1349V48.0888C31.193 50.4438 34.6558 51.8612 38.3847 51.8612C42.1571 51.8612 45.5764 50.4395 48.1975 48.0888V46.1349C48.1975 44.1375 46.5533 42.4933 44.5558 42.4933Z" fill="#030169"/>
<path d="M25.9552 74.7142C25.5147 74.7142 25.0655 74.6357 24.6294 74.4656C18.467 72.0931 12.9762 68.1331 8.75011 63.013C7.45045 61.4386 7.67724 59.1096 9.24729 57.81C10.8217 56.5103 13.1506 56.7371 14.4503 58.3072C17.8651 62.4504 22.3049 65.6472 27.281 67.5661C29.1869 68.2988 30.1377 70.4358 29.405 72.3417C28.8424 73.8114 27.4424 74.7142 25.9552 74.7142ZM51.2199 74.6182C49.7458 74.6182 48.3546 73.7329 47.7833 72.2763C47.0331 70.3791 47.9664 68.2334 49.8636 67.4832C54.831 65.525 59.249 62.289 62.6289 58.1284C63.9155 56.5452 66.2444 56.3054 67.8276 57.5919C69.4107 58.8785 69.6506 61.2074 68.364 62.7905C64.1816 67.9325 58.7213 71.9317 52.5719 74.3566C52.1314 74.5354 51.6735 74.6182 51.2199 74.6182ZM3.69978 40.3694C3.63 40.3694 3.56022 40.3694 3.49044 40.365C1.45374 40.2516 -0.107587 38.5071 0.00580561 36.4704L0.0101661 36.405C0.37215 29.7759 2.4481 23.33 6.01124 17.7694C7.11028 16.0511 9.39557 15.5495 11.1139 16.6529C12.8322 17.7519 13.3338 20.0372 12.2304 21.7556C9.35632 26.2477 7.67724 31.4506 7.38503 36.8106L7.38067 36.8804C7.276 38.8473 5.64926 40.3694 3.69978 40.3694ZM73.2224 40.1077C71.2817 40.1077 69.6549 38.5943 69.5372 36.6318C69.2232 31.298 67.5135 26.1037 64.6046 21.6073C63.4968 19.8933 63.9853 17.608 65.6949 16.4959C67.4045 15.3838 69.6942 15.8766 70.8063 17.5862C74.413 23.1512 76.5239 29.584 76.9164 36.1913C77.0385 38.228 75.4815 39.9769 73.4448 40.099C73.3707 40.1077 73.2966 40.1077 73.2224 40.1077ZM29.5227 8.54971C27.8873 8.54971 26.3913 7.45504 25.9552 5.80213C25.4319 3.83084 26.605 1.80723 28.5763 1.28388C32.4666 0.25026 36.5269 -0.164058 40.5785 0.0583652C43.1385 0.197925 45.6855 0.594798 48.1496 1.23154C50.1253 1.74181 51.3115 3.7567 50.8013 5.73235C50.291 7.70799 48.2761 8.89425 46.3004 8.38399C44.3074 7.86936 42.2488 7.55099 40.1729 7.4376C36.8889 7.25878 33.6136 7.59024 30.4735 8.4276C30.1551 8.51046 29.8367 8.54971 29.5227 8.54971Z" fill="#030169"/>
<path d="M102.992 30.9708H103.075C104.532 28.3497 107.031 27.1809 109.988 27.1809H111.444V34.4686C110.402 33.8841 109.403 33.762 108.239 33.762C104.035 33.762 102.992 36.5532 102.992 40.2167V48.8345H95.4167V27.4731H102.992V30.9708Z" fill="#030169"/>
<path d="M139.335 38.1757C139.335 45.4197 133.338 49.5411 126.469 49.5411C119.644 49.5411 113.603 45.4589 113.603 38.1757C113.603 30.8924 119.6 26.771 126.469 26.771C133.338 26.7666 139.335 30.888 139.335 38.1757ZM121.597 38.1757C121.597 40.8796 123.386 42.9643 126.469 42.9643C129.548 42.9643 131.34 40.884 131.34 38.1757C131.34 35.5545 129.552 33.3478 126.469 33.3478C123.39 33.3434 121.597 35.5502 121.597 38.1757Z" fill="#32C0CA"/>
<path d="M151.987 30.2207H152.069C153.818 27.6389 155.942 26.7666 158.895 26.7666C164.639 26.7666 166.928 30.3864 166.928 35.633V48.8301H159.353V38.4242C159.353 36.3832 159.684 32.8026 155.938 32.8026C152.859 32.8026 151.982 35.0922 151.982 37.7569V48.8301H144.407V27.4731H151.982V30.2207H151.987Z" fill="#030169"/>
<path d="M189.659 46.4577H189.576C188.246 48.5816 185.62 49.5367 183.121 49.5367C176.793 49.5367 172.34 44.2509 172.34 38.1321C172.34 32.0132 176.71 26.7666 183.038 26.7666C185.494 26.7666 188.076 27.6825 189.659 29.5578V14.2804H197.234V48.8346H189.659V46.4577ZM180.169 38.1757C180.169 40.8796 181.957 42.9643 185.04 42.9643C188.119 42.9643 189.912 40.884 189.912 38.1757C189.912 35.5546 188.119 33.3478 185.04 33.3478C181.957 33.3434 180.169 35.5502 180.169 38.1757Z" fill="#030169"/>
<path d="M227 48.8301H219.424V46.4576H219.342C218.011 48.5816 215.386 49.5367 212.887 49.5367C206.559 49.5367 202.106 44.2508 202.106 38.132C202.106 32.0132 206.476 26.7666 212.804 26.7666C215.259 26.7666 217.841 27.6825 219.424 29.5578V27.4775H227V48.8301ZM209.93 38.1756C209.93 40.8796 211.718 42.9643 214.802 42.9643C217.881 42.9643 219.673 40.884 219.673 38.1756C219.673 35.5545 217.881 33.3477 214.802 33.3477C211.723 33.3434 209.93 35.5502 209.93 38.1756Z" fill="#030169"/>
</svg>
