
<svg width="260px" height="243px" viewBox="0 0 260 243" version="1.1" xmlns="http://www.w3.org/2000/svg" xmlns:xlink="http://www.w3.org/1999/xlink">
    <defs>
        <linearGradient x1="64.6185852%" y1="10.8359761%" x2="4.86576452%" y2="113.861449%" id="linearGradient-1">
            <stop stop-color="#FF3232" offset="0%"></stop>
            <stop stop-color="#9C13CA" offset="100%"></stop>
        </linearGradient>
        <polygon id="path-2" points="0 0.607352941 23.5348989 0.607352941 23.5348989 13.9288623 0 13.9288623"></polygon>
        <polygon id="path-4" points="0 170 202 170 202 0 0 0"></polygon>
    </defs>
    <g id="Page-1" stroke="none" stroke-width="1" fill="none" fill-rule="evenodd">
        <g id="Onboarding_ronda1" transform="translate(-53.000000, -132.000000)">
            <g id="Group" transform="translate(20.000000, 96.000000)">
                <path d="M155.395876,199.090054 C113.080934,248.624972 58.0488161,204.765309 53.1556792,155.070975 C51.0304842,133.487654 59.5742772,108.592088 78.7870581,80.3842791 L78.7870584,80.3842794 C101.247973,47.4076272 141.162295,30.9385615 180.342066,38.4816231 C213.850587,44.9328306 236.836351,56.1635347 249.299356,72.1737355 C249.299356,72.1737355 249.299356,72.1737355 249.299356,72.1737355 C270.334022,99.1952449 265.480727,138.152472 238.459217,159.187138 C227.83984,167.453702 214.819207,172.040808 201.363316,172.255842 C185.787745,172.504699 170.465266,181.449453 155.395876,199.090054 Z" id="Rectangle-Copy-2" fill-opacity="0.1" fill="url(#linearGradient-1)"></path>
                <g id="Group-8" transform="translate(33.000000, 90.000000)">
                    <g id="Group-3" transform="translate(163.000000, 72.000000)">
                        <path d="M97,34.1401876 C97,29.0385639 93.0464921,24.8418641 87.9779581,24.3323726 C86.6335943,17.9899381 80.8997243,13.223782 74.0294347,13.223782 C72.9255332,13.223782 71.8528661,13.3508404 70.8208465,13.5835711 C69.6086941,9.83807518 67.237873,6.41378954 63.7815487,3.88142841 C54.984138,-2.56416239 42.5207472,-0.800022095 35.9439757,7.82191484 C34.9419069,9.13527054 34.1370856,10.5329125 33.5192431,11.9800359 C31.3910236,8.945312 27.8260206,6.95431173 23.7847996,6.95431173 C17.2649346,6.95431173 11.979899,12.134351 11.979899,18.5241703 C11.979899,19.6282781 12.1407777,20.6950651 12.4360071,21.7069193 C12.09414,21.6763078 11.748422,21.6586958 11.3984253,21.6586958 C5.10319137,21.6586958 0,26.6600985 0,32.8293479 C0,38.9985973 5.10319137,44 11.3984253,44 C11.5255023,44 11.6517236,43.9945487 11.7779449,43.9907746 L87.3438566,44 C92.7123266,43.7819461 97,39.4527365 97,34.1401876 Z" id="Stroke-4" fill="#EEEEEE"></path>
                        <path d="M40.0576865,3.80727804 C46.9316999,-1.17013159 56.5836672,-1.39223679 63.7815487,3.88142841 C67.237873,6.41378954 69.6086941,9.83807518 70.8208465,13.5835711 C71.8528661,13.3508404 72.9255332,13.223782 74.0294347,13.223782 C80.8997243,13.223782 86.6335943,17.9899381 87.9779581,24.3323726 C93.0464921,24.8418641 97,29.0385639 97,34.1401876 C97,35.1346027 96.8497719,36.0945644 96.5703474,36.9994933 L88.5,37 C61.7141896,37 40,22.4492544 40,4.5 C40,4.28024745 40.0032548,4.0610043 40.0097337,3.84229102 Z" id="Combined-Shape" fill="#F5F5F5"></path>
                        <path d="M23.7847996,6.95431173 C27.8260206,6.95431173 31.3910236,8.945312 33.5192431,11.9800359 C33.5092876,11.9810025 33.5047283,11.9905435 33.5,12 C32,15 31,19 31,20 C27,19.5 21.5,17.5 20.5,7.5 L20.4923644,7.41027318 C21.5373776,7.11342332 22.6421239,6.95431173 23.7847996,6.95431173 Z" id="Combined-Shape" fill="#F5F5F5"></path>
                    </g>
                    <path d="M250.999571,14.7592736 C251.035646,14.3546477 251.05669,13.9456709 251.05669,13.5319083 C251.05669,6.05851146 245.076303,0 237.699704,0 C232.088232,0 227.288462,3.5067578 225.310746,8.47364949 C223.947175,6.44747442 221.651651,5.1156896 219.048196,5.1156896 C214.864717,5.1156896 211.473611,8.55109402 211.473611,12.789224 C211.473611,13.6454646 211.617914,14.4660285 211.87302,15.2348178 C211.489931,15.1743414 211.100401,15.1334437 210.700563,15.1334437 C207.271235,15.1334437 204.377458,17.4437271 203.444646,20.6106862 C203.043949,20.5106174 202.627362,20.4514463 202.196173,20.4514463 C199.326446,20.4514463 197,22.8082834 197,25.7154987 C197,28.5752902 199.252577,30.8973207 202.057454,30.9725899 L202.057454,30.9795512 L249.742079,30.9795512 C249.955955,30.9917334 250.17155,31 250.389292,31 C255.697127,31 260,27.3601072 260,22.8705001 C260,18.5544905 256.022667,15.0259786 250.999571,14.7592736 Z" id="Stroke-2" fill="#F5F5F5"></path>
                    <path d="M81.736326,69.3845514 C81.137848,69.3845514 80.5609864,69.4741831 80.0129467,69.6321057 C79.6009633,65.6038009 76.2207494,62.4615696 72.1115114,62.4615696 C71.5168481,62.4615696 70.9391388,62.5324213 70.3817744,62.657052 C70.5135921,61.997192 70.5835276,61.3142838 70.5835276,60.6155833 C70.5835276,54.9226898 66.0008477,50.3075109 60.3475195,50.3075109 C57.2661208,50.3075109 54.5043059,51.6805832 52.6279164,53.8500972 C51.8259898,52.0519145 50.6951546,50.3659849 49.2286292,48.8887691 C42.754725,42.3704103 32.2593199,42.3704103 25.7858395,48.8887691 C22.0169541,52.6844582 20.4465851,57.852366 21.0662557,62.7949141 C20.4787978,62.6779661 19.8718428,62.6152239 19.250053,62.6152239 C15.4871014,62.6152239 12.2471824,64.8628455 10.7759946,68.095989 C9.74900299,67.5453943 8.57790194,67.2308297 7.33347462,67.2308297 C3.28357576,67.2308297 0,70.536959 0,74.6152014 C0,78.6793589 3.26111165,81.9748178 7.29151334,81.9978659 L7.29151334,82 L7.33347462,82 L81.736326,82 L82.13517,82 L82.13517,81.9799396 C85.4081495,81.7712258 88,79.0404466 88,75.6924891 C88,72.2088037 85.1958,69.3845514 81.736326,69.3845514 Z" id="Stroke-6" fill="#F5F5F5"></path>
                </g>
                <path d="" id="Path-10" stroke="#979797"></path>
                <g id="Group-56" transform="translate(58.000000, 109.000000)">
                    <path d="M30.8366499,73.2697679 C29.6486245,70.1265861 27.3883593,68 24.7929682,68 C20.0310819,68 18.437807,72.6465865 18.1842202,76.730326 C18.0529422,78.8602181 18.2249898,80.9868042 18.5226077,83.0952072 C18.9531344,86.130944 18.0203265,89.0303082 17.6452465,92.0338114 C17.2497816,95.2009617 16.8551321,98.3681121 16.4588519,101.535262 C15.9361859,105.727274 15.4118892,109.917632 14.8867771,114.12452 C14.8867771,114.12452 10.7266497,119.38437 9.14234406,124.441727 C7.55640762,129.499084 6.56570696,138.804655 6.56570696,138.804655 L3,155.798334 L12.3109554,156 L22.2171465,126.464174 L25.9809936,119.181877 L45,77.7105557 L30.8366499,73.2697679 Z" id="Fill-4" fill="#546BAE"></path>
                    <polygon id="Fill-6" fill="#FCB8A3" points="52 40.8241411 62.4873555 36 73.096183 51.4372515 94.6749931 53.7282088 99.4971874 43.9600367 99.2558739 39.6179019 102 38.4124783 101.879343 53.6083189 96.1212437 58.6730554 71.6499323 60"></polygon>
                    <polygon id="Fill-8" fill="#4E4F64" points="61.627945 31 65 39.1963636 56.1117474 43.9799239 61.3890707 51.0143763 49.583606 64.6631036 47.7781414 80 20 70.9947738 41.9445353 34.5528626"></polygon>
                    <path d="M56,27.9076956 L56.8496676,19.7362427 L60.691608,18.3236288 C60.6531325,17.9856869 60.637101,17.641167 60.6579419,17.2892469 C60.7316867,15.9679021 61.2270589,14.7789384 61.9933629,13.8440479 L62.7508496,7.60815543 L66.4621336,5.15458172 L70.5269113,5 L72.198993,7.87373999 L72.1156294,11.0377318 L70.9212853,12.8236441 C71.0856079,12.7891098 71.2579461,12.7701983 71.4383001,12.7808874 C72.3416731,12.8343332 73.0406449,13.4748607 72.9981615,14.2107683 C72.9588844,14.9088528 72.2663252,15.4359107 71.4246733,15.4433109 C71.7228586,16.2162195 71.8711496,17.066419 71.8206505,17.9544416 C71.6386934,21.171057 68.9918986,23.6303865 65.909048,23.446204 C65.9042386,23.4453817 65.8994292,23.4445595 65.8946197,23.4445595 L59.728117,32 L56,27.9076956 Z" id="Fill-10" fill="#FCCEBE"></path>
                    <path d="M71.854426,6.56561809 C71.5594665,7.46008877 70.790114,8.07933769 70.0756568,8.66008834 C68.3149129,10.0927158 66.6410181,11.6457528 65.0695398,13.3044553 C64.5443482,13.8581752 64.0085052,14.4733286 63.6652052,15.1736696 C63.2014635,16.1197444 63.5365702,16.8569455 63.3071573,17.7383104 C62.9204327,19.2323713 61.377631,19.2364668 60.4411349,20.1964665 C59.0376196,21.6340086 59.848758,24.64097 58.1846953,25.7287512 C57.620995,26.0965326 56.8000246,26.2193995 56.593553,26.8836996 C56.4772079,27.2563957 56.6173136,27.659399 56.763974,28.0189893 C57.4251747,29.6465655 58.2477838,31.1987834 59.2145952,32.6453358 C58.3395489,32.7452675 57.4415614,32.6092948 56.6287843,32.2546192 C56.9712649,33.5250624 57.1531566,34.8438333 57.1670852,36.1650615 C56.5189938,35.4589866 55.8700831,34.7537309 55.2219917,34.0492943 C55.042558,33.8527073 54.8557504,33.6520248 54.6156862,33.5520931 C53.8725523,33.2408304 53.1458051,34.0026049 52.6705927,34.6791917 C51.992186,33.9337995 51.3145986,33.1884072 50.6361919,32.4421959 C49.9921972,33.67496 49.2089161,35.0248571 47.9119139,35.3615123 C46.7574755,35.6613074 45.467028,35.0584407 44.3822328,35.571205 C43.6333636,35.9250616 43.1802731,36.7212387 42.5854383,37.3175525 C41.9914228,37.9138663 40.9869221,38.2939344 40.3863519,37.7066309 C40.011098,37.3388494 39.9529254,36.7318872 40.0291233,36.1986451 C40.2560782,34.608748 41.4023233,33.3096359 41.7112113,31.7361211 C41.9791328,30.364927 41.5874922,28.8978968 41.9824101,27.5602864 C42.3371808,26.3602868 43.2605676,25.4658161 44.0610547,24.5344854 C47.1499354,20.9459543 48.7722122,16.0017922 48.4477569,11.1698485 C48.3797523,10.1574257 48.2609492,9.029508 48.8566034,8.2325117 C49.2695466,7.6812491 49.9389406,7.41995226 50.428901,6.94404799 C51.2474134,6.14950903 51.4530657,4.88889514 52.0003793,3.86746206 C53.1335151,1.75497134 55.583317,0.889988718 57.8528659,0.473879651 C61.5382201,-0.201068914 65.341558,-0.154379511 69.0097062,0.609852299 C69.6586169,0.745824947 70.3296496,0.916200312 70.8409126,1.35688275 C71.7659381,2.15387905 71.9052245,3.56193316 71.9748677,4.81845148 C72.0068217,5.38773455 72.0371369,5.97176165 71.8716319,6.51401402 L71.854426,6.56561809 Z" id="Fill-12" fill="#F15F38"></path>
                    <g id="Group-16" transform="translate(0.000000, 155.000000)">
                        <mask id="mask-3" fill="white">
                            <use xlink:href="#path-2"></use>
                        </mask>
                        <g id="Clip-15"></g>
                        <path d="M11.5594759,2.10864706 L21.4946483,10.0944118 C21.4946483,10.0944118 23.8358897,12.1754706 23.5023724,13.5071176 C23.1672,14.8387647 10.2030621,12.5913529 10.2030621,12.5913529 L-0.000248275862,9.59535294 L2.5089931,0.607352941 C2.5089931,0.607352941 5.68692414,2.35488235 7.19313103,2.60441176 C8.69851034,2.85394118 11.5594759,2.10864706 11.5594759,2.10864706" id="Fill-14" fill="#4E5067" mask="url(#mask-3)"></path>
                    </g>
                    <path d="M60.9368887,158.005019 C61.0656657,157.955788 61.61803,158.283732 61.7354682,158.332964 C62.4635848,158.641851 63.1827923,158.967413 63.8922809,159.312826 C66.5172263,160.591253 68.6051959,162.65103 71.5727369,163.249746 C72.2312005,163.382353 72.9123419,163.445084 73.536789,163.69124 C74.9193197,164.235962 75.303221,165.897917 75.8507258,167.118378 C76.2548751,168.018041 76.6258177,168.932791 77,169.845159 C71.413183,169.877716 65.8247461,169.90789 60.2379291,169.942828 C57.2047847,169.962679 54.1708305,169.975384 51.1368762,170 L51,159.101608 C51,159.101608 55.2893278,159.849607 56.6734783,159.470049 C58.0576288,159.089697 60.9360787,158.005019 60.9368887,158.005019" id="Fill-17" fill="#4E5067"></path>
                    <path d="M157.178716,101.118727 L146.097716,106.458177 L124.222748,94 L123,98.4851061 L142.931365,114.217865 C142.931365,114.217865 143.794915,115 145.522016,115 C147.249117,115 162,108.665031 162,108.665031 L157.178716,101.118727 Z" id="Fill-19" fill="#FCCEBE"></path>
                    <polygon id="Fill-21" fill="#FCCEBE" points="180 160.499637 183.560956 159 196 169 181.528554 167.573044"></polygon>
                    <path d="M163.012281,125.134864 L146.649367,119.275732 C146.649367,119.275732 131,116.276061 131,130.064485 C131,143.852085 131.222726,154.480834 131.222726,154.480834 L139.886755,154.358769 L141.662786,136.63374 C141.662786,136.63374 141.595143,134.593271 143.791879,134.593271 C145.987789,134.593271 159.289462,142.524213 159.289462,142.524213 L138.910062,155.701486 C138.910062,155.701486 135.615371,156.676359 135.615371,161.069058 C135.615371,165.461757 138.421715,168.877935 138.421715,168.877935 L181.254339,167.535217 L181.133078,160.458732 L184.427768,160.337491 L195.409794,169 L202,168.877935 L186.136157,156.920489 L183.695248,154.846205 C183.695248,154.846205 188.332067,151.919113 189.919194,149.722763 C191.505496,147.525589 192.996933,143.556819 192.996933,143.556819 L163.012281,125.134864 Z" id="Fill-23" fill="#4E4F64"></path>
                    <path d="M176,80.5139759 L175.59612,72.3818861 L171.653237,70.7574234 C171.712978,70.4250358 171.75,70.0853162 171.75,69.7366351 C171.75,68.4250077 171.301524,67.2201028 170.554346,66.2498244 L170.131113,60.0362952 L166.386805,57.3910442 L162.136805,57 L160.214166,59.7430121 L160.113195,62.8786976 L161.258365,64.7141613 C161.088398,64.6709835 160.909176,64.6416552 160.720699,64.6416552 C159.769897,64.6416552 159,65.2339242 159,65.964688 C159,66.6563474 159.694169,67.2192881 160.575975,67.2755007 C160.217531,68.0233728 160.012225,68.8551563 160.012225,69.7366351 C160.012225,72.9285333 162.639131,75.516757 165.881113,75.516757 C165.886161,75.516757 165.89121,75.5159424 165.896258,75.5159424 L166.083894,86 L176,80.5139759 Z" id="Fill-25" fill="#FCCEBE"></path>
                    <path d="M162.067708,109.544272 L156,100.035667 C156,100.035667 163.360705,83.7748481 173.728531,81.2078705 C184.095535,78.640893 184.360386,100.696147 184.360386,100.696147 L189.503584,126.052976 C189.503584,126.052976 194.516003,138.203501 192.53785,143.353927 C190.559696,148.505177 163.2546,139.920585 163.2546,139.920585 L162.067708,109.544272 Z" id="Fill-27" fill="#FAFBFD"></path>
                    <path d="M159.651328,62.0552441 C159.979347,61.4689134 160.170554,60.8195276 160.403794,60.1938898 C160.705439,59.3880945 161.112579,58.5667402 161.837847,58.0975118 C163.139209,57.255685 165.372706,57.6610394 166.660058,58.3611969 C167.998508,59.0875591 168.555646,60.4829606 168.555646,61.9471496 C168.555646,66.3790236 167.960596,71.1057008 170.934197,73.0759685 C173.907797,75.0454173 174.105598,81.3484724 174.105598,81.3484724 C174.105598,81.3484724 178.070673,84.5004094 178.863523,87.2576378 C179.656374,90.0148661 182.034925,97.5986772 182.034925,97.5986772 L184.6121,104 L186,103.113134 L183.026399,59.288189 C183.026399,59.288189 179.062148,52 171.826771,52 C164.59057,52 158.445569,55.6432756 159.039794,62.2427717 C159.106552,62.9797795 159.46012,62.3983622 159.651328,62.0552441 Z" id="Fill-29" fill="#4E4F64"></path>
                    <path d="M116,169 C116,169 117.727227,165 121.989205,165 C126.250359,165 130.778762,166.430233 130.778762,166.430233 L138.491895,165.637043 L139,168.70598 L116,169 Z" id="Fill-31" fill="#4E4F64"></path>
                    <polygon id="Fill-33" fill="#FCCEBE" points="131.639694 154 131.416505 162.278452 122 164.905442 130.85532 167 141 165.36263 139.317248 154.188927"></polygon>
                    <mask id="mask-5" fill="white">
                        <use xlink:href="#path-4"></use>
                    </mask>
                    <g id="Clip-36"></g>
                    <polygon id="Fill-35" fill="#FBA32B" mask="url(#mask-5)" points="89 121 126 121 126 111 89 111"></polygon>
                    <polygon id="Stroke-37" stroke="#ED4850" mask="url(#mask-5)" points="89 121 126 121 126 111 89 111"></polygon>
                    <polygon id="Fill-38" fill="#FBA32B" mask="url(#mask-5)" points="87 131 124 131 124 121 87 121"></polygon>
                    <polygon id="Stroke-39" stroke="#ED4850" mask="url(#mask-5)" points="87 131 124 131 124 121 87 121"></polygon>
                    <polygon id="Fill-40" fill="#FBA32B" mask="url(#mask-5)" points="88 140 125 140 125 130 88 130"></polygon>
                    <polygon id="Stroke-41" stroke="#ED4850" mask="url(#mask-5)" points="88 140 125 140 125 130 88 130"></polygon>
                    <polygon id="Fill-42" fill="#FBA32B" mask="url(#mask-5)" points="87 149 124 149 124 139 87 139"></polygon>
                    <polygon id="Stroke-43" stroke="#ED4850" mask="url(#mask-5)" points="87 149 124 149 124 139 87 139"></polygon>
                    <polygon id="Fill-44" fill="#FBA32B" mask="url(#mask-5)" points="89 159 126 159 126 149 89 149"></polygon>
                    <polygon id="Stroke-45" stroke="#ED4850" mask="url(#mask-5)" points="89 159 126 159 126 149 89 149"></polygon>
                    <polygon id="Fill-46" fill="#FBA32B" mask="url(#mask-5)" points="88 169 125 169 125 159 88 159"></polygon>
                    <polygon id="Stroke-47" stroke="#ED4850" mask="url(#mask-5)" points="88 169 125 169 125 159 88 159"></polygon>
                    <path d="M107.570779,105.823077 C97.1759486,107.242495 87.5963823,99.9659007 86.1769411,89.5712405 C84.7574999,79.1757492 92.0333828,69.5963401 102.429876,68.1769221 C112.825538,66.7575042 122.403442,74.0340988 123.822883,84.4295901 C125.243155,94.8250814 117.966441,104.402828 107.570779,105.823077 Z" id="Fill-48" fill="#FBA32B" mask="url(#mask-5)"></path>
                    <path d="M121.841631,84.7004115 C123.111835,94.0016497 116.602461,102.571254 107.300332,103.841452 C97.9990487,105.112497 89.4285568,98.6023077 88.1583525,89.3010695 C86.8881481,79.9989844 93.3983687,71.4285336 102.700498,70.1583353 C112.001781,68.8881371 120.571426,75.3991732 121.841631,84.7004115 Z" id="Stroke-49" stroke="#ED4850" stroke-width="0.5" mask="url(#mask-5)"></path>
                    <path d="M105.943315,90.1102523 C106.375554,89.9413129 106.678907,89.720201 106.85416,89.4502291 C107.030199,89.1794291 107.098571,88.895379 107.060063,88.5955943 C107.026269,88.334732 106.9076,88.1086512 106.704055,87.9148678 C106.501296,87.7219124 106.131928,87.5670513 105.599096,87.4527687 L105.943315,90.1102523 Z M103.738898,82.1204108 C103.419042,82.2843814 103.20528,82.4632584 103.096042,82.6537294 C102.987589,82.8442003 102.948295,83.0562027 102.978944,83.2897367 C103.01038,83.5340363 103.103901,83.735273 103.260292,83.8967592 C103.416684,84.0582455 103.668168,84.1758406 104.015531,84.2495445 L103.738898,82.1204108 Z M108.899041,82.2214432 L106.039194,83.1299067 C105.841936,82.7597306 105.673756,82.5063214 105.536225,82.3713355 C105.39948,82.2371777 105.184147,82.1121294 104.891797,81.9961906 L105.203008,84.3919837 C106.852588,84.609783 107.977194,84.9286148 108.576041,85.3501353 C109.369003,85.9165793 109.832677,86.7115884 109.965492,87.7409595 C110.044081,88.341357 109.988283,88.913598 109.799669,89.4518854 C109.611056,89.9910009 109.339925,90.4572407 108.988633,90.8522608 C108.637341,91.2456247 108.248326,91.5503782 107.82316,91.7665213 C107.397209,91.9826644 106.864376,92.1507757 106.223091,92.2700271 L106.425851,93.8352012 L105.27924,94 L105.075694,92.4364821 C104.296879,92.4745763 103.655594,92.4339977 103.151054,92.3122619 C102.648085,92.1913543 102.199343,91.9868051 101.807971,91.7002705 C101.415812,91.413736 101.100671,91.0899354 100.860975,90.7272125 C100.622065,90.3661459 100.420092,89.9156407 100.254269,89.3765251 L103.37739,88.5309998 C103.542426,89.0634903 103.721609,89.4402915 103.91258,89.6597471 C104.103551,89.8800309 104.394329,90.0580798 104.785702,90.1922376 L104.406904,87.2664385 C103.308232,87.1099211 102.523129,86.949263 102.051596,86.7861205 C101.579277,86.6238061 101.14861,86.3165682 100.75881,85.8635786 C100.369795,85.4089328 100.128527,84.8242699 100.035007,84.1071054 C99.9076927,83.1224535 100.127741,82.2553967 100.693581,81.5009662 C101.260207,80.7465356 102.183625,80.2413736 103.463052,79.9838238 L103.356171,79.1647988 L104.503568,79 L104.609663,79.819025 C105.793211,79.7279302 106.727632,79.8910727 107.414498,80.3092806 C108.100579,80.7283167 108.595688,81.3651521 108.899041,82.2214432 L108.899041,82.2214432 Z" id="Fill-50" fill="#4A4A4A" mask="url(#mask-5)"></path>
                    <path d="M100.869585,39.1058784 C101.915714,46.7663487 96.5537898,53.8234397 88.8941306,54.8695688 C81.2344713,55.915698 74.176561,50.5545919 73.1304312,42.8941216 C72.0843015,35.2344667 77.4454106,28.1765603 85.1058852,27.1304312 C92.7663598,26.084302 99.8234548,31.4454081 100.869585,39.1058784" id="Fill-51" fill="#FBA32B" mask="url(#mask-5)"></path>
                    <path d="M99.8789963,39.2406112 C100.849883,46.3532156 95.8721491,52.9070894 88.7594996,53.8788321 C81.6459879,54.8505747 75.0920724,49.8711481 74.1211859,42.7585438 C73.149437,35.6459394 78.128033,29.0920655 85.2406825,28.1211851 C92.353332,27.1494424 98.9072474,32.1280068 99.8789963,39.2406112 Z" id="Stroke-52" stroke="#ED4850" stroke-width="0.5" mask="url(#mask-5)"></path>
                    <path d="M88.2340928,44 C88.5272424,43.873029 88.7335856,43.7062241 88.8531223,43.5037344 C88.972659,43.2995851 89.0196199,43.0854772 88.9925818,42.8605809 C88.9698129,42.6647303 88.8894102,42.4946058 88.7513738,42.3485477 C88.6133373,42.2033195 88.3628794,42.0863071 88,42 L88.2340928,44 Z M86.7364346,37 C86.4304346,37.1532885 86.2254346,37.3210772 86.1214346,37.5012947 C86.0184346,37.6794407 85.9804346,37.8793371 86.0094346,38.0978767 C86.0394346,38.3267737 86.1284346,38.5173485 86.2784346,38.6685655 C86.4274346,38.8208182 86.6684346,38.9295702 86.9994346,39 L86.7364346,37 Z M91.008498,37.5776667 L88.4355712,38.3045652 C88.2566341,38.0072778 88.1068921,37.8052635 87.9825779,37.6967581 C87.8582637,37.5891347 87.6652,37.4894509 87.4024451,37.3977064 L87.682152,39.3128722 C89.1673297,39.4884217 90.178795,39.7433654 90.7184316,40.0803499 C91.4313545,40.5328972 91.8495022,41.1698155 91.9691075,41.9928692 C92.0397406,42.4736455 91.9888848,42.9306035 91.8203072,43.361979 C91.6498461,43.7933544 91.4059266,44.1656252 91.0894905,44.4823201 C90.7730545,44.7963684 90.4227145,45.0407263 90.0403542,45.2136293 C89.657994,45.3856502 89.1776892,45.5206205 88.6013234,45.6167757 L88.7830858,46.8685584 L87.7509015,47 L87.5691391,45.7482173 C86.8675174,45.779975 86.2892681,45.746453 85.8362748,45.6494156 C85.3832814,45.5532603 84.9802021,45.3891789 84.6270369,45.1598177 C84.2748134,44.9313387 83.9903976,44.6719841 83.7756731,44.3826362 C83.5600068,44.0924061 83.3782444,43.7324855 83.2285024,43.3019922 L86.039698,42.6244946 C86.1884983,43.0514592 86.3485999,43.3522752 86.5209445,43.5287069 C86.6932892,43.7042564 86.9551024,43.8454017 87.3073259,43.9539072 L86.9654619,41.6135411 C85.9775409,41.4882746 85.2702686,41.3594795 84.8455284,41.2289201 C84.4217301,41.0992428 84.0337192,40.8531206 83.6833792,40.4905536 C83.3330393,40.1271043 83.1154895,39.6595604 83.0316716,39.0861575 C82.9167751,38.2983901 83.1145477,37.6041314 83.6240475,37.0007351 C84.134489,36.3973388 84.9651338,35.9933103 86.1159817,35.7868852 L86.0199207,35.1314416 L87.0530469,35 L87.1491078,35.6554437 C88.2133125,35.5822245 89.0552585,35.7127839 89.6721206,36.047122 C90.2908661,36.3823421 90.7353835,36.8922297 91.008498,37.5776667 L91.008498,37.5776667 Z" id="Fill-53" fill="#4A4A4A" mask="url(#mask-5)"></path>
                    <path d="M124.062332,99 C124.062332,99 125.574164,92.3852605 124.758451,92.0428694 C123.941913,91.7004782 123.644166,92.2237097 123.2227,93.7572362 C122.802059,95.2891552 120.174292,92.6014652 120.174292,92.6014652 L117.457448,89.2788245 C117.457448,89.2788245 116.037992,88.2195017 115.233826,90.2304468 C114.428011,92.2405882 115.898603,94.7932507 116.715966,95.5270608 C117.534153,96.2616747 121.533539,98.9075705 124.062332,99" id="Fill-54" fill="#FCCEBE" mask="url(#mask-5)"></path>
                    <polygon id="Fill-55" fill="#FCCEBE" mask="url(#mask-5)" points="53 40.8241411 63.6611858 36 74.445857 51.4372515 96.3823408 53.7282088 101.284464 43.9600367 101.039151 39.6179019 103 38.4124783 102.877343 53.6083189 97.8525634 58.6730554 72.9756344 60"></polygon>
                    <polygon id="Fill-1" fill="#FDD0B3" mask="url(#mask-5)" points="51 158.79983 60.9165917 160 61 154 51.8267234 155.628499"></polygon>
                    <polygon id="Fill-2" fill="#FDD0B3" mask="url(#mask-5)" points="4.45702978 154 12 155.166914 11.4003958 159 4.37137203 157.584034 3 156.500412"></polygon>
                    <polygon id="Fill-3" fill="#546BAE" mask="url(#mask-5)" points="45.5997166 77 61.5999528 107.921969 62 155.402271 51.4004015 156 50.1994332 114.106198 34 93.5583327"></polygon>
                </g>
            </g>
        </g>
    </g>
</svg>