<svg width="128" height="39" viewBox="0 0 128 39" fill="none" xmlns="http://www.w3.org/2000/svg">
<path d="M59.3204 25.9641C58.5008 25.9641 57.7632 25.8203 57.1075 25.5327C56.4519 25.2332 55.9367 24.8139 55.562 24.2747C55.1873 23.7356 55 23.1065 55 22.3877H57.1427C57.1895 22.9268 57.3944 23.3701 57.7574 23.7176C58.132 24.065 58.6531 24.2388 59.3204 24.2388C60.0112 24.2388 60.5498 24.071 60.9362 23.7356C61.3226 23.3881 61.5158 22.9448 61.5158 22.4056C61.5158 21.9863 61.3929 21.6448 61.147 21.3813C60.9128 21.1177 60.6142 20.914 60.2513 20.7702C59.9 20.6264 59.4083 20.4707 58.776 20.303C57.9798 20.0873 57.33 19.8716 56.8265 19.656C56.3348 19.4283 55.9133 19.0809 55.562 18.6136C55.2108 18.1463 55.0351 17.5233 55.0351 16.7445C55.0351 16.0257 55.2108 15.3967 55.562 14.8575C55.9133 14.3184 56.405 13.905 57.0373 13.6175C57.6695 13.3299 58.4013 13.1861 59.2326 13.1861C60.4152 13.1861 61.3811 13.4917 62.1305 14.1027C62.8915 14.7018 63.3131 15.5285 63.395 16.5828H61.1821C61.147 16.1275 60.9362 15.7381 60.5498 15.4146C60.1635 15.0911 59.6541 14.9294 59.0219 14.9294C58.4482 14.9294 57.9798 15.0792 57.6169 15.3787C57.2539 15.6782 57.0724 16.1095 57.0724 16.6727C57.0724 17.0561 57.1836 17.3736 57.4061 17.6252C57.6403 17.8648 57.933 18.0565 58.2842 18.2003C58.6355 18.344 59.1155 18.4998 59.7244 18.6675C60.5323 18.8952 61.188 19.1228 61.6914 19.3504C62.2066 19.5781 62.6398 19.9315 62.9911 20.4108C63.354 20.878 63.5355 21.5071 63.5355 22.2978C63.5355 22.9328 63.3657 23.5319 63.0262 24.095C62.6984 24.6581 62.2125 25.1134 61.5685 25.4608C60.9362 25.7963 60.1869 25.9641 59.3204 25.9641Z" fill="#0EA89B"/>
<path d="M74.7672 20.6444C74.7672 21.0158 74.7438 21.3513 74.6969 21.6508H67.303C67.3615 22.4416 67.6484 23.0766 68.1636 23.5558C68.6788 24.0351 69.311 24.2747 70.0604 24.2747C71.1375 24.2747 71.8986 23.8134 72.3435 22.8909H74.5037C74.211 23.8015 73.6783 24.5503 72.9055 25.1374C72.1445 25.7125 71.1961 26 70.0604 26C69.1354 26 68.3041 25.7903 67.5664 25.371C66.8405 24.9397 66.2668 24.3406 65.8453 23.5738C65.4355 22.795 65.2306 21.8964 65.2306 20.878C65.2306 19.8596 65.4296 18.9671 65.8277 18.2003C66.2375 17.4215 66.8054 16.8224 67.5313 16.4031C68.269 15.9837 69.112 15.7741 70.0604 15.7741C70.9736 15.7741 71.7874 15.9777 72.5016 16.3851C73.2158 16.7925 73.772 17.3676 74.1701 18.1104C74.5681 18.8412 74.7672 19.6859 74.7672 20.6444ZM72.6772 19.9974C72.6655 19.2426 72.4021 18.6376 71.8869 18.1823C71.3717 17.727 70.7336 17.4994 69.9726 17.4994C69.2817 17.4994 68.6905 17.727 68.1987 18.1823C67.707 18.6256 67.4142 19.2306 67.3206 19.9974H72.6772Z" fill="#0EA89B"/>
<path d="M88.4519 15.7741C89.2129 15.7741 89.892 15.9358 90.4892 16.2593C91.098 16.5828 91.5722 17.062 91.9118 17.697C92.263 18.332 92.4386 19.0988 92.4386 19.9974V25.8383H90.4541V20.303C90.4541 19.4163 90.2374 18.7394 89.8042 18.2721C89.371 17.7929 88.7797 17.5533 88.0304 17.5533C87.281 17.5533 86.6839 17.7929 86.239 18.2721C85.8058 18.7394 85.5892 19.4163 85.5892 20.303V25.8383H83.6046V20.303C83.6046 19.4163 83.388 18.7394 82.9547 18.2721C82.5215 17.7929 81.9302 17.5533 81.1809 17.5533C80.4316 17.5533 79.8344 17.7929 79.3895 18.2721C78.9563 18.7394 78.7397 19.4163 78.7397 20.303V25.8383H76.7375V15.9358H78.7397V17.068C79.0675 16.6607 79.4832 16.3432 79.9866 16.1155C80.4901 15.8879 81.0287 15.7741 81.6024 15.7741C82.3752 15.7741 83.066 15.9418 83.6748 16.2773C84.2837 16.6128 84.752 17.098 85.0798 17.733C85.3726 17.1339 85.8292 16.6607 86.4497 16.3132C87.0703 15.9538 87.7377 15.7741 88.4519 15.7741Z" fill="#0EA89B"/>
<path d="M96.005 14.6239C95.642 14.6239 95.3376 14.4981 95.0917 14.2465C94.8458 13.9949 94.7229 13.6834 94.7229 13.3119C94.7229 12.9405 94.8458 12.629 95.0917 12.3774C95.3376 12.1258 95.642 12 96.005 12C96.3562 12 96.6548 12.1258 96.9007 12.3774C97.1466 12.629 97.2695 12.9405 97.2695 13.3119C97.2695 13.6834 97.1466 13.9949 96.9007 14.2465C96.6548 14.4981 96.3562 14.6239 96.005 14.6239ZM96.9885 15.9358V25.8383H94.9863V15.9358H96.9885Z" fill="#0EA89B"/>
<path d="M101.619 12.5392V25.8383H99.6172V12.5392H101.619Z" fill="#0EA89B"/>
<path d="M106.25 12.5392V25.8383H104.248V12.5392H106.25Z" fill="#0EA89B"/>
<path d="M108.211 20.8421C108.211 19.8477 108.41 18.9671 108.809 18.2003C109.218 17.4335 109.769 16.8404 110.459 16.4211C111.162 15.9897 111.935 15.7741 112.778 15.7741C113.539 15.7741 114.2 15.9298 114.762 16.2413C115.336 16.5409 115.793 16.9183 116.132 17.3736V15.9358H118.152V25.8383H116.132V24.3646C115.793 24.8318 115.33 25.2212 114.745 25.5327C114.159 25.8442 113.492 26 112.743 26C111.911 26 111.15 25.7843 110.459 25.353C109.769 24.9097 109.218 24.2987 108.809 23.5199C108.41 22.7291 108.211 21.8365 108.211 20.8421ZM116.132 20.878C116.132 20.1951 115.992 19.6021 115.711 19.0988C115.441 18.5956 115.084 18.2122 114.639 17.9487C114.194 17.6851 113.714 17.5533 113.199 17.5533C112.684 17.5533 112.204 17.6851 111.759 17.9487C111.314 18.2003 110.951 18.5777 110.67 19.0809C110.401 19.5721 110.266 20.1592 110.266 20.8421C110.266 21.525 110.401 22.1241 110.67 22.6393C110.951 23.1545 111.314 23.5498 111.759 23.8254C112.216 24.089 112.696 24.2208 113.199 24.2208C113.714 24.2208 114.194 24.089 114.639 23.8254C115.084 23.5618 115.441 23.1784 115.711 22.6752C115.992 22.16 116.132 21.561 116.132 20.878Z" fill="#0EA89B"/>
<path d="M124.294 26C123.533 26 122.848 25.8622 122.239 25.5866C121.642 25.2991 121.168 24.9157 120.817 24.4365C120.466 23.9452 120.278 23.4001 120.255 22.801H122.327C122.362 23.2204 122.556 23.5738 122.907 23.8614C123.27 24.1369 123.721 24.2747 124.259 24.2747C124.821 24.2747 125.254 24.1669 125.559 23.9512C125.875 23.7236 126.033 23.436 126.033 23.0886C126.033 22.7172 125.857 22.4416 125.506 22.2619C125.167 22.0822 124.622 21.8845 123.873 21.6688C123.147 21.4651 122.556 21.2674 122.099 21.0757C121.642 20.884 121.244 20.5905 120.905 20.1951C120.577 19.7997 120.413 19.2786 120.413 18.6316C120.413 18.1044 120.565 17.6252 120.87 17.1938C121.174 16.7505 121.607 16.4031 122.169 16.1515C122.743 15.8999 123.399 15.7741 124.136 15.7741C125.237 15.7741 126.121 16.0616 126.788 16.6367C127.467 17.1998 127.83 17.9726 127.877 18.9551H125.875C125.84 18.5118 125.664 18.1583 125.348 17.8947C125.032 17.6312 124.605 17.4994 124.066 17.4994C123.539 17.4994 123.135 17.6012 122.854 17.8049C122.573 18.0086 122.433 18.2781 122.433 18.6136C122.433 18.8772 122.526 19.0988 122.714 19.2786C122.901 19.4583 123.129 19.6021 123.399 19.7099C123.668 19.8057 124.066 19.9315 124.593 20.0873C125.295 20.279 125.869 20.4767 126.314 20.6804C126.771 20.8721 127.163 21.1596 127.491 21.543C127.819 21.9264 127.988 22.4356 128 23.0706C128 23.6337 127.848 24.1369 127.543 24.5802C127.239 25.0235 126.806 25.371 126.244 25.6226C125.693 25.8742 125.044 26 124.294 26Z" fill="#0EA89B"/>
<path d="M21.9637 1.08165C22.4582 1.80278 23.0145 2.4724 23.3957 3.26565C23.7459 3.99708 24.0035 4.75942 23.9314 5.59387C23.8283 6.68587 22.7363 7.86028 21.6444 8.04572C21.5825 8.05602 21.5104 8.06632 21.4486 8.04572C20.0785 7.58213 18.8731 6.55194 19.2234 4.6667C19.4707 3.36867 20.2021 2.31788 21.0984 1.18467C21.2426 2.9875 21.3662 4.6564 21.5001 6.3253C21.5207 6.3253 21.5413 6.3253 21.5516 6.3253C21.5516 4.58429 21.5516 2.38999 21.5516 0.638672L21.9637 1.08165Z" fill="#0EA89B"/>
<path d="M21.3561 38.2817C20.9955 38.2714 20.6247 38.3435 20.3053 38.1272C19.9653 37.9005 19.7284 37.6224 19.6666 37.1897C19.2751 34.3361 18.863 31.4928 18.4819 28.6392C18.4407 28.3404 18.317 28.1344 18.0904 27.9592C16.7512 26.8981 15.4222 25.8164 14.0727 24.7554C13.7121 24.4772 13.5679 24.1166 13.5988 23.6737C13.64 23.2204 13.9594 22.9319 14.4126 22.9113C14.9792 22.8804 15.4737 23.138 15.9888 23.3337C17.2869 23.8282 18.5746 24.3227 19.8726 24.8275C20.1199 24.9202 20.3774 25.0129 20.5422 24.7038C20.6865 24.4051 20.6453 24.1785 20.3362 23.9621C19.2545 23.1689 18.6982 21.16 19.1721 19.9032C19.5636 18.8833 20.6453 18.3167 21.8609 18.4815C22.9323 18.636 23.7461 19.4808 23.8079 20.5625C23.8801 21.8708 23.4371 22.9937 22.4893 23.89C22.2009 24.1578 22.1802 24.4257 22.3245 24.7038C22.4893 25.0335 22.7778 24.8996 23.0456 24.7966C24.4879 24.2403 25.9198 23.6943 27.3621 23.138C27.5887 23.0555 27.8154 22.9731 28.0523 22.9319C28.5159 22.8495 28.9589 22.8701 29.1855 23.3852C29.4019 23.8694 29.2679 24.3021 28.8868 24.642C28.4026 25.0747 27.8875 25.4662 27.3827 25.8783C26.4555 26.6303 25.5284 27.3926 24.5909 28.1447C24.4364 28.2683 24.3436 28.3919 24.3127 28.6083C23.9419 31.3795 23.5607 34.1404 23.1795 36.9116C23.0559 37.952 22.6232 38.2817 21.3561 38.2817Z" fill="#0EA89B"/>
<path d="M19.2953 23.89C18.1106 23.4264 17.0289 23.0143 15.9472 22.5919C15.6897 22.4889 15.4321 22.3962 15.1746 22.3241C13.7838 21.9738 13.0421 22.4683 12.733 23.9827C11.8471 23.2719 10.9714 22.6022 10.137 21.8708C9.78672 21.5618 9.7043 21.0776 9.94124 20.6346C10.1782 20.1916 10.6006 20.0989 11.0538 20.2225C12.1767 20.5316 13.2275 21.057 14.3195 21.4484C14.9376 21.6648 15.5352 21.9017 16.1533 22.1284C16.4314 22.2314 16.7405 22.3344 16.9362 22.0047C17.1216 21.6854 16.895 21.4587 16.6787 21.2527C15.7309 20.3564 15.2673 19.2438 15.2879 17.9458C15.3085 16.7508 16.2666 15.8133 17.5028 15.7309C18.7802 15.6485 19.8619 16.452 20.0783 17.6161C20.1195 17.8634 20.0989 18.0076 19.8413 18.1518C18.5433 18.8936 18.0179 20.1298 18.3373 21.603C18.4918 22.3859 18.7802 23.1276 19.2953 23.89Z" fill="#0EA89B"/>
<path d="M30.0918 24.0033C29.8446 22.4477 29.0204 21.9017 27.5576 22.3653C26.3729 22.7465 25.2191 23.241 24.0549 23.684C23.9313 23.7355 23.8077 23.7767 23.5914 23.8591C24.024 23.1586 24.3125 22.4993 24.4876 21.7884C24.8791 20.2122 24.4052 18.9863 23.0145 18.1416C22.6539 17.9252 22.7878 17.6368 22.8496 17.3792C23.1381 16.2563 24.3846 15.5249 25.5899 15.7515C27.094 16.0297 27.8666 17.2762 27.4958 18.8833C27.2897 19.8002 26.9086 20.6346 26.1565 21.263C25.9093 21.4691 25.7651 21.7369 25.9402 22.0254C26.1256 22.3241 26.4244 22.2211 26.6819 22.1181C28.186 21.5412 29.6901 20.9643 31.1941 20.3874C31.4002 20.305 31.6165 20.2328 31.8329 20.1916C32.2861 20.1092 32.6982 20.1916 32.9249 20.6449C33.1206 21.0261 32.997 21.6236 32.6467 21.912C31.8123 22.6229 30.9675 23.2925 30.0918 24.0033Z" fill="#0EA89B"/>
<path d="M27.3305 21.0982C27.8559 20.2637 28.2061 19.419 28.2989 18.4609C28.4328 17.029 27.8353 15.8957 26.5063 15.3188C26.1561 15.1643 26.0943 14.9789 26.1252 14.6595C26.2385 13.413 27.279 12.5373 28.6079 12.5785C29.9163 12.6198 30.9155 13.5469 30.9155 14.7831C30.9155 16.1739 30.4519 17.3586 29.2981 18.224C29.0715 18.3991 28.8552 18.5845 28.9479 18.9039C29.0509 19.2439 29.3496 19.2232 29.6175 19.2336C30.3695 19.2645 31.1216 19.1614 31.8736 19.3057C32.0384 19.3366 32.2033 19.3675 32.3475 19.4808C30.5653 19.5941 29.0715 20.6552 27.3305 21.0982Z" fill="#0EA89B"/>
<path d="M15.7312 21.1085C14.0005 20.6655 12.5067 19.625 10.6523 19.4911C11.0232 19.285 11.3838 19.2747 11.734 19.2541C12.28 19.2335 12.8363 19.2438 13.3823 19.2438C13.6811 19.2438 14.0005 19.2438 14.0932 18.8833C14.1859 18.5639 13.918 18.3888 13.712 18.224C12.4655 17.2144 11.9298 15.8957 12.1976 14.3092C12.3934 13.1554 13.5678 12.4446 14.8658 12.5991C16.0505 12.7434 16.9056 13.6808 16.9159 14.7934C16.9159 15.051 16.8335 15.1746 16.5965 15.2879C15.0615 15.9884 14.4434 17.2453 14.7937 18.9554C14.9585 19.728 15.2573 20.4389 15.7312 21.1085Z" fill="#0EA89B"/>
<path d="M3.82227 10.3018C5.17181 10.0649 6.39773 9.94128 7.63396 10.1473C9.62222 10.4873 10.6524 11.9295 10.2506 13.8354C10.1991 14.0826 10.0755 14.2269 9.90037 14.3711C8.37569 15.5558 6.72739 15.3292 5.50147 13.753C4.87306 12.9494 4.45068 12.0326 4.06951 10.9612C5.43966 11.6411 6.71709 12.2901 7.99452 12.9288C8.00482 12.9082 8.02543 12.8773 8.03573 12.8567C6.65528 12.0223 5.28513 11.1878 3.82227 10.3018Z" fill="#0EA89B"/>
<path d="M13.4337 7.25247C12.8362 6.11927 12.249 4.99636 11.6515 3.86316C13.3513 4.51218 15.0614 5.13029 15.9473 6.8713C16.483 7.91179 16.0813 9.46738 15.1644 10.1988C14.9584 10.3636 14.7214 10.3533 14.4845 10.3636C12.6713 10.4151 11.6618 9.6219 11.2909 7.84998C11.1055 6.96402 11.1982 5.28482 11.4969 4.50188C12.115 5.47025 12.7229 6.41802 13.3307 7.36579C13.5367 7.70576 13.7427 8.05602 13.9488 8.39598C13.8561 7.9633 13.6912 7.59244 13.4337 7.25247Z" fill="#0EA89B"/>
<path d="M2.09126 20.5522C3.84258 20.3256 5.45998 20.1093 7.08767 19.8929C7.08767 19.8723 7.08767 19.862 7.08767 19.8414C5.28484 19.9444 3.47172 20.0371 1.57617 20.1402C2.03976 19.5633 2.56515 19.1718 3.09055 18.7803C3.925 18.1622 4.80066 17.6471 5.85145 17.5132C7.10827 17.3484 8.59174 18.3579 8.86989 19.5839C8.9111 19.759 8.8905 19.9238 8.83899 20.0886C8.3548 21.7266 6.96405 22.5611 5.29515 22.1799C4.15164 21.9224 3.15236 21.3352 2.09126 20.5522Z" fill="#0EA89B"/>
<path d="M29.5661 7.66454C30.2357 6.61375 30.9054 5.56296 31.6368 4.41945C31.884 5.84111 32.0592 7.15975 31.6265 8.44748C31.0805 10.0855 29.7413 10.5079 28.2269 10.3533C28.0827 10.343 27.9693 10.2709 27.8663 10.1679C26.8773 9.14801 26.4034 7.62333 27.4851 6.26349C28.4844 4.99636 29.9061 4.36794 31.4823 3.76013C30.7714 5.09937 30.1224 6.3356 29.4734 7.57182L29.0819 8.47839C29.2365 8.20024 29.4013 7.93239 29.5661 7.66454Z" fill="#0EA89B"/>
<path d="M35.6652 12.63C36.7469 12.0943 37.8286 11.5483 39.0133 10.9611C38.457 12.4446 37.8801 13.8045 36.6027 14.6698C35.3458 15.5249 34.0478 15.0922 33.0073 14.2371C32.791 14.062 32.791 13.7735 32.7704 13.5263C32.6158 11.6411 33.5533 10.4563 35.4282 10.1473C36.6645 9.94125 37.8801 10.0546 39.2193 10.3018C37.9316 11.0848 36.7469 11.8059 35.5519 12.5373L34.6968 13.1554C35.0368 12.9803 35.3561 12.8052 35.6652 12.63Z" fill="#0EA89B"/>
<path d="M36.9117 20.0268C38.2303 20.2019 39.5593 20.3668 41.0118 20.5625C39.549 21.5206 38.2303 22.4374 36.4893 22.2314C35.1913 22.0769 34.4392 20.9128 34.1508 19.8517C34.1096 19.6971 34.1817 19.5838 34.2435 19.4602C34.9646 17.7604 36.3657 17.1423 38.1273 17.7604C39.4254 18.224 40.4349 19.0996 41.5372 20.1401C39.961 20.068 38.5291 19.9959 37.1074 19.9341C37.1074 19.9341 36.2833 19.8517 35.8609 19.9238C36.2215 19.9547 36.5614 19.9856 36.9117 20.0268Z" fill="#0EA89B"/>
<path d="M14.8857 26.2285C15.8232 26.9806 16.668 27.6708 17.523 28.361C17.6672 28.4743 17.7291 28.6185 17.76 28.7937C18.1205 31.194 18.3678 33.615 18.852 36.005C18.8829 36.1492 18.9344 36.3243 18.6768 36.3243C18.2854 36.3243 17.8733 36.3862 17.5024 36.3037C16.9564 36.2007 16.6062 35.8402 16.5031 35.2633C16.1632 33.3368 15.8232 31.4207 15.4833 29.4942C15.2875 28.4331 15.0918 27.372 14.8857 26.2285Z" fill="#0EA89B"/>
<path d="M27.9493 26.2389C27.5784 28.3714 27.2178 30.3905 26.8573 32.4097C26.7027 33.2854 26.5482 34.161 26.3834 35.0367C26.2082 36.0051 25.8065 36.3347 24.7969 36.3347C23.9315 36.3244 23.9624 36.3347 24.0861 35.49C24.4157 33.3369 24.7248 31.1838 25.0338 29.041C25.0853 28.6804 25.209 28.4126 25.5077 28.1859C26.3319 27.5781 27.0942 26.9291 27.9493 26.2389Z" fill="#0EA89B"/>
<path d="M19.5736 14.9274C19.5942 13.516 20.6038 12.5476 21.9842 12.5579C23.272 12.5682 24.3331 13.5366 24.3537 14.711C24.3537 14.9789 24.3022 15.1231 24.0137 15.2364C22.9526 15.6485 22.2418 16.3696 22.0564 17.5337C22.0254 17.7398 21.9327 17.8119 21.7576 17.7604C21.5516 17.7089 21.2322 17.9252 21.1601 17.5543C20.9953 16.6375 20.5111 15.9576 19.7178 15.4734C19.4706 15.3394 19.6251 15.0819 19.5736 14.9274Z" fill="#0EA89B"/>
<path d="M1.45256 14.9068C0.968376 14.7935 0.484188 14.6802 0 14.5669C0.649018 13.8663 2.47245 13.4955 3.27599 13.8869C3.8426 14.1651 4.35769 15.1129 4.19286 15.5867C3.97652 16.1843 3.02875 16.72 2.37973 16.586C1.41136 16.38 0.793244 15.7001 0.133924 14.8965C0.535697 14.9377 0.844753 14.9789 1.14351 15.0098C1.14351 15.0098 2.31792 15.2262 2.91543 15.2674C2.44154 15.0614 1.45256 14.9068 1.45256 14.9068Z" fill="#0EA89B"/>
<path d="M41.7531 15.0098C42.0621 14.9686 42.3609 14.9377 42.67 14.8965C42.33 15.6382 41.2689 16.4624 40.4963 16.586C39.7648 16.6993 38.7037 16.0091 38.6831 15.4013C38.6625 14.6904 39.2703 13.9178 39.9915 13.7427C40.4241 13.6397 40.8465 13.6912 41.2586 13.7942C41.8355 13.9384 42.3918 14.1548 42.9996 14.5256C42.4536 14.6595 41.99 14.7729 41.5264 14.8862L39.9606 15.3189C40.5684 15.2261 41.1659 15.1128 41.7531 15.0098Z" fill="#0EA89B"/>
<path d="M35.4689 6.55194C35.7779 6.26348 36.0973 5.97503 36.4166 5.68658C36.5815 6.52103 36.19 7.72635 35.6131 8.26205C35.1701 8.66382 34.1502 8.76684 33.6866 8.44748C33.2952 8.16933 33.1406 7.15975 33.4188 6.63435C33.6042 6.27379 33.8927 6.01624 34.2429 5.8205C34.9126 5.44964 35.644 5.30541 36.499 5.20239C36.0664 5.69688 35.6955 6.12956 35.3349 6.55194C35.0053 6.8816 34.758 7.27307 34.4284 7.60273C34.449 7.62333 34.4078 7.58212 34.4284 7.60273C34.7683 7.25246 35.1186 6.9022 35.4689 6.55194Z" fill="#0EA89B"/>
<path d="M6.84037 5.70723C6.72705 5.56301 6.60343 5.41878 6.41799 5.19214C7.49969 5.35697 8.46806 5.49089 9.2098 6.22233C9.71459 6.72712 9.7867 7.66459 9.40553 8.26209C9.12738 8.68447 8.05599 8.77719 7.50999 8.42693C6.90218 8.03545 6.26346 6.51078 6.4386 5.82055C6.51071 5.5321 6.70644 5.85146 6.70644 5.85146C7.28335 6.42836 7.86025 6.99497 8.43716 7.57187C8.46806 7.54096 8.40625 7.60278 8.43716 7.57187C7.87056 6.97436 7.39667 6.29444 6.84037 5.70723Z" fill="#0EA89B"/>
<path d="M12.053 12.4447C11.5379 12.4447 11.167 12.0944 11.167 11.5896C11.167 11.1054 11.5276 10.7551 12.0117 10.7448C12.5371 10.7345 12.8977 11.0951 12.8977 11.5999C12.8977 12.0841 12.5371 12.4447 12.053 12.4447Z" fill="#0EA89B"/>
<path d="M30.8338 10.7449C31.3283 10.7449 31.7198 11.1363 31.7095 11.6205C31.6889 12.0841 31.318 12.4447 30.8338 12.4447C30.3084 12.4447 29.9684 12.0944 29.9787 11.569C29.989 11.0848 30.3393 10.7449 30.8338 10.7449Z" fill="#0EA89B"/>
<path d="M11.1668 17.1114C11.1771 17.6059 10.7959 17.9974 10.3117 17.9974C9.82755 17.9974 9.42578 17.6059 9.42578 17.1321C9.42578 16.6891 9.81725 16.277 10.2705 16.2564C10.7444 16.2358 11.1565 16.6273 11.1668 17.1114Z" fill="#0EA89B"/>
<path d="M18.2347 11.2085C17.7196 11.2085 17.3591 10.8479 17.3694 10.3431C17.3797 9.86923 17.7505 9.50867 18.2347 9.50867C18.7498 9.50867 19.1104 9.86923 19.1001 10.3843C19.0795 10.8788 18.7395 11.2085 18.2347 11.2085Z" fill="#0EA89B"/>
<path d="M32.5949 16.2563C33.0584 16.2666 33.4293 16.6581 33.419 17.132C33.419 17.6368 33.0378 18.0076 32.533 17.9973C32.0283 17.987 31.6883 17.6059 31.7089 17.0805C31.7398 16.6066 32.1313 16.246 32.5949 16.2563Z" fill="#0EA89B"/>
<path d="M24.6321 11.2084C24.1273 11.2084 23.7976 10.8787 23.7873 10.3739C23.777 9.85886 24.1376 9.49829 24.6527 9.49829C25.1369 9.50859 25.4974 9.85886 25.4974 10.3327C25.4974 10.8581 25.1472 11.2187 24.6321 11.2084Z" fill="#0EA89B"/>
<path d="M13.4341 7.25256C13.6916 7.59253 13.8565 7.97369 13.9492 8.39607C13.7431 8.05611 13.5371 7.70585 13.3311 7.36588C13.362 7.32468 13.3929 7.28347 13.4341 7.25256Z" fill="#0EA89B"/>
<path d="M27.022 1.69981C27.1559 1.29804 27.2898 0.896263 27.4238 0.484188C27.9698 1.13321 28.217 2.37973 27.9698 3.12147C27.774 3.68807 26.9293 4.27528 26.373 4.21346C25.8991 4.16195 25.2707 3.34811 25.2604 2.7506C25.2501 2.34883 25.3737 1.97796 25.59 1.638C26.0021 0.988979 26.5687 0.504792 27.2589 0C27.125 0.649018 27.0117 1.19502 26.8881 1.75132C26.7644 2.1943 26.7335 2.66818 26.5996 3.11116C26.6305 3.12147 26.5687 3.10086 26.5996 3.11116C26.7438 2.64758 26.8881 2.17369 27.022 1.69981Z" fill="#0EA89B"/>
<path d="M16.1538 1.60709C16.092 1.18472 16.0198 0.77264 15.9477 0.339962C16.7307 0.669622 17.5239 1.6586 17.6475 2.43124C17.7403 3.02875 17.2561 3.93531 16.741 4.14135C16.298 4.31648 15.3605 3.8838 15.0721 3.36871C14.8763 3.01845 14.8145 2.62698 14.8454 2.2252C14.9072 1.46287 15.1854 0.77264 15.5769 0C15.752 0.638716 15.9065 1.17441 16.0611 1.72041C16.1538 2.17369 16.3495 2.60637 16.4422 3.05966C16.4731 3.04935 16.4113 3.06996 16.4422 3.05966C16.3495 2.57547 16.2568 2.09128 16.1538 1.60709Z" fill="#0EA89B"/>
</svg>
