<?xml version="1.0" encoding="UTF-8"?>
<svg width="260px" height="270px" viewBox="0 0 260 270" version="1.1" xmlns="http://www.w3.org/2000/svg" xmlns:xlink="http://www.w3.org/1999/xlink">
    <!-- Generator: Sketch 58 (84663) - https://sketch.com -->
    <title>Group 7</title>
    <desc>Created with Sketch.</desc>
    <defs>
        <linearGradient x1="100%" y1="50%" x2="-37.7573809%" y2="29.8047976%" id="linearGradient-1">
            <stop stop-color="#FF3232" offset="0%"></stop>
            <stop stop-color="#9C13CA" offset="100%"></stop>
        </linearGradient>
        <polygon id="path-2" points="0.000145075457 0.0993333333 4.70684285 0.0993333333 4.70684285 19.6933882 0.000145075457 19.6933882"></polygon>
    </defs>
    <g id="UI" stroke="none" stroke-width="1" fill="none" fill-rule="evenodd">
        <g id="Onboarding_registro1" transform="translate(-53.000000, -132.000000)">
            <g id="Group-6" transform="translate(20.000000, 96.000000)">
                <g id="Group-7" transform="translate(33.000000, 9.080446)">
                    <path d="M59.5281601,142.295532 C-0.214010123,116.31216 25.6393603,50.8613595 71.7316736,31.6528122 C91.7505599,23.3101255 118.056271,24.2018365 150.648806,34.3279451 L150.648806,34.3279455 C188.751471,46.1659851 216.170735,79.5211518 220.412326,119.194331 C224.039949,153.12484 220.02036,178.389775 208.353559,194.989136 C208.353559,194.989136 208.353559,194.989136 208.353559,194.989136 C188.662703,223.005012 149.988755,229.753773 121.972879,210.062916 C110.962719,202.324465 102.769183,191.213911 98.6294232,178.408849 C93.8375841,163.586615 80.8038135,151.548848 59.5281601,142.295532 Z" id="Rectangle-Copy-2" fill-opacity="0.1" fill="url(#linearGradient-1)" transform="translate(123.202954, 123.672149) rotate(-433.000000) translate(-123.202954, -123.672149) "></path>
                    <g id="Group-3" transform="translate(163.000000, 152.919554)">
                        <path d="M97,34.1401876 C97,29.0385639 93.0464921,24.8418641 87.9779581,24.3323726 C86.6335943,17.9899381 80.8997243,13.223782 74.0294347,13.223782 C72.9255332,13.223782 71.8528661,13.3508404 70.8208465,13.5835711 C69.6086941,9.83807518 67.237873,6.41378954 63.7815487,3.88142841 C54.984138,-2.56416239 42.5207472,-0.800022095 35.9439757,7.82191484 C34.9419069,9.13527054 34.1370856,10.5329125 33.5192431,11.9800359 C31.3910236,8.945312 27.8260206,6.95431173 23.7847996,6.95431173 C17.2649346,6.95431173 11.979899,12.134351 11.979899,18.5241703 C11.979899,19.6282781 12.1407777,20.6950651 12.4360071,21.7069193 C12.09414,21.6763078 11.748422,21.6586958 11.3984253,21.6586958 C5.10319137,21.6586958 0,26.6600985 0,32.8293479 C0,38.9985973 5.10319137,44 11.3984253,44 C11.5255023,44 11.6517236,43.9945487 11.7779449,43.9907746 L87.3438566,44 C92.7123266,43.7819461 97,39.4527365 97,34.1401876 Z" id="Stroke-4" fill="#EEEEEE"></path>
                        <path d="M40.0576865,3.80727804 C46.9316999,-1.17013159 56.5836672,-1.39223679 63.7815487,3.88142841 C67.237873,6.41378954 69.6086941,9.83807518 70.8208465,13.5835711 C71.8528661,13.3508404 72.9255332,13.223782 74.0294347,13.223782 C80.8997243,13.223782 86.6335943,17.9899381 87.9779581,24.3323726 C93.0464921,24.8418641 97,29.0385639 97,34.1401876 C97,35.1346027 96.8497719,36.0945644 96.5703474,36.9994933 L88.5,37 C61.7141896,37 40,22.4492544 40,4.5 C40,4.28024745 40.0032548,4.0610043 40.0097337,3.84229102 Z" id="Combined-Shape" fill="#F5F5F5"></path>
                        <path d="M23.7847996,6.95431173 C27.8260206,6.95431173 31.3910236,8.945312 33.5192431,11.9800359 C33.5092876,11.9810025 33.5047283,11.9905435 33.5,12 C32,15 31,19 31,20 C27,19.5 21.5,17.5 20.5,7.5 L20.4923644,7.41027318 C21.5373776,7.11342332 22.6421239,6.95431173 23.7847996,6.95431173 Z" id="Combined-Shape" fill="#F5F5F5"></path>
                    </g>
                    <path d="M250.999571,95.6788272 C251.035646,95.2742013 251.05669,94.8652246 251.05669,94.451462 C251.05669,86.9780651 245.076303,80.9195537 237.699704,80.9195537 C232.088232,80.9195537 227.288462,84.4263115 225.310746,89.3932032 C223.947175,87.3670281 221.651651,86.0352433 219.048196,86.0352433 C214.864717,86.0352433 211.473611,89.4706477 211.473611,93.7087777 C211.473611,94.5650183 211.617914,95.3855822 211.87302,96.1543714 C211.489931,96.0938951 211.100401,96.0529974 210.700563,96.0529974 C207.271235,96.0529974 204.377458,98.3632808 203.444646,101.53024 C203.043949,101.430171 202.627362,101.371 202.196173,101.371 C199.326446,101.371 197,103.727837 197,106.635052 C197,109.494844 199.252577,111.816874 202.057454,111.892144 L202.057454,111.899105 L249.742079,111.899105 C249.955955,111.911287 250.17155,111.919554 250.389292,111.919554 C255.697127,111.919554 260,108.279661 260,103.790054 C260,99.4740441 256.022667,95.9455323 250.999571,95.6788272 Z" id="Stroke-2" fill="#F5F5F5"></path>
                    <path d="M81.736326,150.304105 C81.137848,150.304105 80.5609864,150.393737 80.0129467,150.551659 C79.6009633,146.523355 76.2207494,143.381123 72.1115114,143.381123 C71.5168481,143.381123 70.9391388,143.451975 70.3817744,143.576606 C70.5135921,142.916746 70.5835276,142.233837 70.5835276,141.535137 C70.5835276,135.842244 66.0008477,131.227065 60.3475195,131.227065 C57.2661208,131.227065 54.5043059,132.600137 52.6279164,134.769651 C51.8259898,132.971468 50.6951546,131.285539 49.2286292,129.808323 C42.754725,123.289964 32.2593199,123.289964 25.7858395,129.808323 C22.0169541,133.604012 20.4465851,138.77192 21.0662557,143.714468 C20.4787978,143.59752 19.8718428,143.534778 19.250053,143.534778 C15.4871014,143.534778 12.2471824,145.782399 10.7759946,149.015543 C9.74900299,148.464948 8.57790194,148.150383 7.33347462,148.150383 C3.28357576,148.150383 0,151.456513 0,155.534755 C0,159.598913 3.26111165,162.894371 7.29151334,162.91742 L7.29151334,162.919554 L7.33347462,162.919554 L81.736326,162.919554 L82.13517,162.919554 L82.13517,162.899493 C85.4081495,162.690779 88,159.96 88,156.612043 C88,153.128357 85.1958,150.304105 81.736326,150.304105 Z" id="Stroke-6" fill="#F5F5F5"></path>
                    <path d="" id="Path-10" stroke="#979797"></path>
                    <g id="Group-card" transform="translate(74.000000, 44.919554)">
                        <polygon id="Fill-1" fill="#BCD1F2" points="0 63 105 63 105 0 0 0"></polygon>
                        <polygon id="Fill-2" fill="#6597E2" points="0 9 105 9 105 0 0 0"></polygon>
                        <polygon id="Fill-3" fill="#417FD7" points="27 23 66 23 66 19 27 19"></polygon>
                        <polygon id="Fill-4" fill="#417FD7" points="27 29 59 29 59 25 27 25"></polygon>
                        <polygon id="Fill-5" fill="#81ABE7" points="14 42 76 42 76 38 14 38"></polygon>
                        <polygon id="Fill-6" fill="#81ABE7" points="14 49 79 49 79 45 14 45"></polygon>
                        <polygon id="Fill-7" fill="#81ABE7" points="14 56 79 56 79 52 14 52"></polygon>
                        <polygon id="Fill-8" fill="#81ABE7" points="6 49 10 49 10 45 6 45"></polygon>
                        <polygon id="Fill-9" fill="#81ABE7" points="6 42 10 42 10 38 6 38"></polygon>
                        <polygon id="Fill-10" fill="#81ABE7" points="6 56 10 56 10 52 6 52"></polygon>
                        <g id="Group-25" transform="translate(4.000000, 15.000000)">
                            <path d="M85.3682255,24.6974862 C85.3682255,26.1067477 84.2291114,27.2491477 82.8245477,27.2491477 C81.4193396,27.2491477 80.2808698,26.1067477 80.2808698,24.6974862 C80.2808698,23.2882246 81.4193396,22.1464708 82.8245477,22.1464708 C84.2291114,22.1464708 85.3682255,23.2882246 85.3682255,24.6974862" id="Fill-11" fill="#E86195"></path>
                            <path d="M95.4133047,24.6974862 C95.4133047,26.1067477 94.2741906,27.2491477 92.8696268,27.2491477 C91.4644188,27.2491477 90.325949,26.1067477 90.325949,24.6974862 C90.325949,23.2882246 91.4644188,22.1464708 92.8696268,22.1464708 C94.2741906,22.1464708 95.4133047,23.2882246 95.4133047,24.6974862" id="Fill-13" fill="#06CBB5"></path>
                            <path d="M85.3682255,32.02416 C85.3682255,33.4334215 84.2291114,34.5758215 82.8245477,34.5758215 C81.4193396,34.5758215 80.2808698,33.4334215 80.2808698,32.02416 C80.2808698,30.6148985 81.4193396,29.4731446 82.8245477,29.4731446 C84.2291114,29.4731446 85.3682255,30.6148985 85.3682255,32.02416" id="Fill-15" fill="#A689D9"></path>
                            <path d="M95.4133047,32.02416 C95.4133047,33.4334215 94.2741906,34.5758215 92.8696268,34.5758215 C91.4644188,34.5758215 90.325949,33.4334215 90.325949,32.02416 C90.325949,30.6148985 91.4644188,29.4731446 92.8696268,29.4731446 C94.2741906,29.4731446 95.4133047,30.6148985 95.4133047,32.02416" id="Fill-17" fill="#E9C622"></path>
                            <path d="M85.3682255,39.3514154 C85.3682255,40.7606769 84.2291114,41.9024308 82.8245477,41.9024308 C81.4193396,41.9024308 80.2808698,40.7606769 80.2808698,39.3514154 C80.2808698,37.9421538 81.4193396,36.7997538 82.8245477,36.7997538 C84.2291114,36.7997538 85.3682255,37.9421538 85.3682255,39.3514154" id="Fill-19" fill="#A689D9"></path>
                            <path d="M95.4133047,39.3514154 C95.4133047,40.7606769 94.2741906,41.9024308 92.8696268,41.9024308 C91.4644188,41.9024308 90.325949,40.7606769 90.325949,39.3514154 C90.325949,37.9421538 91.4644188,36.7997538 92.8696268,36.7997538 C94.2741906,36.7997538 95.4133047,37.9421538 95.4133047,39.3514154" id="Fill-21" fill="#906ECD"></path>
                            <path d="M11.3441074,7.03616308 C10.5619329,7.82059385 9.62319463,8.21216308 8.52853691,8.21216308 C7.43452349,8.21216308 6.49578523,7.82059385 5.71361074,7.03616308 C4.93143624,6.25173231 4.54034899,5.31093231 4.54034899,4.21311692 C4.54034899,3.11530154 4.93143624,2.16610154 5.71361074,1.36680923 C6.49578523,0.566224615 7.43452349,0.166255385 8.52853691,0.166255385 C9.62319463,0.166255385 10.5619329,0.566224615 11.3441074,1.36680923 C12.1262819,2.16610154 12.5167248,3.11530154 12.5167248,4.21311692 C12.5167248,5.31093231 12.1262819,6.25173231 11.3441074,7.03616308 M3.2498255,11.3414862 C5.08026846,10.6042246 6.83983893,10.2359169 8.52853691,10.2359169 C10.2178792,10.2359169 11.9768054,10.6042246 13.8072483,11.3414862 C15.637047,12.0793938 16.5519463,13.0434554 16.5519463,14.2356092 L16.5519463,16.2587169 L0.505771812,16.2587169 L0.505771812,14.2356092 C0.505771812,13.0434554 1.42067114,12.0793938 3.2498255,11.3414862" id="Fill-23" fill="#E03C7A"></path>
                        </g>
                    </g>
                    <g id="Group" transform="translate(125.000000, 55.919554)">
                        <path d="M13.4629188,45 C13.4629188,45 15.4742294,44.2837626 11.712386,34.1753189 C7.95548962,24.0609395 0,10 0,10 L6.54417997,34.019013 C6.54417997,34.019013 9.4720998,43.1038836 13.4629188,45" id="Fill-1" fill="#FCCEBE"></path>
                        <g id="Group-5">
                            <mask id="mask-3" fill="white">
                                <use xlink:href="#path-2"></use>
                            </mask>
                            <g id="Clip-4"></g>
                            <path d="M4.04785714,17.9105333 C2.38785714,13.0045333 4.075,10.2092 4.15785714,8.0492 C4.24571429,5.89053333 4.72285714,3.60986667 4.70642857,3.62586667 C3.025,5.30653333 3.50785714,6.9092 3.10928571,7.89453333 C2.71142857,8.8792 2.97928571,8.57986667 2.25857143,6.8692 C1.85,5.89653333 2.96785714,3.65786667 3.48928571,2.1292 C3.93785714,0.8052 3.77785714,0.0992 3.77785714,0.0992 C3.77785714,0.0992 2.47714286,1.8632 1.63642857,3.89053333 C0.620714286,6.3272 0.0278571429,9.1492 0.00142857143,9.7832 C-0.0407142857,10.9478667 0.961428571,14.2612 2.05142857,16.5112 C3.28928571,19.0478667 5.24071429,21.4485333 4.04785714,17.9105333" id="Fill-3" fill="#FCCEBE" mask="url(#mask-3)"></path>
                        </g>
                        <path d="M41,47.5785016 C41,52.2273616 37.2227341,56 32.5576606,56 L30.4449526,52 C25.7811855,52 22,48.2273616 22,43.5771987 L22,40.4156352 C22,35.7667752 25.7811855,32 30.4449526,32 L32.5576606,32 C37.2227341,32 41,35.7667752 41,40.4156352 L41,47.5785016 Z" id="Fill-6" fill="#4A4A4A"></path>
                        <polygon id="Fill-8" fill="#FCCEBE" points="19 224 18.3471251 237.335647 9.1047775 238 5 237.541956 13.151213 235.208833 14.0624597 224.117981"></polygon>
                        <path d="M17.9668877,238.753819 L16.0684419,239 L15.738705,238.472938 L8.5251355,238.571148 L5.03110375,237.651899 C5.03110375,237.651899 4.88754034,237.04234 5.2172773,236.853776 C6.20189938,236.293976 9.93651455,236 9.93651455,236 C9.93651455,236 9.44289243,236.694675 9.83359466,236.998472 C10.2315078,237.306853 15.0307211,237.135967 16.2218384,236.937582 C18.270403,236.59581 18.9233215,235.988869 18.9842868,236.154518 C19.1488275,236.597774 17.9668877,238.753819 17.9668877,238.753819" id="Fill-10" fill="#4A4A4A"></path>
                        <path d="M16.7308156,121.30249 L15.5631489,174.835648 L12,227.365466 L19.8363124,228 C19.8363124,228 27.1659384,175.06724 28.0348237,170.488953 C28.9010939,165.909997 38.1842408,129.182632 33.8555053,119.809861 C29.5241546,110.439768 16.7308156,121.30249 16.7308156,121.30249" id="Fill-12" fill="#417FD7"></path>
                        <path d="M47.9106948,91.5725497 C52.6193104,96.9006276 55,118.830305 55,118.830305 C55,118.830305 53.4550844,127.219489 44.789909,99.0640462 C42.1883162,90.6122029 46.747787,90.2613069 47.9106948,91.5725497" id="Fill-14" fill="#FCCEBE"></path>
                        <path d="M53.0411096,139 L54.7842059,136.917101 L55.7388479,134.865382 L56,131.140836 C56,131.140836 55.8256904,127.168892 55.2652755,125.696019 C54.7029864,124.219757 54.8310634,118.330298 54.6242659,117.607756 C54.4180932,116.884537 51,116 51,116 C51,116 52.5038111,122.105001 52.909284,124.575605 C53.317256,127.053665 52.7712108,130.797189 52.8992878,131.773907 C53.1123329,133.445378 53.7002374,134.749477 53.7002374,134.749477 C53.7002374,134.749477 53.7927027,132.111455 53.7427215,131.415348 C53.693365,130.719919 54.4343371,131.028321 54.4343371,131.028321 C54.4343371,131.028321 54.6598775,134.668818 54.3499938,135.639437 C54.042609,136.612766 53.4515807,137.363098 53.4515807,137.363098 L53.0411096,139 Z" id="Fill-16" fill="#FCCEBE"></path>
                        <path d="M22.8956682,58.4309511 L12.9404408,29.7090549 L12.5290223,28 L4,30.4574777 C4,30.4574777 11.9641819,52.5633968 12.6074533,53.5735667 C13.2431568,54.5864144 16.4113546,63.8935003 16.6975588,65.6279936 C16.9851389,67.365834 19.4151225,75.8120329 24.9720245,73.6477656 C30.5323664,71.4788122 22.8956682,58.4309511 22.8956682,58.4309511" id="Fill-18" fill="#7EE5DA"></path>
                        <path d="M43.217617,79.4306837 L46.1635551,109.267699 L46.1635551,111 L55,110.506192 C51.0175409,93.0468213 50.1241063,89.5822193 50.0036124,86.3625356 C49.9639042,85.1902371 49.7503014,75.5927466 49.8783262,73.8604455 C50.0036124,72.1261587 50.1241063,67.4217401 44.7545984,64.3258395 C39.637717,61.375566 43.217617,79.4306837 43.217617,79.4306837" id="Fill-20" fill="#7EE5DA"></path>
                        <path d="M33,222.510031 L33.1212946,241 L40.4815839,238.321658 C40.4815839,238.321658 43.5906604,235.980154 40.9110325,236.27949 C36.9837091,236.729517 37.7849093,235.007142 37.660992,231.692625 C37.5351079,228.374018 38.1514157,222 38.1514157,222 L33,222.510031 Z" id="Fill-22" fill="#FCCEBE"></path>
                        <path d="M41.8337846,236 C41.8337846,236 40.9674661,236.75941 40.0556234,237.308472 C39.1668825,237.846096 36.6019002,239.023658 35.6092011,239.211762 C34.3372416,239.448164 33.1284725,239.331234 33.1284725,239.331234 C33.1284725,239.331234 32.5556831,241.113146 33.8290014,240.99431 C35.0968841,240.872931 41.4532839,238.259164 42.3420248,237.666888 C43.2341631,237.067622 43.3585052,236.121378 41.8337846,236" id="Fill-24" fill="#4A4A4A"></path>
                        <path d="M34.8232881,122.520293 L33.8764018,171.775096 L33,224 L39.2983897,223.66693 C39.2983897,223.66693 45.6579546,171.095525 46.1932379,166.449327 C46.7251965,161.7991 54.3508228,130.88533 49.2519998,121.847437 C44.1531767,112.814245 34.8232881,122.520293 34.8232881,122.520293" id="Fill-26" fill="#417FD7"></path>
                        <path d="M33.4110353,62 C33.4110353,62 23.7181107,62.6602047 21.4231634,63.6538261 C19.1203115,64.6454589 19.613027,76.0532132 21.0891971,84.4840806 C22.5693196,92.9122965 21.9099504,102.336785 19.774411,107.623726 C17.6421652,112.915969 16,123 16,123 L50,122.502195 C50,122.502195 42.2838655,101.506889 42.2838655,93.4101015 C42.2838655,85.3080108 44.4180874,66.7964271 44.2567033,64.9755613 C44.0900496,63.1580097 35.5492095,62 33.4110353,62" id="Fill-28" fill="#2AD6C4"></path>
                        <path d="M40,65.5013083 C40,71.8498578 34.6299081,77 28.00401,77 C21.3734336,77 16,71.8498578 16,65.5013083 C16,59.1481797 21.3734336,54 28.00401,54 C34.6299081,54 40,59.1481797 40,65.5013083" id="Fill-30" fill="#4A4A4A"></path>
                        <path d="M49,57.4964027 C49,63.849282 43.626347,69 36.9969927,69 C30.3716481,69 25,63.849282 25,57.4964027 C25,51.1454856 30.3716481,46 36.9969927,46 C43.626347,46 49,51.1454856 49,57.4964027" id="Fill-32" fill="#4A4A4A"></path>
                        <path d="M47,71.4986918 C47,77.8488425 41.6300576,83 35.0003342,83 C28.3719473,83 23,77.8488425 23,71.4986918 C23,65.1491952 28.3719473,60 35.0003342,60 C41.6300576,60 47,65.1491952 47,71.4986918" id="Fill-34" fill="#4A4A4A"></path>
                        <path d="M41,53.500981 C41,59.8495749 35.6250104,65 28.9969927,65 C22.3716481,65 17,59.8495749 17,53.500981 C17,47.148463 22.3716481,42 28.9969927,42 C35.6250104,42 41,47.148463 41,53.500981" id="Fill-36" fill="#4A4A4A"></path>
                    </g>
                </g>
            </g>
        </g>
    </g>
</svg>